<?xml version="1.0" encoding="UTF-8" standalone="no"?>
<!-- Created with Inkscape (http://www.inkscape.org/) -->

<svg
   xmlns:dc="http://purl.org/dc/elements/1.1/"
   xmlns:cc="http://creativecommons.org/ns#"
   xmlns:rdf="http://www.w3.org/1999/02/22-rdf-syntax-ns#"
   xmlns:svg="http://www.w3.org/2000/svg"
   xmlns="http://www.w3.org/2000/svg"
   xmlns:sodipodi="http://sodipodi.sourceforge.net/DTD/sodipodi-0.dtd"
   xmlns:inkscape="http://www.inkscape.org/namespaces/inkscape"
   width="200.00644mm"
   height="199.96413mm"
   viewBox="0 0 200.00644 199.96413"
   version="1.1"
   id="svg1139"
   sodipodi:docname="blueDonut.svg"
   inkscape:version="0.92.5 (2060ec1f9f, 2020-04-08)">
  <defs
     id="defs1133" />
  <sodipodi:namedview
     id="base"
     pagecolor="#ffffff"
     bordercolor="#666666"
     borderopacity="1.0"
     inkscape:pageopacity="0.0"
     inkscape:pageshadow="2"
     inkscape:zoom="0.35"
     inkscape:cx="-23.861905"
     inkscape:cy="204.88562"
     inkscape:document-units="mm"
     inkscape:current-layer="layer1"
     showgrid="false"
     inkscape:window-width="1312"
     inkscape:window-height="704"
     inkscape:window-x="0"
     inkscape:window-y="27"
     inkscape:window-maximized="1"
     fit-margin-top="0"
     fit-margin-left="0"
     fit-margin-right="0"
     fit-margin-bottom="0" />
  <metadata
     id="metadata1136">
    <rdf:RDF>
      <cc:Work
         rdf:about="">
        <dc:format>image/svg+xml</dc:format>
        <dc:type
           rdf:resource="http://purl.org/dc/dcmitype/StillImage" />
        <dc:title></dc:title>
      </cc:Work>
    </rdf:RDF>
  </metadata>
  <g
     inkscape:label="Layer 1"
     inkscape:groupmode="layer"
     id="layer1"
     transform="translate(3.9972626,-26.172697)">
    <path
       d="m 101.36948,92.113028 c 6.70172,0 13.00339,2.148417 18.27424,5.489224 -6.24487,-7.027334 -15.40475,-11.66989 -25.547461,-11.66989 -18.828456,0 -34.091737,15.261168 -34.091737,34.092438 0,12.12498 6.297083,22.83531 15.834781,28.88193 -5.348111,-6.02192 -8.561917,-14.01587 -8.561917,-22.70125 0,-18.82776 15.263638,-34.092452 34.092094,-34.092452"
       style="fill:#e6e6e6;fill-opacity:1;fill-rule:nonzero;stroke:none;stroke-width:0.03527778"
       id="path1098"
       inkscape:connector-curvature="0" />
    <path
       d="m 161.92908,59.960862 c 13.55548,16.266583 21.71276,37.200416 21.71276,60.028668 0,51.81953 -42.00525,93.82478 -93.8216,93.82478 -22.698075,0 -43.513375,-8.0645 -59.740093,-21.47711 17.20991,20.65161 43.122143,33.79963 72.107783,33.79963 51.81599,0 93.82124,-42.00524 93.82124,-93.82124 0,-29.11829 -13.26409,-55.146228 -34.08009,-72.354728"
       style="fill:#e6e6e6;fill-opacity:1;fill-rule:nonzero;stroke:none;stroke-width:0.03527778"
       id="path1100"
       inkscape:connector-curvature="0" />
    <path
       d="m 59.869407,119.7708 c 0.138994,-18.82775 15.51446,-33.979548 34.342562,-33.838438 18.828101,0.137583 33.978501,15.515168 33.839501,34.342918 -0.13864,18.82775 -15.51446,33.97603 -34.342209,33.83845 C 74.881159,153.97614 59.730414,138.59856 59.869407,119.7708 Z M 183.6429,120.6845 C 184.02496,68.868502 142.33051,26.556335 90.515917,26.175335 38.70133,25.790808 -3.6125995,67.485612 -3.9946578,119.30161 c -0.3820583,51.81248 41.3123918,94.12817 93.1269818,94.50917 51.814586,0.381 94.128166,-41.31028 94.510576,-93.12628"
       style="fill:#ffae75;fill-opacity:1;fill-rule:nonzero;stroke:none;stroke-width:0.03527778"
       id="path1102"
       inkscape:connector-curvature="0" />
    <path
       d="m 175.86168,82.535112 c 0.21837,7.747 0.3235,41.797108 -25.49031,70.731948 -5.29837,5.93725 -23.52569,24.9308 -53.456063,31.0903 C 45.446089,194.95128 6.2083814,157.959 2.4865753,154.33245 16.191286,189.1622 50.128507,213.81431 89.824119,213.81431 c 51.816001,0 93.821251,-42.00525 93.821251,-93.82126 0,-13.31736 -2.78095,-25.985605 -7.78369,-37.457938"
       style="fill:#ff9075;fill-opacity:1;fill-rule:nonzero;stroke:none;stroke-width:0.03527778"
       id="path1104"
       inkscape:connector-curvature="0" />
    <path
       d="M 64.514784,33.929391 C 57.856105,35.721502 34.938249,44.110557 23.786239,63.506278 12.634228,82.902002 23.058812,87.262335 19.907447,100.35392 16.75573,113.4455 3.422142,121.93333 6.0887894,132.35792 8.7554364,142.7825 31.548055,130.81275 31.316987,106.55928 31.08627,82.305805 51.064074,60.839278 51.064074,60.839278 c 0,0 36.351985,-11.370026 36.724518,-16.728721 0.371827,-5.358694 -0.821266,-16.220722 -23.273808,-10.181166"
       style="fill:#ffd080;fill-opacity:1;fill-rule:nonzero;stroke:none;stroke-width:0.03527778"
       id="path1106"
       inkscape:connector-curvature="0" />
    <path
       d="m 109.48161,43.034585 c 0.8837,0.913695 3.57787,3.46075 11.2776,5.199944 9.12424,2.056695 10.60167,-0.338666 16.71814,1.379362 9.54052,2.684638 13.99292,10.773834 15.28268,9.771944 0.95744,-0.74436 -0.86431,-5.693833 -4.12115,-9.697861 -5.07118,-6.237111 -13.82218,-10.435167 -22.54603,-10.424583 -5.50368,0.0071 -7.46513,1.68275 -11.76478,0.08467 -5.588,-2.077861 -7.86977,-6.988527 -8.84202,-6.388805 -0.96944,0.599722 0.20496,6.155972 3.99556,10.075333"
       style="fill:#ffd080;fill-opacity:1;fill-rule:nonzero;stroke:none;stroke-width:0.03527778"
       id="path1108"
       inkscape:connector-curvature="0" />
    <path
       d="m 59.869407,119.7708 c 0.138994,-18.82775 15.51446,-33.979548 34.342562,-33.838438 18.828101,0.137583 33.978501,15.515168 33.839501,34.342918 -0.13864,18.82775 -15.51446,33.97603 -34.342209,33.83845 C 74.881159,153.97614 59.730414,138.59856 59.869407,119.7708 Z m 46.866173,79.83362 c 7.91493,-2.01789 10.89837,-9.35567 11.18024,-10.08592 v 0 c 1.45203,-1.99672 4.34834,-5.43278 9.14294,-8.09272 4.5279,-2.50825 8.72314,-3.20322 11.14425,-3.41842 v -0.004 c 6.01909,0.83961 12.01349,-1.56986 15.6397,-6.31825 5.07576,-6.6428 2.82786,-14.351 2.5975,-15.09183 v 0 c -0.0945,-2.57175 0.0705,-6.93208 1.95015,-11.89919 1.81716,-4.79778 4.457,-8.09978 6.18949,-9.96245 v 0 c 0.75106,-0.61736 7.03545,-5.98664 6.72818,-14.78845 -0.27587,-7.89163 -5.64021,-12.59063 -6.5204,-13.335 h -2.6e-4 c -1.55399,-1.24883 -5.03061,-4.38855 -6.97583,-9.750773 -2.00131,-5.517444 -1.25589,-10.283471 -0.84031,-12.227277 v 0 c 0.16439,-1.0795 1.23542,-8.99936 -4.5466,-15.455194 -5.20101,-5.81025 -12.13732,-6.180666 -13.3731,-6.223 v 0 c -2.03024,0.04939 -6.41456,-0.11289 -11.09945,-2.656416 -5.44971,-2.956277 -8.08108,-7.380111 -9.01559,-9.158112 v 0 C 116.99974,45.352343 112.0037,41.133121 106.04705,40.258232 97.266757,38.967065 91.55564,45.708648 91.274478,46.050843 v 0 c -1.638655,1.361722 -5.087763,3.848805 -10.154709,4.893028 -6.001456,1.234722 -10.841566,-0.261056 -12.846756,-1.012473 h -2.65e-4 C 67.713419,49.628002 60.238414,45.715696 52.55209,49.800863 44.355651,54.161195 43.827897,63.411028 43.812022,63.816725 v 0 c -0.259998,1.922637 -1.212498,7.041443 -5.426075,11.659303 -3.634317,3.98639 -7.803444,5.5245 -9.699273,6.096 h -7.94e-4 c -1.057981,0.426861 -8.170687,3.425474 -10.929762,11.458224 -2.57563,7.500048 0.554919,13.814778 1.115836,14.901328 h 3.44e-4 c 0.856897,2.65642 1.810455,6.63222 1.794933,11.52172 -0.01588,5.04473 -1.057275,9.12284 -1.967089,11.80395 v 0 c -0.518936,1.05128 -4.084813,8.5972 -0.417689,16.75342 2.883253,6.41703 8.387646,9.09461 9.841796,9.74725 h 7.94e-4 c 1.89512,0.65617 6.247339,2.44828 9.91376,6.86153 3.710517,4.46616 4.659842,9.13341 4.94806,11.11602 v 0 c 0.187677,0.9525 2.0574,9.63437 10.400594,13.53609 6.4516,3.01625 12.480221,1.16769 13.852525,0.70908 h 2.64e-4 c 2.256013,-0.66322 6.886927,-1.6898 12.547246,-0.51505 5.02779,1.04069 8.561565,3.3408 10.394598,4.73427 v 0 c 4.148667,4.81895 10.58087,6.92503 16.55339,5.40456"
       style="fill:#1990ea;fill-opacity:1;fill-rule:nonzero;stroke:none;stroke-width:0.03527778"
       id="path1110"
       inkscape:connector-curvature="0" />
    <path
       d="m 59.869407,119.7708 c 0.138994,-18.82775 15.51446,-33.979548 34.342562,-33.838438 18.828101,0.137583 33.978501,15.515168 33.839501,34.342918 -0.13864,18.82775 -15.51446,33.97603 -34.342209,33.83845 C 74.881159,153.97614 59.730414,138.59856 59.869407,119.7708 Z m 83.028363,0.61384 C 143.09745,93.354805 121.3487,71.285028 94.321684,71.087472 67.293967,70.886389 45.222426,92.635139 45.023107,119.66144 c -0.199318,27.02631 21.549077,49.09962 48.576442,49.29717 27.027721,0.20109 49.098911,-21.54766 49.298221,-48.57397"
       style="fill:#0ea2ff;fill-opacity:1;fill-rule:nonzero;stroke:none;stroke-width:0.03527778"
       id="path1112"
       inkscape:connector-curvature="0" />
    <path
       d="M 143.20152,79.229585 C 138.16208,74.103722 122.94361,67.079918 111.67095,66.995252 100.39793,66.914112 83.293499,68.603918 70.964619,63.784975 58.636097,58.969558 49.106509,69.027252 43.893514,85.561945 38.680164,102.09664 33.54654,107.87514 30.974087,111.49464 c -2.572105,3.61597 -6.256163,10.033 9.426927,3.83822 15.682735,-6.19831 15.133812,-18.033998 19.685351,-24.994305 4.551892,-6.960303 14.062427,-14.527387 30.033029,-10.41047 15.970606,4.116917 29.561726,-1.961446 38.238296,-1.171223 8.67657,0.790223 23.12846,8.897056 14.84383,0.472723"
       style="fill:#00c0ff;fill-opacity:1;fill-rule:nonzero;stroke:none;stroke-width:0.03527778"
       id="path1114"
       inkscape:connector-curvature="0" />
    <path
       d="m 149.90535,113.46314 c -0.39899,4.43441 1.3843,13.46553 -0.18803,25.45292 -1.57233,11.99092 -18.74096,22.40844 -36.19006,21.55472 -17.449453,-0.85725 -21.196301,8.20561 -10.6747,14.46742 10.5216,6.25827 20.0406,-2.39889 31.00599,-9.95539 10.96539,-7.5565 27.45281,-24.16175 24.26582,-35.82106 -3.187,-11.66283 -7.30815,-25.83039 -8.21902,-15.69861"
       style="fill:#00c0ff;fill-opacity:1;fill-rule:nonzero;stroke:none;stroke-width:0.03527778"
       id="path1116"
       inkscape:connector-curvature="0" />
    <path
       d="m 113.09405,71.225055 c -3.40607,-0.0141 -15.009643,1.195917 -28.227164,-0.208137 -13.217525,-1.407583 -5.985227,4.102804 5.274381,6.004277 11.259263,1.901473 31.600783,-5.767917 22.952783,-5.79614"
       style="fill:#19dcff;fill-opacity:1;fill-rule:nonzero;stroke:none;stroke-width:0.03527778"
       id="path1118"
       inkscape:connector-curvature="0" />
    <path
       d="m 127.7435,162.03006 c -1.62666,0.36336 -12.72822,4.572 -21.16314,3.47839 -8.434913,-1.09361 -7.523693,8.39611 5.03731,7.31308 12.56101,-1.08303 22.5679,-12.23786 16.12583,-10.79147"
       style="fill:#19dcff;fill-opacity:1;fill-rule:nonzero;stroke:none;stroke-width:0.03527778"
       id="path1120"
       inkscape:connector-curvature="0" />
    <path
       d="m 53.410751,77.112918 c -4.999567,3.552471 -1.969911,9.42975 -6.315779,18.136304 -4.639382,9.295698 -13.546667,13.927668 -12.754682,15.645698 0.105482,0.2293 0.530577,0.32102 1.36384,0.27163 3.048,-0.17991 7.010752,-0.41627 10.159646,-2.97391 3.376438,-2.74109 3.197579,-6.08189 5.089173,-11.539362 4.447468,-12.827 13.692716,-17.416639 11.917891,-20.196526 -1.151466,-1.806224 -6.187368,-1.66864 -9.460089,0.656166"
       style="fill:#19dcff;fill-opacity:1;fill-rule:nonzero;stroke:none;stroke-width:0.03527778"
       id="path1122"
       inkscape:connector-curvature="0" />
    <path
       d="m 68.929444,55.410028 c 2.380898,2.211917 4.867982,4.243917 7.3914,6.212417 2.525184,1.964973 5.093407,3.852333 7.681738,5.704417 8.343546,5.965473 15.662275,10.724443 15.711315,10.759723 16.035513,10.63625 21.438653,18.386777 34.599033,25.258885 3.18099,1.66158 8.26558,4.02167 12.8531,7.68703 1.70815,1.36525 4.08834,3.50308 6.11153,5.46805 0.69038,0.67381 1.80445,1.78153 3.11785,3.31259 0.97401,1.13241 1.87571,2.31069 2.6042,3.51366 0.72707,1.19945 1.28976,2.45181 1.46015,3.57718 0.0868,0.56444 0.078,1.0795 -0.0215,1.55222 -0.0833,0.4198 -0.36266,1.04775 -0.67452,1.63689 -1.29046,2.3883 -3.302,4.445 -5.6074,5.10116 -0.57115,0.19403 -1.18462,0.25753 -1.80305,0.30692 0,0 -0.95496,0.0459 -1.9251,-0.14464 -2.17311,-0.42333 -4.87257,-2.46944 -5.23911,-2.74461 -2.4899,-1.87325 -3.4805,-1.80269 -6.31613,-3.39725 -2.59433,-1.4605 -6.36834,-4.11339 -10.82675,-9.24631 0,0.10231 0.006,0.20461 0.005,0.30692 -0.0116,1.58397 -0.14005,3.13972 -0.36018,4.66372 0.3115,0.28222 0.78457,0.71614 1.35149,1.25589 3.11573,2.95275 4.14902,4.35328 5.51462,5.70089 2.22991,2.19781 4.86057,3.45722 10.12261,5.97253 0.91122,0.43392 2.6931,1.21003 5.02214,1.67569 0.89641,0.17992 1.84609,0.22931 2.79647,0.22225 0.95532,-0.0564 1.92864,-0.16227 2.86526,-0.45508 0.94509,-0.25753 1.84115,-0.67028 2.66488,-1.15711 0.83538,-0.47625 1.57339,-1.06892 2.2599,-1.69333 1.36384,-1.26295 2.4444,-2.71639 3.31258,-4.30389 0.21343,-0.40217 0.41804,-0.80786 0.60466,-1.25236 0.19015,-0.42334 0.36654,-0.95956 0.49354,-1.49578 0.23918,-1.07245 0.23848,-2.16253 0.0868,-3.16442 -0.3175,-2.09198 -1.24425,-3.79942 -2.01965,-5.18231 -2.07469,-3.70064 -3.11185,-5.54919 -3.62726,-6.25828 -3.01519,-4.14514 -6.90739,-6.08189 -10.0323,-7.87047 -3.90525,-2.23661 -9.26288,-5.76439 -15.39028,-11.373552 -22.50652,-15.201196 -19.8501,-15.324666 -30.2828,-21.170196 -3.21945,-1.802694 -9.903175,-5.39397 -17.124538,-10.325804 -3.326341,-2.26836 -5.968293,-4.279193 -7.609062,-5.531556 -2.483556,-1.894417 -4.918075,-3.848804 -7.193492,-5.91961 -1.138414,-1.033639 -2.230966,-2.102556 -3.242029,-3.213806 -1.001887,-1.107722 -1.934279,-2.264833 -2.621489,-3.450166 -0.687917,-1.17475 -1.06045,-2.405945 -0.862896,-3.189112 0.03986,-0.204611 0.144639,-0.381 0.224721,-0.575027 0.06879,-0.08819 0.132292,-0.179917 0.191204,-0.275167 0.06809,-0.09172 0.171804,-0.176389 0.250825,-0.268111 0.374298,-0.356306 0.873125,-0.6985 1.471789,-0.973667 1.196975,-0.553861 2.624667,-0.927805 4.09575,-1.188861 0.734129,-0.137583 1.490134,-0.239889 2.251779,-0.338667 0,0 1.196623,-0.151694 2.300817,-0.239888 3.5941,-0.289278 8.060267,0.85725 8.060267,0.85725 7.7851,2.00025 11.479037,0.980722 19.064464,3.517194 4.69618,1.569861 8.22219,3.877028 15.27352,8.494889 5.18795,3.397249 5.74287,4.198055 17.96309,13.345582 9.86225,7.38011 10.0965,7.3025 13.01644,9.86014 6.73911,5.9055 9.39518,9.401527 13.16567,13.589 4.2238,4.691943 8.30791,9.514417 12.19305,14.499165 0.0808,0.1023 0.23072,0.127 0.33796,0.0494 0,0 0.0995,-0.0741 0.0554,-0.3422 -1.89416,-11.560522 -23.6722,-30.028438 -23.6722,-30.028438 -23.75711,-20.147139 -16.23941,-12.174361 -30.00586,-24.101778 -4.838,-4.191 -7.71102,-6.861528 -12.90355,-9.066389 -5.46594,-2.321278 -11.329113,-2.864555 -23.055799,-3.947583 0,0 -5.088113,-0.469195 -9.776177,-0.155222 -0.8255,0.05292 -1.614311,0.123472 -2.420761,0.215194 -0.808214,0.09172 -1.621721,0.1905 -2.44475,0.331611 -0.821266,0.130528 -1.649237,0.296333 -2.484966,0.522111 -0.832909,0.208139 -1.677459,0.504472 -2.520244,0.874889 -0.840671,0.373945 -1.69545,0.889 -2.475796,1.612195 -0.189087,0.197555 -0.386292,0.377472 -0.560562,0.592666 -0.169333,0.229306 -0.33514,0.458611 -0.494596,0.694972 -0.275871,0.508 -0.532694,1.040695 -0.664279,1.615723 -0.133705,0.567972 -0.173567,1.143 -0.150638,1.689805 0.03669,0.543278 0.117475,1.072445 0.254355,1.548695 0.262112,0.973666 0.657576,1.827389 1.097137,2.610555 0.888648,1.562806 1.950508,2.882195 3.051529,4.131028 1.108427,1.238251 2.268712,2.395361 3.459689,3.499554"
       style="fill:#5a319f;fill-opacity:1;fill-rule:nonzero;stroke:none;stroke-width:0.03527778"
       id="path1124"
       inkscape:connector-curvature="0" />
    <path
       d="m 125.72737,132.40025 c -0.25682,0.6597 -0.53516,1.30881 -0.83114,1.94381 0.007,0.007 0.0134,0.0106 0.0201,0.0141 0.0247,0.0176 9.00501,5.5245 15.44955,10.922 4.05483,3.39725 3.03424,3.34081 6.56343,6.10306 2.53365,1.97908 4.76955,3.34786 7.43303,6.24769 0.56127,0.61383 1.61607,1.85208 2.69098,3.62656 0.7673,1.26647 1.3649,2.59291 1.71309,3.94758 0.34749,1.35467 0.4064,2.73755 0.15911,4.08869 -0.0586,0.28928 -0.15558,0.65617 -0.25577,0.99131 0,0 -0.16792,0.56092 -0.34995,1.016 -0.3175,0.79375 -0.79375,1.11478 -1.42981,1.91205 -1.17228,1.47461 -0.99378,2.18723 -2.16112,3.14325 -0.32843,0.26811 -0.63076,0.44803 -0.83361,0.55739 l -0.43286,0.24695 c -0.10019,0.0564 -0.25541,0.13405 -0.4512,0.21519 -1.41253,0.57503 -2.76119,0.26458 -3.30483,0.14817 -3.09668,-0.65617 -3.9243,-0.0776 -6.90985,-0.97014 -2.04541,-0.61031 -3.15772,-1.33703 -7.91457,-4.52967 -4.89797,-3.28789 -7.34695,-4.93183 -7.46301,-5.02708 -4.78861,-3.96522 -5.01898,-6.26181 -9.9187,-11.10544 -1.67923,-1.65806 -4.06224,-3.7712 -7.26194,-5.91256 -1.24742,0.67733 -2.54282,1.27706 -3.87773,1.79917 1.36737,0.84666 3.47804,2.21544 5.92773,4.07458 4.80977,3.65478 7.14057,6.33236 12.6439,11.43 1.80729,1.67217 4.49263,4.10281 7.88847,6.96736 3.71828,3.40431 5.10998,4.85775 7.77839,5.45042 2.32657,0.51505 2.80459,-0.25048 5.93549,0.52916 1.80411,0.44803 3.56023,1.17828 5.16996,0.85725 1.34444,-0.26811 2.6042,-0.85019 2.6042,-0.85019 0.20497,-0.0988 0.41628,-0.1905 0.6149,-0.30339 l 0.59055,-0.34925 c 1.15393,-0.28575 1.87854,-0.77964 2.30716,-1.15006 0.49248,-0.42333 1.0728,-1.52752 2.21333,-3.71827 0.32491,-0.62795 0.7179,-1.38289 1.0735,-2.37067 0.14676,-0.40569 0.28152,-0.81492 0.40041,-1.23119 0.11712,-0.42686 0.22013,-0.8255 0.30832,-1.31234 0.2981,-1.76741 0.18098,-3.61597 -0.28927,-5.31283 -0.34326,-1.24178 -0.92746,-2.40947 -2.11914,-4.69194 -0.84772,-1.61925 -1.49472,-2.8575 -2.14842,-3.85234 -1.21108,-1.84503 -1.70779,-1.73214 -7.9121,-6.72394 -2.00977,-1.61572 -3.89008,-3.18206 -6.95678,-5.3975 -0.27446,-0.20109 -0.48295,-0.34925 -0.617,-0.4445 -3.78002,-2.70228 -9.16446,-6.45936 -16.04681,-10.97845"
       style="fill:#5a319f;fill-opacity:1;fill-rule:nonzero;stroke:none;stroke-width:0.03527778"
       id="path1126"
       inkscape:connector-curvature="0" />
    <path
       d="m 90.895859,204.68089 c 0.01693,-0.0917 -0.105127,-0.25047 -0.230717,-0.25753 -3.550356,-0.21872 -11.946114,-1.01247 -18.648539,-2.90336 -3.197225,-0.90311 -2.368902,-1.44639 -7.981596,-3.47486 -4.885618,-1.76389 -5.892093,-1.48519 -9.612842,-3.12208 -3.003198,-1.32292 -5.070123,-2.70228 -8.10401,-4.7237 -2.601738,-1.73566 -5.101166,-3.62655 -7.514873,-5.61975 -4.8133,-4.00402 -9.322152,-8.38905 -13.335704,-13.16919 -2.003425,-2.38831 -3.884084,-4.87539 -5.57142,-7.47183 -0.828322,-1.30175 -1.633361,-2.62114 -2.333272,-3.98286 -0.720725,-1.35114 -1.345847,-2.74109 -1.859492,-4.14867 -0.756003,-2.07433 -1.146175,-3.10445 -1.085144,-4.26508 0.01764,-0.32809 0.109714,-1.54164 1.54305,-3.91231 1.560689,-2.58233 2.524125,-4.17336 4.471811,-5.207 2.877254,-1.52753 6.013803,-0.84667 8.446911,-0.28575 1.412875,0.32456 2.803173,0.83961 4.158192,1.45697 1.279876,0.5962 2.611966,1.30528 3.969808,2.14136 5.433835,3.34786 9.159168,7.47536 11.616267,10.86203 19.143485,15.9385 26.402945,23.84072 29.241395,28.09875 0.732367,1.09714 2.629958,4.14514 6.22935,7.01322 1.9304,1.54164 3.358444,2.24014 8.83779,5.13645 1.961795,1.03716 4.978043,2.63877 8.724196,4.66019 l 1.16134,0.4692 1.18499,0.42333 c 0.78422,0.29633 1.60443,0.51153 2.40947,0.75847 0.40816,0.11289 0.82197,0.20461 1.23295,0.30692 0.41064,0.10583 0.82339,0.20108 1.24355,0.27164 l 1.25589,0.23283 1.27105,0.16581 0.63606,0.0811 0.6417,0.0423 c 0.42793,0.0282 0.85514,0.06 1.28376,0.0811 0.85937,-0.007 1.71979,0.0353 2.57916,-0.0388 0.42968,-0.0282 0.86078,-0.0423 1.2887,-0.0882 l 1.28235,-0.16228 c 0.44273,-0.0494 0.82126,-0.11289 1.22237,-0.17992 0.40005,-0.0635 0.80786,-0.13405 1.22344,-0.21166 1.01494,-0.1905 1.90006,-0.35984 2.60561,-0.635 0.53411,-0.21167 1.19169,-0.77964 2.48497,-1.905 2.15088,-1.87678 2.39677,-2.30364 2.54599,-2.76931 0.24272,-0.75494 0.21414,-1.55928 0.20144,-1.91911 -0.0116,-0.32808 -0.0392,-0.9772 -0.27975,-1.69686 -0.30798,-0.92075 -0.75389,-1.32645 -1.25377,-2.032 -0.84561,-1.19239 -0.86078,-1.84856 -1.39383,-2.95981 -0.28399,-0.58914 -1.0167,-1.59808 -3.32352,-3.81705 -2.667,-2.56823 -5.5185,-4.03225 -6.26145,-4.42736 -5.9884,-3.175 -8.93974,-7.90223 -16.1985,-13.72306 -5.611637,-4.49792 -6.491112,-3.78883 -15.903575,-9.69433 -15.3797,-9.652 -14.943666,-12.74234 -30.784093,-22.84942 -7.367765,-4.70242 -9.793465,-5.52086 -15.339483,-10.03995 -1.75119,-1.42522 -9.076267,-7.39422 -13.643682,-13.6913 -2.071862,-2.8575 -2.75731,-4.65314 -5.025319,-6.72042 -0.09737,-0.0882 -2.090208,-1.905 -3.118555,-3.90172 -0.470958,-0.913695 -0.804333,-1.894418 -0.804333,-1.894418 -0.215547,-0.631473 -0.385234,-1.259417 -0.490361,-1.87325 -0.202848,-1.231194 -0.128059,-2.370667 0.250472,-3.39725 0.348897,-0.948973 0.902405,-1.566334 2.027061,-2.797527 1.307042,-1.43228 1.960739,-2.148417 2.893483,-2.585863 0.895703,-0.419804 2.066219,-0.448027 4.370917,-0.483304 1.9685,-0.03528 3.487915,0.0388 4.134556,0.07055 2.935462,0.155223 4.402664,0.229306 5.404554,0.426863 2.58939,0.50447 4.292248,1.883833 6.987823,4.215693 7.859887,6.7945 9.325327,8.837086 13.260917,11.479386 2.595737,1.74272 5.039783,2.92453 7.022042,3.73239 0.57785,-1.49931 1.255535,-2.94922 2.030235,-4.33564 -0.427215,-0.49389 -1.118307,-1.2065 -2.106084,-1.85914 -1.877483,-1.24177 -3.676298,-1.50989 -4.188531,-1.608662 -4.780137,-0.931334 -6.066012,-8.15975 -13.727642,-12.375444 -2.799995,-1.54164 -6.130925,-2.501196 -8.997243,-3.326696 -1.973792,-0.5715 -3.163359,-0.811387 -5.022496,-1.185333 -4.821414,-0.970137 -6.126691,-0.765527 -6.944431,-0.550334 -0.645232,0.165807 -1.65347,0.705557 -3.6703,1.792113 -2.506486,1.34761 -3.748264,2.035527 -4.686653,2.82575 -1.452033,1.227667 -2.73438,2.875137 -3.466041,4.815417 -0.73907,1.940277 -0.838553,4.064 -0.52952,5.947833 0.310445,1.897944 0.956734,3.608916 1.718734,5.189356 0.990952,2.0567 2.011186,3.56659 2.636661,4.40972 3.12173,4.20864 6.908799,7.01675 7.756525,7.65528 6.433609,4.83306 6.392686,6.97795 12.961406,12.77762 5.771446,5.09764 8.225367,5.58095 17.044813,11.2642 17.621602,11.34886 15.714837,14.49916 29.392031,21.98864 8.497358,4.64961 11.446229,4.64255 18.738502,10.00125 0.71755,0.52916 8.48607,6.27944 13.27679,11.91683 1.83444,2.159 2.84445,3.84528 5.43066,6.31119 0.21343,0.20461 1.26647,1.11831 2.9277,3.30906 0.84773,1.1183 1.58398,2.3248 1.85314,3.302 0.0776,0.24341 0.096,0.44803 0.11924,0.635 -0.006,0.16933 0.004,0.32455 -0.0374,0.43039 -0.0572,0.23636 -0.16298,0.38452 -0.42933,0.62089 -0.28469,0.2293 -0.78105,0.47272 -1.37019,0.67027 -0.59196,0.19756 -1.27529,0.35984 -1.99602,0.50095 l -1.11195,0.20461 c -0.37853,0.067 -0.77929,0.13758 -1.12219,0.17639 l -1.06962,0.14816 c -0.35736,0.0423 -0.71826,0.0529 -1.07703,0.0811 -0.71684,0.0741 -1.44074,0.0388 -2.16182,0.0565 l -1.08409,-0.06 -0.54187,-0.0282 -0.54151,-0.0635 -1.08268,-0.127 -1.07879,-0.1905 c -0.36054,-0.0564 -0.71826,-0.13758 -1.07456,-0.22577 -0.35736,-0.0847 -0.71614,-0.16228 -1.07245,-0.254 -0.70626,-0.21167 -1.42275,-0.38453 -2.1209,-0.64559 l -1.05233,-0.36336 -1.04105,-0.40922 c -1.85667,-0.42333 -4.543423,-1.18886 -7.532153,-2.667 -6.173618,-3.048 -8.737959,-6.70278 -15.043155,-13.03514 -7.908221,-7.94103 -7.383992,-5.71853 -13.86064,-12.54125 -4.947708,-5.21405 -6.51792,-7.84225 -13.009385,-14.19578 -0.799393,-0.78316 -3.442758,-3.35844 -7.180791,-6.40644 -2.500842,-2.03906 -5.096582,-3.99697 -7.93115,-5.67267 -1.406525,-0.85019 -2.878315,-1.61925 -4.415367,-2.28247 -1.532467,-0.66675 -3.134429,-1.22767 -4.811535,-1.5875 -1.671109,-0.36336 -3.408892,-0.54328 -5.152673,-0.46214 -0.435327,0.0353 -0.872067,0.0494 -1.305277,0.10583 l -1.295401,0.20462 c -0.425802,0.0988 -0.848783,0.20813 -1.272116,0.31397 -0.422628,0.10583 -0.8128,0.23636 -1.229431,0.37747 -1.634772,0.57503 -3.244497,1.38994 -4.641497,2.59644 -0.694266,0.60325 -1.333853,1.29823 -1.854905,2.09198 -0.248709,0.40216 -0.499181,0.80786 -0.674159,1.24883 l -0.282575,0.65264 c -0.09419,0.21519 -0.138994,0.4445 -0.209197,0.66675 -0.524933,1.79917 -0.521758,3.63361 -0.281164,5.34105 0.241653,1.71803 0.722842,3.34787 1.334206,4.8895 0.602544,1.5487 1.312686,3.03389 2.109611,4.45912 1.173339,2.0955 2.177344,3.60538 2.548114,4.14866 4.720872,6.91445 4.594225,7.31308 6.325657,9.525 1.891596,2.413 5.771446,5.35517 13.531498,11.24303 4.414309,3.34786 6.328479,4.61433 7.81685,5.54919 2.709334,1.70039 5.513562,3.24909 8.399286,4.62139 2.883606,1.37231 5.850818,2.56117 8.863541,3.60186 1.67005,0.57856 4.909609,1.62984 9.188096,2.6035 9.233606,2.10256 19.003788,2.83634 19.136431,2.09903"
       style="fill:#5a319f;fill-opacity:1;fill-rule:nonzero;stroke:none;stroke-width:0.03527778"
       id="path1128"
       inkscape:connector-curvature="0" />
    <path
       d="m 68.49059,97.372945 c 0.341488,-0.381 0.691444,-0.758473 1.049867,-1.12536 -2.42076,-1.5875 -4.835877,-3.182057 -7.239,-4.79425 -8.076142,-5.411613 -12.116858,-8.11389 -15.4559,-10.929057 -3.520723,-2.96686 -2.6924,-2.758723 -6.417381,-5.870223 -1.395587,-1.167693 -5.144204,-4.233333 -7.201604,-6.9215 0,0 -1.342319,-1.82386 -2.161823,-3.958164 -0.132644,-0.345723 -0.209196,-0.702029 -0.318559,-1.054806 -0.07937,-0.352777 -0.131937,-0.709083 -0.193675,-1.06539 -0.0088,-0.356304 -0.0635,-0.716137 -0.04163,-1.072443 0,0 0.01728,-0.543277 0.107243,-1.058334 0.191913,-1.09714 1.26859,-2.465916 1.670402,-2.977443 2.391481,-3.048 2.530123,-3.354917 3.328106,-3.834697 0.786694,-0.472721 1.519767,-0.694971 1.990725,-0.804332 l 0.51929,-0.141111 0.536221,-0.08114 c 0.179213,-0.02469 0.3556,-0.0635 0.536929,-0.07761 l 0.547159,-0.02822 c 1.381828,0.02117 2.468033,0.225777 3.212041,0.409222 1.443567,0.359833 1.516944,0.627944 3.401129,1.114777 1.117955,0.289279 1.562455,0.3175 2.522363,0.705556 0.5207,0.20814 0.921454,0.41275 1.697918,0.814917 0,0 1.076677,0.55386 2.044349,1.114777 4.357862,2.518833 7.826375,5.139973 7.826375,5.139973 2.895245,2.19075 3.900662,3.33375 7.531451,6.614583 6.6675,6.025444 7.94385,6.388804 13.903325,11.853334 2.790825,2.561166 5.172779,4.92125 7.126817,6.942666 1.268235,-0.186973 2.561167,-0.292806 3.869971,-0.331613 -3.30835,-3.83822 -6.264275,-6.75922 -8.379884,-8.734777 -3.193695,-2.988026 -7.184318,-6.103056 -15.165916,-12.336637 -7.893402,-6.1595 -5.517796,-4.018139 -7.615061,-5.774973 -2.315278,-1.940277 -4.470045,-3.929943 -6.960303,-4.900083 -0.488247,-0.1905 -1.659822,-0.599723 -3.297767,-1.35114 -0.795163,-0.36336 -1.212146,-0.564443 -2.207683,-1.008943 -0.739775,-0.328084 -1.508125,-0.60325 -2.271538,-0.885473 -0.779286,-0.250472 -1.556809,-0.504472 -2.361846,-0.691444 -1.600554,-0.384528 -3.27025,-0.617361 -4.97064,-0.525639 l -0.637116,0.04233 c -0.212019,0.02117 -0.423685,0.0635 -0.635352,0.09525 l -0.635,0.105834 -0.624417,0.176389 c -0.743656,0.03528 -1.919816,0.197555 -3.109031,0.892527 -1.229432,0.716139 -1.829507,1.647473 -3.030009,3.513666 0,0 -1.550103,2.649363 -2.011537,4.681363 -0.09666,0.42686 -0.08608,0.864304 -0.115006,1.29822 -0.01871,0.433917 0.04445,0.864307 0.06632,1.298224 0.07444,0.419806 0.144637,0.846666 0.243062,1.259416 0.147815,0.62089 0.325615,1.06539 0.381355,1.213557 0.593725,1.576916 1.433335,4.099277 1.740958,4.850693 1.095727,2.68111 4.211106,4.353277 7.256285,6.501694 3.280834,2.314223 1.853846,1.915583 8.504412,7.57061 5.184072,4.406196 9.135182,7.73289 14.874875,10.929056 2.699809,1.502834 5.019675,2.547057 6.568723,3.196167"
       style="fill:#5a319f;fill-opacity:1;fill-rule:nonzero;stroke:none;stroke-width:0.03527778"
       id="path1130"
       inkscape:connector-curvature="0" />
  </g>
</svg>
