<?xml version="1.0" encoding="UTF-8" standalone="no"?>
<!-- Created with Inkscape (http://www.inkscape.org/) -->

<svg
   xmlns:dc="http://purl.org/dc/elements/1.1/"
   xmlns:cc="http://creativecommons.org/ns#"
   xmlns:rdf="http://www.w3.org/1999/02/22-rdf-syntax-ns#"
   xmlns:svg="http://www.w3.org/2000/svg"
   xmlns="http://www.w3.org/2000/svg"
   xmlns:sodipodi="http://sodipodi.sourceforge.net/DTD/sodipodi-0.dtd"
   xmlns:inkscape="http://www.inkscape.org/namespaces/inkscape"
   width="200.00771mm"
   height="199.96503mm"
   viewBox="0 0 200.00771 199.96503"
   version="1.1"
   id="svg1139"
   sodipodi:docname="darkOrangeDonut.svg"
   inkscape:version="0.92.5 (2060ec1f9f, 2020-04-08)">
  <defs
     id="defs1133" />
  <sodipodi:namedview
     id="base"
     pagecolor="#ffffff"
     bordercolor="#666666"
     borderopacity="1.0"
     inkscape:pageopacity="0.0"
     inkscape:pageshadow="2"
     inkscape:zoom="0.35"
     inkscape:cx="2.676849"
     inkscape:cy="122.77229"
     inkscape:document-units="mm"
     inkscape:current-layer="layer1"
     showgrid="false"
     inkscape:window-width="1312"
     inkscape:window-height="704"
     inkscape:window-x="0"
     inkscape:window-y="27"
     inkscape:window-maximized="1"
     fit-margin-top="0"
     fit-margin-left="0"
     fit-margin-right="0"
     fit-margin-bottom="0" />
  <metadata
     id="metadata1136">
    <rdf:RDF>
      <cc:Work
         rdf:about="">
        <dc:format>image/svg+xml</dc:format>
        <dc:type
           rdf:resource="http://purl.org/dc/dcmitype/StillImage" />
        <dc:title></dc:title>
      </cc:Work>
    </rdf:RDF>
  </metadata>
  <g
     inkscape:label="Layer 1"
     inkscape:groupmode="layer"
     id="layer1"
     transform="translate(7.0217121,-14.832966)">
    <path
       d="m 94.074168,76.60788 c 6.699252,0 12.954002,1.94028 18.224502,5.281083 -6.24417,-7.03086 -15.356422,-11.46175 -25.498783,-11.46175 -18.827747,0 -34.092443,15.261167 -34.092443,34.088917 0,12.1285 6.339416,22.78239 15.878529,28.82548 -5.348113,-6.02192 -8.60425,-13.95589 -8.60425,-22.64129 0,-18.827744 15.261167,-34.09244 34.092445,-34.09244"
       style="fill:#e6e6e6;fill-opacity:1;fill-rule:nonzero;stroke:none;stroke-width:0.03527778"
       id="path1072"
       inkscape:connector-curvature="0" />
    <path
       d="m 158.90414,48.62202 c 13.55725,16.266583 21.71347,37.200416 21.71347,60.03219 0,51.81601 -42.00525,93.82125 -93.82125,93.82125 -22.69772,0 -43.515137,-8.0645 -59.740797,-21.47711 17.20991,20.65161 43.121437,33.79964 72.109185,33.79964 51.816002,0 93.821252,-42.00525 93.821252,-93.82125 0,-29.118277 -13.26444,-55.14622 -34.08186,-72.35472"
       style="fill:#e6e6e6;fill-opacity:1;fill-rule:nonzero;stroke:none;stroke-width:0.03527778"
       id="path1074"
       inkscape:connector-curvature="0" />
    <path
       d="m 86.799887,138.60858 c -18.827747,0 -34.092443,-15.26117 -34.092443,-34.09245 0,-18.82775 15.264696,-34.088917 34.092443,-34.088917 18.827753,0 34.092443,15.261167 34.092443,34.088917 0,18.83128 -15.26469,34.09245 -34.092443,34.09245 z m 0,-123.775614 c -51.816349,0 -93.8215991,42.00525 -93.8215991,93.821244 0,51.81601 42.0052501,93.82125 93.8215991,93.82125 51.816003,0 93.821253,-42.00524 93.821253,-93.82125 0,-51.815994 -42.00525,-93.821244 -93.821253,-93.821244"
       style="fill:#ffae75;fill-opacity:1;fill-rule:nonzero;stroke:none;stroke-width:0.03527778"
       id="path1076"
       inkscape:connector-curvature="0" />
    <path
       d="m 172.83886,71.19627 c 0.2152,7.747 0.32103,41.79711 -25.49172,70.73195 -5.29872,5.94077 -23.52675,24.9308 -53.456422,31.0903 C 42.421505,183.61244 3.1837959,146.62016 -0.53800944,142.9936 13.167054,177.82335 47.105333,202.47546 86.799887,202.47546 c 51.816003,0 93.821253,-42.00524 93.821253,-93.82125 0,-13.317357 -2.77989,-25.98208 -7.78228,-37.45794"
       style="fill:#ff9075;fill-opacity:1;fill-rule:nonzero;stroke:none;stroke-width:0.03527778"
       id="path1078"
       inkscape:connector-curvature="0" />
    <path
       d="M 60.25336,22.590549 C 53.592917,24.38266 30.676473,32.771715 19.524815,52.167436 8.3728039,71.56316 18.797387,75.92702 15.645671,89.018603 12.494307,102.10666 -0.83963444,110.59449 1.8270126,121.01908 4.4936599,131.44366 27.28628,119.47391 27.055563,95.220436 c -0.230717,-24.253473 19.746381,-45.72 19.746381,-45.72 0,0 36.35375,-11.370026 36.724166,-16.728721 0.373944,-5.358694 -0.818443,-16.220721 -23.27275,-10.181166"
       style="fill:#ffd080;fill-opacity:1;fill-rule:nonzero;stroke:none;stroke-width:0.03527778"
       id="path1080"
       inkscape:connector-curvature="0" />
    <path
       d="M 52.813277,107.18313 C 51.338667,88.411826 65.36511,72.000603 84.136417,70.52952 102.9042,69.058436 119.31542,83.081353 120.7865,101.85266 c 1.47108,18.77131 -12.55183,35.179 -31.32314,36.65361 -18.771303,1.47108 -35.179,-12.55183 -36.650083,-31.32314 z m 53.519923,75.52972 c 7.71525,-2.68464 10.05769,-10.25172 10.27641,-11.00313 v 0 c 1.27706,-2.11314 3.86997,-5.78556 8.41728,-8.84414 4.29683,-2.88925 8.41728,-3.937 10.81264,-4.36034 v 0 c 6.06778,0.32103 11.83217,-2.59644 15.04244,-7.63411 4.48734,-7.05555 1.5875,-14.5415 1.2947,-15.26116 v 0 c -0.31398,-2.55059 -0.52211,-6.91092 0.9278,-12.01914 1.40053,-4.93889 3.7465,-8.45256 5.31284,-10.45634 v 0 c 0.69497,-0.68086 6.49816,-6.56519 5.43983,-15.310554 -0.94897,-7.84225 -6.69572,-12.061473 -7.63764,-12.728223 v 0 c -1.65453,-1.11125 -5.38692,-3.940527 -7.78228,-9.119303 -2.46591,-5.323417 -2.13077,-10.138834 -1.88383,-12.110861 v 0 c 0.0706,-1.086556 0.46214,-9.069916 -5.85258,-15.010696 -5.67973,-5.341054 -12.62239,-5.118804 -13.85711,-5.055304 v 0 c -2.01789,0.225777 -6.39939,0.437444 -11.28536,-1.696863 -5.68325,-2.480026 -8.68187,-6.660443 -9.76489,-8.353776 v 0 C 103.36986,28.150327 98.028808,24.372077 92.021,24.008716 83.16275,23.476022 78.047473,30.679743 77.797,31.046632 v 0 c -1.516943,1.495778 -4.741333,4.272139 -9.69786,5.743222 -5.87375,1.74625 -10.82675,0.66675 -12.886973,0.09172 v 0 c -0.582084,-0.257527 -8.36436,-3.517194 -15.674621,1.213556 -7.793214,5.044721 -7.527925,14.305138 -7.509581,14.707304 v 0 c -0.09454,1.94028 -0.605719,7.122584 -4.409017,12.086167 -3.280127,4.279194 -7.302148,6.170083 -9.142236,6.90386 h -3.43e-4 c -1.018117,0.51153 -7.848248,4.106334 -9.9102341,12.347223 -1.924755,7.694084 1.7342561,13.716 2.3861891,14.753167 v 0 c 1.080911,2.571749 2.371372,6.452309 2.773892,11.324169 0.415219,5.02709 -0.273403,9.17928 -0.950384,11.93095 h -3.43e-4 c -0.426861,1.09008 -3.3348091,8.91116 1.016705,16.72872 3.421592,6.14186 9.134475,8.33966 10.639425,8.86883 h 2.64e-4 c 1.94451,0.49036 6.43396,1.905 10.464446,5.98664 4.078816,4.13103 5.423958,8.70303 5.880806,10.65389 v 0 c 0.26811,0.93133 2.874433,9.41916 11.521017,12.59416 6.685137,2.45534 12.534193,0.0988 13.860637,-0.47625 v 0 c 2.19075,-0.85372 6.71689,-2.27188 12.456583,-1.5875 5.101167,0.61031 8.819444,2.59998 10.76325,3.82764 v 0 c 4.543776,4.44853 11.133668,5.99723 16.954498,3.96875"
       style="fill:#ff613e;fill-opacity:1;fill-rule:nonzero;stroke:none;stroke-width:0.03527778"
       id="path1082"
       inkscape:connector-curvature="0" />
    <path
       d="m 86.799887,138.60858 c -18.827747,0 -34.092443,-15.26117 -34.092443,-34.09245 0,-18.82775 15.264696,-34.088917 34.092443,-34.088917 18.827753,0 34.092443,15.261167 34.092443,34.088917 0,18.83128 -15.26469,34.09245 -34.092443,34.09245 z m 0,-83.029781 c -27.02983,0 -48.939095,21.911027 -48.939095,48.937331 0,27.02984 21.909265,48.94086 48.939095,48.94086 27.026313,0 48.937333,-21.91102 48.937333,-48.94086 0,-27.026304 -21.91102,-48.937331 -48.937333,-48.937331"
       style="fill:#ff7c2a;fill-opacity:1;fill-rule:nonzero;stroke:none;stroke-width:0.03527778"
       id="path1084"
       inkscape:connector-curvature="0" />
    <path
       d="M 137.12011,68.836186 C 127.43636,60.08377 114.16839,57.62491 107.06697,57.698993 c -1.8415,0.01765 -4.73427,0.22225 -8.904112,-0.440973 C 90.500527,56.044466 86.4965,53.169326 85.798,54.107716 c -0.832556,1.114777 3.679471,6.76275 9.937748,11.63461 13.331472,10.375194 19.854342,5.757334 25.361202,12.742334 3.556,4.50497 4.18394,15.264693 5.43983,36.77708 0.22225,3.85939 0.381,7.69762 2.29305,8.37848 4.08164,1.45697 12.60123,-12.75292 13.93825,-14.98601 3.84175,-6.40644 5.76087,-9.609663 6.30414,-13.8183 1.68628,-13.102167 -9.58144,-23.854834 -11.95211,-25.999724"
       style="fill:#ff931e;fill-opacity:1;fill-rule:nonzero;stroke:none;stroke-width:0.03527778"
       id="path1086"
       inkscape:connector-curvature="0" />
    <path
       d="m 54.280833,62.835436 c -5.61975,-3.404303 -14.531268,3.058584 -18.666883,6.060724 -5.244745,3.802943 -8.266642,7.898693 -10.667293,11.151303 -3.468159,4.699 -5.357284,7.260167 -6.099881,11.3665 -1.047397,5.789084 1.114072,10.717387 2.463447,13.846527 3.09386,7.1755 5.864932,6.80861 6.78815,11.63462 1.325034,6.93208 -3.932766,10.03652 -1.69686,15.03186 1.471435,3.28789 4.984395,4.70252 8.969727,6.30414 1.93816,0.77963 6.712302,2.63172 12.84887,1.69686 2.554113,-0.38806 9.634363,-1.46403 10.424584,-4.8507 1.086556,-4.66019 -11.348861,-6.95678 -14.089944,-16.90864 -1.629833,-5.91961 2.243667,-7.02733 2.451807,-18.725444 0.179916,-9.927166 -2.564694,-11.422943 -0.483307,-16.002 3.14325,-6.910916 11.123083,-6.77686 11.63814,-12.60475 0.26811,-3.058583 -1.3335,-6.45936 -3.880557,-8.001"
       style="fill:#ff931e;fill-opacity:1;fill-rule:nonzero;stroke:none;stroke-width:0.03527778"
       id="path1088"
       inkscape:connector-curvature="0" />
    <path
       d="m 116.58492,134.83738 c -6.90739,1.2947 -7.42597,5.87728 -17.455452,12.12145 -3.45369,2.15194 -9.962441,6.20183 -18.422051,7.27075 -11.627557,1.47108 -18.679584,-3.72886 -19.63914,-1.93675 -1.22061,2.286 8.974667,13.17977 21.134917,13.98411 5.997223,0.39864 11.486444,-1.72509 11.835694,-1.86267 2.54,-1.00894 2.5647,-1.48519 7.771702,-4.45558 5.24227,-2.98803 8.35377,-4.7625 12.59416,-6.21242 6.05367,-2.06728 6.97795,-0.93133 10.18117,-2.91042 3.82411,-2.35655 8.00805,-7.36247 6.78744,-11.1513 -1.34408,-4.17689 -8.96408,-5.93725 -14.78844,-4.84717"
       style="fill:#ff931e;fill-opacity:1;fill-rule:nonzero;stroke:none;stroke-width:0.03527778"
       id="path1090"
       inkscape:connector-curvature="0" />
    <path
       d="m 135.0105,73.986743 c -1.85561,-1.85914 -3.04447,-1.30528 -6.49111,-4.183946 -0.68086,-0.5715 -1.73567,-1.601611 -3.48192,-2.575277 -0.91722,-0.508 -1.9438,-0.96661 -3.10444,-1.3335 -1.04422,-0.33161 -2.00025,-0.4445 -2.41653,-0.17286 -2.02494,1.337026 9.06992,13.483166 9.6767,29.11475 0.71966,18.542 0.64205,19.80494 0.64205,19.80494 -0.10583,1.77095 -0.28575,3.71828 0.43745,3.96876 1.22413,0.43038 5.21052,-4.6849 6.39586,-10.58687 0.26811,-1.34761 0.25752,-2.3883 0.27869,-3.57011 0.10936,-5.404554 -1.22767,-6.94972 -1.44992,-10.58686 -0.381,-6.215944 3.21028,-6.822723 2.42359,-12.848167 -0.21872,-1.672167 -0.61736,-4.734277 -2.91042,-7.03086"
       style="fill:#ffb039;fill-opacity:1;fill-rule:nonzero;stroke:none;stroke-width:0.03527778"
       id="path1092"
       inkscape:connector-curvature="0" />
    <path
       d="m 115.37489,147.20224 c -6.72042,0.6985 -14.15344,1.47461 -21.092582,6.30061 -4.554364,3.16795 -8.452558,7.76817 -7.757587,8.72773 0.613833,0.85019 4.568473,-1.53459 13.352637,-5.48217 13.645452,-6.13833 22.083892,-8.47019 21.798142,-9.54617 -0.1658,-0.64205 -3.2773,-0.3175 -6.30061,0"
       style="fill:#ffb039;fill-opacity:1;fill-rule:nonzero;stroke:none;stroke-width:0.03527778"
       id="path1094"
       inkscape:connector-curvature="0" />
    <path
       d="m 44.134946,69.19602 c -2.835629,1.210027 -8.119181,3.556 -11.672713,9.398 -2.377368,3.90525 -2.860675,7.53886 -2.972151,8.530166 -0.419452,3.7465 0.626181,6.910917 2.502251,13.299724 1.275647,4.34622 2.623609,7.4683 3.696055,9.92364 1.645002,3.77119 4.602337,10.43164 5.5372,10.14589 1.759302,-0.53975 -10.353323,-23.622004 -1.005417,-39.475837 4.673246,-7.926917 13.492689,-11.976806 12.529606,-13.589 -0.754944,-1.27 -6.438194,0.83961 -8.614831,1.767417"
       style="fill:#ffb039;fill-opacity:1;fill-rule:nonzero;stroke:none;stroke-width:0.03527778"
       id="path1096"
       inkscape:connector-curvature="0" />
  </g>
</svg>
