<?xml version="1.0" encoding="UTF-8" standalone="no"?>
<!-- Created with Inkscape (http://www.inkscape.org/) -->

<svg
   xmlns:dc="http://purl.org/dc/elements/1.1/"
   xmlns:cc="http://creativecommons.org/ns#"
   xmlns:rdf="http://www.w3.org/1999/02/22-rdf-syntax-ns#"
   xmlns:svg="http://www.w3.org/2000/svg"
   xmlns="http://www.w3.org/2000/svg"
   xmlns:sodipodi="http://sodipodi.sourceforge.net/DTD/sodipodi-0.dtd"
   xmlns:inkscape="http://www.inkscape.org/namespaces/inkscape"
   width="200.00639mm"
   height="199.96092mm"
   viewBox="0 0 200.00639 199.96092"
   version="1.1"
   id="svg1139"
   sodipodi:docname="grenDonut.svg"
   inkscape:version="0.92.5 (2060ec1f9f, 2020-04-08)">
  <defs
     id="defs1133" />
  <sodipodi:namedview
     id="base"
     pagecolor="#ffffff"
     bordercolor="#666666"
     borderopacity="1.0"
     inkscape:pageopacity="0.0"
     inkscape:pageshadow="2"
     inkscape:zoom="0.35"
     inkscape:cx="37.354306"
     inkscape:cy="557.68214"
     inkscape:document-units="mm"
     inkscape:current-layer="layer1"
     showgrid="false"
     inkscape:window-width="1312"
     inkscape:window-height="704"
     inkscape:window-x="0"
     inkscape:window-y="27"
     inkscape:window-maximized="1"
     fit-margin-top="0"
     fit-margin-left="0"
     fit-margin-right="0"
     fit-margin-bottom="0" />
  <metadata
     id="metadata1136">
    <rdf:RDF>
      <cc:Work
         rdf:about="">
        <dc:format>image/svg+xml</dc:format>
        <dc:type
           rdf:resource="http://purl.org/dc/dcmitype/StillImage" />
        <dc:title></dc:title>
      </cc:Work>
    </rdf:RDF>
  </metadata>
  <g
     inkscape:label="Layer 1"
     inkscape:groupmode="layer"
     id="layer1"
     transform="translate(-41.359902,-98.745733)">
    <g
       id="g112"
       transform="matrix(0.04282969,0,0,-0.04282969,-537.44559,707.24031)">
      <path
         d="m 15874.4,12765 c 156.5,0 302.5,-45.3 425.6,-123.3 -145.9,164.1 -358.5,267.7 -595.3,267.7 -439.7,0 -796,-356.4 -796,-796 0,-283.2 148,-531.9 370.7,-673 -124.9,140.5 -201,325.8 -201,528.6 0,439.6 356.4,796 796,796"
         style="fill:#e6e6e6;fill-opacity:1;fill-rule:nonzero;stroke:none"
         id="path114"
         inkscape:connector-curvature="0" />
    </g>
    <g
       id="g116"
       transform="matrix(0.04777987,0,0,-0.04777987,-537.44559,707.24031)">
      <path
         d="m 15586.8,12028.3 c 283.6,-340.5 454.3,-778.6 454.3,-1256.4 0,-1084.49 -879.1,-1963.64 -1963.6,-1963.64 -475,0 -910.7,168.72 -1250.3,449.48 360.2,-432.25 902.6,-707.41 1509.2,-707.41 1084.5,0 1963.6,879.14 1963.6,1963.57 0,609.5 -277.6,1154.2 -713.2,1514.4"
         style="fill:#e6e6e6;fill-opacity:1;fill-rule:nonzero;stroke:none"
         id="path118"
         inkscape:connector-curvature="0" />
    </g>
    <g
       id="g120"
       transform="matrix(0.04702104,0,0,-0.04702104,-537.44559,707.24031)">
      <path
         d="m 14304.8,10308.6 c -400.5,0 -725.1,324.6 -725.1,725 0,400.4 324.6,725 725.1,725 400.4,0 724.9,-324.6 724.9,-725 0,-400.4 -324.5,-725 -724.9,-725 z m 0,2632.3 c -1102.1,0 -1995.3,-893.3 -1995.3,-1995.3 0,-1101.94 893.2,-1995.27 1995.3,-1995.27 1101.9,0 1995.2,893.33 1995.2,1995.27 0,1102 -893.3,1995.3 -1995.2,1995.3"
         style="fill:#ffae75;fill-opacity:1;fill-rule:nonzero;stroke:none"
         id="path122"
         inkscape:connector-curvature="0" />
    </g>
    <g
       id="g124"
       transform="matrix(0.04702104,0,0,-0.04702104,-537.44559,707.24031)">
      <path
         d="m 16134.5,11742.3 c 4.6,-164.8 6.9,-888.9 -542.1,-1504.3 -112.7,-126.3 -500.3,-530.23 -1136.8,-661.24 -1094.6,-225.27 -1929.1,561.44 -2008.3,638.64 291.5,-740.78 1013.2,-1265.07 1857.5,-1265.07 1101.9,0 1995.2,893.33 1995.2,1995.27 0,283.3 -59.1,552.6 -165.5,796.7"
         style="fill:#ff9075;fill-opacity:1;fill-rule:nonzero;stroke:none"
         id="path126"
         inkscape:connector-curvature="0" />
    </g>
    <g
       id="g128"
       transform="matrix(0.04520918,0,0,-0.04520918,-537.44559,707.24031)">
      <path
         d="m 15321.6,13062.4 c 19.5,-20.2 79.1,-76.6 249.4,-115 201.8,-45.5 234.5,7.5 369.7,-30.5 211.1,-59.4 309.6,-238.3 338.2,-216.1 21.1,16.4 -19.2,125.9 -91.3,214.5 -112.1,137.9 -305.7,230.8 -498.7,230.6 -121.7,-0.2 -165.1,-37.3 -260.1,-2 -123.7,46 -174.1,154.6 -195.7,141.4 -21.4,-13.3 4.6,-136.2 88.5,-222.9"
         style="fill:#ffd080;fill-opacity:1;fill-rule:nonzero;stroke:none"
         id="path130"
         inkscape:connector-curvature="0" />
    </g>
    <g
       id="g132"
       transform="matrix(0.04104181,0,0,-0.04104181,-537.44559,707.24031)">
      <path
         d="m 15723.8,14515.3 c -162.2,-43.7 -720.6,-248.1 -992.3,-720.7 -271.7,-472.5 -17.7,-578.9 -94.6,-897.8 -76.7,-319 -401.6,-525.8 -336.7,-779.8 65,-254 620.4,37.7 614.8,628.6 -5.7,590.9 481.1,1114 481.1,1114 0,0 885.8,277 894.8,407.6 9.1,130.5 -20,395.2 -567.1,248.1"
         style="fill:#ffd080;fill-opacity:1;fill-rule:nonzero;stroke:none"
         id="path134"
         inkscape:connector-curvature="0" />
    </g>
    <g
       id="g136"
       transform="matrix(0.04623752,0,0,-0.04623752,-537.44559,707.24031)">
      <path
         d="m 14547.2,10483.2 c -407.3,0 -737.4,330.2 -737.4,737.4 0,407.2 330.1,737.3 737.4,737.3 407.2,0 737.2,-330.1 737.2,-737.3 0,-407.2 -330,-737.4 -737.2,-737.4 z m 1718.9,1026.3 c -44.8,170.9 -204,234.2 -219.8,240.2 v 0 c -43.4,31.1 -118.2,93.2 -176.5,196.5 -55,97.5 -70.6,188.1 -75.8,240.4 h 0.1 c 17.1,130.3 -36,259.6 -139.3,337.3 -144.4,108.7 -310.7,58.8 -326.7,53.7 v 0 c -55.6,-2.4 -150,0.4 -257.6,40.3 -104.2,38.5 -176,95.1 -216.5,132.3 v 0 c -13.6,16.1 -130.6,151.2 -321,143.1 -170.6,-7.2 -271.3,-124 -287.3,-143.1 v 0 c -26.8,-33.8 -94.1,-109.5 -209.7,-152.4 -119,-44.2 -222.2,-28.8 -264.4,-20.2 v 0 c -23.3,3.4 -194.8,25.3 -333.5,-100.8 -124.8,-113.4 -131.7,-263.4 -132.4,-290.2 v 0 c 1.4,-43.9 -1.5,-138.7 -55.7,-240.4 -63.1,-118.4 -158.3,-176 -196.6,-196.5 v 0 c -124.8,-42.8 -215.3,-151.5 -233.3,-280.5 -26.5,-190.1 120.2,-312.5 127.7,-318.5 v 0 c 29.6,-35.2 84,-109.5 107.5,-218.9 27.6,-129.6 -4,-234.5 -20,-278 v 0 c -6.4,-12.1 -89.8,-174.4 -0.3,-340 95.6,-176.5 295.8,-186.5 304.5,-186.8 v 0 c 41.7,-5.3 152.6,-25.1 253.1,-115.4 86.8,-78 120.7,-167.91 133.4,-208.83 v -0.01 c 9.4,-22.81 75.3,-176.17 249.5,-234.56 162.6,-54.5 298.7,14.21 322.1,26.51 v 0 c 57.3,18.96 143.1,40.22 248.9,40.66 109.1,0.46 197.4,-21.41 255.6,-40.66 v 0 c 22.8,-11.05 186.5,-86.97 362.4,-6.36 138.2,63.39 195.3,182.85 209.2,214.41 v 0.01 c 13.9,41.09 51.9,135.49 146.9,215.53 95.9,80.9 196.7,102.2 239.6,108.7 v 0 c 20.4,4.3 207.9,46.1 291,227.1 64.2,140.1 23.3,270.1 13.1,299.7 v 0 c -14.6,48.7 -37.6,148.7 -13.1,271.3 21.7,108.9 71,185.7 100.7,225.6 v 0 c 103.6,90.5 148.1,229.9 114.2,358.8"
         style="fill:#3cc43d;fill-opacity:1;fill-rule:nonzero;stroke:none"
         id="path138"
         inkscape:connector-curvature="0" />
    </g>
    <g
       id="g140"
       transform="matrix(0.04426761,0,0,-0.04426761,-537.44559,707.24031)">
      <path
         d="m 15194.5,10949.7 c -425.4,0 -770.1,344.8 -770.1,770.2 0,425.3 344.7,770.1 770.1,770.1 425.3,0 770.1,-344.8 770.1,-770.1 0,-425.4 -344.8,-770.2 -770.1,-770.2 z m 0,1875.7 c -610.6,0 -1105.5,-495 -1105.5,-1105.5 0,-610.6 494.9,-1105.5 1105.5,-1105.5 610.5,0 1105.5,494.9 1105.5,1105.5 0,610.5 -495,1105.5 -1105.5,1105.5"
         style="fill:#70a131;fill-opacity:1;fill-rule:nonzero;stroke:none"
         id="path142"
         inkscape:connector-curvature="0" />
    </g>
    <g
       id="g144"
       transform="matrix(0.04238484,0,0,-0.04238484,-537.44559,707.24031)">
      <path
         d="m 15813.8,13592.9 c -92.7,11.6 -397.3,49.7 -652,-128.7 -131.2,-91.9 -92.4,-131.4 -300.3,-360.3 -243.2,-267.9 -337.3,-258.9 -429,-446.2 -17,-34.9 -149,-304.4 -25.7,-463.3 42.7,-55.1 119.1,-100.7 197.3,-94.4 68.6,5.6 141.5,51.4 231.7,202.7 169.9,285.1 110.3,456.4 188.8,621 219.7,460.6 1259,316.5 1269.7,471.9 5.7,82.7 -285.5,172.9 -480.5,197.3"
         style="fill:#92da29;fill-opacity:1;fill-rule:nonzero;stroke:none"
         id="path146"
         inkscape:connector-curvature="0" />
    </g>
    <g
       id="g148"
       transform="matrix(0.04431982,0,0,-0.04431982,-537.44559,707.24031)">
      <path
         d="m 14286.6,11092.6 c -89.8,-14.8 -135.3,-338.6 44.5,-573.8 179.7,-235.2 327.4,-415.7 644.7,-295.4 317.3,120.4 481.8,142.2 648.4,103.9 166.6,-38.2 675.8,262.6 0,525.2 -675.8,262.5 -796.6,-470.5 -968.7,-273.5 -172,196.9 -73.6,562.2 -368.9,513.6"
         style="fill:#92da29;fill-opacity:1;fill-rule:nonzero;stroke:none"
         id="path150"
         inkscape:connector-curvature="0" />
    </g>
    <g
       id="g152"
       transform="matrix(0.04529737,0,0,-0.04529737,-537.44559,707.24031)">
      <path
         d="m 15792.5,12079.3 c -77.5,-15.4 -274.4,-182 -172,-449.6 102.4,-267.6 461,-434.6 257.6,-776.6 -203.4,-341.9 198.9,-226.5 310.5,0 111.4,226.5 -214.1,357.4 -208.8,505.5 5.3,148 296.5,816.5 -187.3,720.7"
         style="fill:#92da29;fill-opacity:1;fill-rule:nonzero;stroke:none"
         id="path154"
         inkscape:connector-curvature="0" />
    </g>
    <g
       id="g156"
       transform="matrix(0.03951429,0,0,-0.03951429,-537.44559,707.24031)">
      <path
         d="m 16036.2,14068.1 c -100.1,-42 -148.5,-239.3 -338,-386.6 -189.7,-147.2 -287.8,-375.1 -201.9,-485.1 85.9,-110 294.5,-36.4 331.3,276.5 36.8,312.9 472.4,705.6 208.6,595.2"
         style="fill:#ade729;fill-opacity:1;fill-rule:nonzero;stroke:none"
         id="path158"
         inkscape:connector-curvature="0" />
    </g>
    <g
       id="g160"
       transform="matrix(0.04464579,0,0,-0.04464579,-537.44559,707.24031)">
      <path
         d="m 15990.5,12163.4 c -96.5,-82.3 -201,-244.4 54.3,-581.1 255.2,-336.6 41.4,97.4 89.1,331.3 51.4,252.4 19.5,388.7 -143.4,249.8"
         style="fill:#ade729;fill-opacity:1;fill-rule:nonzero;stroke:none"
         id="path162"
         inkscape:connector-curvature="0" />
    </g>
    <g
       id="g164"
       transform="matrix(0.04341036,0,0,-0.04341036,-537.44559,707.24031)">
      <path
         d="m 15402.5,10996.1 c -116.8,-79.2 -278.6,-215.6 -341.9,-351.9 -72.6,-156.4 226.3,-178.7 356,39.1 129.8,217.8 364.8,162 534.9,61.4 170.1,-100.5 348.5,96 52.5,244.3 -295.9,148.2 -515.2,65.6 -601.5,7.1"
         style="fill:#ade729;fill-opacity:1;fill-rule:nonzero;stroke:none"
         id="path166"
         inkscape:connector-curvature="0" />
    </g>
    <g
       id="g168"
       transform="matrix(0.04153394,0,0,-0.04153394,-537.44559,707.24031)">
      <path
         d="m 16194.5,13570.4 c -4.2,0 -8.5,0.9 -12.6,2.8 -14.7,7 -21,24.6 -14.1,39.4 l 71.8,151.6 c 7.1,14.7 24.6,21 39.4,14 14.7,-7 21,-24.6 14,-39.3 l -71.7,-151.6 c -5.1,-10.7 -15.7,-16.9 -26.8,-16.9"
         style="fill:#233efb;fill-opacity:1;fill-rule:nonzero;stroke:none"
         id="path170"
         inkscape:connector-curvature="0" />
    </g>
    <g
       id="g172"
       transform="matrix(0.04226807,0,0,-0.04226807,-537.44559,707.24031)">
      <path
         d="m 16289.3,13150.8 c -2.9,-3 -6.6,-5.3 -10.7,-6.8 -15.2,-5.4 -31.8,2.4 -37.2,17.5 l -55.4,155.3 c -5.4,15.1 2.5,31.7 17.6,37.1 15.1,5.4 31.7,-2.5 37.1,-17.6 l 55.5,-155.2 c 3.8,-10.9 0.8,-22.7 -6.9,-30.3"
         style="fill:#e7314f;fill-opacity:1;fill-rule:nonzero;stroke:none"
         id="path174"
         inkscape:connector-curvature="0" />
    </g>
    <g
       id="g176"
       transform="matrix(0.04240142,0,0,-0.04240142,-537.44559,707.24031)">
      <path
         d="m 16092.2,13467.9 c -2.9,2.9 -5.4,6.6 -6.9,10.7 -5.3,15.1 2.5,31.7 17.6,37 l 154.8,55.3 c 15,5.4 31.6,-2.5 36.9,-17.5 5.4,-15.1 -2.4,-31.6 -17.5,-37 l -154.7,-55.3 c -10.9,-3.9 -22.6,-0.9 -30.2,6.8"
         style="fill:#ffff29;fill-opacity:1;fill-rule:nonzero;stroke:none"
         id="path178"
         inkscape:connector-curvature="0" />
    </g>
    <g
       id="g180"
       transform="matrix(0.04086684,0,0,-0.04086684,-537.44559,707.24031)">
      <path
         d="m 16300,13622.9 c 0,-4.3 -1,-8.6 -2.9,-12.8 -7.1,-15 -25.1,-21.4 -40,-14.3 l -154.1,73 c -15,7.1 -21.4,25 -14.2,40 7,15 24.9,21.4 39.9,14.3 l 154.1,-73 c 10.8,-5.1 17.2,-15.9 17.2,-27.2"
         style="fill:#ffff29;fill-opacity:1;fill-rule:nonzero;stroke:none"
         id="path182"
         inkscape:connector-curvature="0" />
    </g>
    <g
       id="g184"
       transform="matrix(0.04060895,0,0,-0.04060895,-537.44559,707.24031)">
      <path
         d="m 16104.2,13965.5 c -3.7,2.3 -6.9,5.5 -9.4,9.4 -8.9,14.1 -4.6,32.7 9.5,41.6 l 145.1,91.5 c 14.2,8.9 32.8,4.7 41.7,-9.4 8.9,-14.2 4.6,-32.8 -9.4,-41.7 l -145.2,-91.5 c -10.2,-6.4 -22.8,-6 -32.3,0.1"
         style="fill:#e7314f;fill-opacity:1;fill-rule:nonzero;stroke:none"
         id="path186"
         inkscape:connector-curvature="0" />
    </g>
    <g
       id="g188"
       transform="matrix(0.04019973,0,0,-0.04019973,-537.44559,707.24031)">
      <path
         d="m 16291.8,14250.9 c -2.5,-3.5 -5.9,-6.5 -10.1,-8.7 -14.8,-8 -33.3,-2.4 -41.3,12.5 l -81.7,152.8 c -8,14.9 -2.4,33.4 12.5,41.3 14.9,8 33.4,2.4 41.3,-12.5 l 81.8,-152.8 c 5.7,-10.8 4.4,-23.4 -2.5,-32.6"
         style="fill:#233efb;fill-opacity:1;fill-rule:nonzero;stroke:none"
         id="path190"
         inkscape:connector-curvature="0" />
    </g>
    <g
       id="g192"
       transform="matrix(0.04133285,0,0,-0.04133285,-537.44559,707.24031)">
      <path
         d="m 16091.1,14101.4 c 0.4,4.2 1.7,8.5 4,12.4 8.3,14.1 26.4,18.9 40.6,10.6 l 145.4,-85.3 c 14.1,-8.3 18.9,-26.5 10.6,-40.6 -8.3,-14.1 -26.4,-18.9 -40.6,-10.6 l -145.4,85.2 c -10.3,6 -15.6,17.2 -14.6,28.3"
         style="fill:#c2fffb;fill-opacity:1;fill-rule:nonzero;stroke:none"
         id="path194"
         inkscape:connector-curvature="0" />
    </g>
    <g
       id="g196"
       transform="matrix(0.04309745,0,0,-0.04309745,-537.44559,707.24031)">
      <path
         d="m 16149.6,12969.4 c 2,3.6 4.8,6.8 8.4,9.3 12.8,9.1 30.6,6 39.7,-6.8 l 93.3,-132 c 9,-12.9 6,-30.7 -6.9,-39.7 -12.8,-9.1 -30.6,-6.1 -39.7,6.8 l -93.2,132 c -6.6,9.3 -6.8,21.2 -1.6,30.4"
         style="fill:#c2fffb;fill-opacity:1;fill-rule:nonzero;stroke:none"
         id="path198"
         inkscape:connector-curvature="0" />
    </g>
    <g
       id="g200"
       transform="matrix(0.04383087,0,0,-0.04383087,-537.44559,707.24031)">
      <path
         d="m 16097.1,12461.7 c -2.8,3 -5,6.5 -6.3,10.6 -4.8,14.7 3.2,30.5 18,35.3 l 151.1,49.1 c 14.8,4.8 30.5,-3.2 35.4,-17.9 4.7,-14.7 -3.3,-30.5 -18.1,-35.3 l -151.1,-49.2 c -10.7,-3.4 -21.8,-0.2 -29,7.4"
         style="fill:#233efb;fill-opacity:1;fill-rule:nonzero;stroke:none"
         id="path202"
         inkscape:connector-curvature="0" />
    </g>
    <g
       id="g204"
       transform="matrix(0.04401291,0,0,-0.04401291,-537.44559,707.24031)">
      <path
         d="m 16299.4,12746.6 c 0.6,-4 0.4,-8.2 -0.8,-12.2 -4.4,-14.8 -19.8,-23.3 -34.6,-19 l -152,44.3 c -14.8,4.4 -23.2,19.9 -19,34.6 4.4,14.8 19.8,23.3 34.7,19 l 151.9,-44.4 c 10.7,-3.1 18.1,-12 19.8,-22.3"
         style="fill:#ffff29;fill-opacity:1;fill-rule:nonzero;stroke:none"
         id="path206"
         inkscape:connector-curvature="0" />
    </g>
    <g
       id="g208"
       transform="matrix(0.04321598,0,0,-0.04321598,-537.44559,707.24031)">
      <path
         d="m 16179.5,13123.1 c -4,0.5 -8,1.8 -11.7,4.1 -13.4,8.3 -17.4,25.8 -9.2,39.1 l 84.9,137.1 c 8.3,13.3 25.7,17.4 39.1,9.2 13.3,-8.3 17.4,-25.8 9.2,-39.1 l -84.9,-137.1 c -6,-9.6 -16.8,-14.5 -27.4,-13.3"
         style="fill:#e7314f;fill-opacity:1;fill-rule:nonzero;stroke:none"
         id="path210"
         inkscape:connector-curvature="0" />
    </g>
    <g
       id="g212"
       transform="matrix(0.0445075,0,0,-0.0445075,-537.44559,707.24031)">
      <path
         d="m 16101.2,12791.6 c -2.8,2.8 -5,6.3 -6.3,10.3 -5,14.4 2.7,30 17.1,35 l 148.1,50.8 c 14.3,5 30,-2.7 34.9,-17.1 5,-14.4 -2.7,-30.1 -17.1,-35 l -148,-50.9 c -10.5,-3.5 -21.6,-0.5 -28.7,6.9"
         style="fill:#c2fffb;fill-opacity:1;fill-rule:nonzero;stroke:none"
         id="path214"
         inkscape:connector-curvature="0" />
    </g>
    <g
       id="g216"
       transform="matrix(0.04403513,0,0,-0.04403513,-537.44559,707.24031)">
      <path
         d="m 16167.9,12189.2 c -3.9,0.8 -7.8,2.4 -11.1,5 -12.4,9.2 -14.9,26.7 -5.6,39 l 95,126.5 c 9.3,12.3 26.7,14.8 39.1,5.6 12.2,-9.3 14.7,-26.7 5.5,-39.1 l -95,-126.5 c -6.7,-8.9 -17.7,-12.6 -27.9,-10.5"
         style="fill:#233efb;fill-opacity:1;fill-rule:nonzero;stroke:none"
         id="path218"
         inkscape:connector-curvature="0" />
    </g>
    <g
       id="g220"
       transform="matrix(0.04456783,0,0,-0.04456783,-537.44559,707.24031)">
      <path
         d="m 16289.8,12205.6 c -2.8,-2.8 -6.3,-5 -10.2,-6.5 -14.3,-5.1 -30.1,2.4 -35.2,16.7 l -52.6,147.2 c -5.1,14.4 2.4,30.1 16.7,35.2 14.3,5.1 30.1,-2.3 35.1,-16.6 l 52.7,-147.3 c 3.7,-10.3 0.8,-21.4 -6.5,-28.7"
         style="fill:#e7314f;fill-opacity:1;fill-rule:nonzero;stroke:none"
         id="path222"
         inkscape:connector-curvature="0" />
    </g>
    <g
       id="g224"
       transform="matrix(0.0442655,0,0,-0.0442655,-537.44559,707.24031)">
      <path
         d="m 16200.9,11816.1 c -4,0 -8.2,0.8 -12.1,2.6 -14,6.6 -20.1,23.3 -13.5,37.3 l 67.3,144.4 c 6.6,14.1 23.3,20.2 37.3,13.6 14,-6.5 20.1,-23.2 13.6,-37.3 l -67.4,-144.4 c -4.7,-10.2 -14.7,-16.1 -25.2,-16.2"
         style="fill:#ffff29;fill-opacity:1;fill-rule:nonzero;stroke:none"
         id="path226"
         inkscape:connector-curvature="0" />
    </g>
    <g
       id="g228"
       transform="matrix(0.04584206,0,0,-0.04584206,-537.44559,707.24031)">
      <path
         d="m 16300,11473.6 c 0,-3.9 -0.8,-7.8 -2.6,-11.5 -6.5,-13.6 -22.6,-19.3 -36.1,-12.9 l -139.1,65.8 c -13.5,6.4 -19.3,22.6 -12.9,36.1 6.4,13.5 22.6,19.3 36.1,12.9 l 139.1,-65.8 c 9.7,-4.7 15.5,-14.4 15.5,-24.6"
         style="fill:#ffff29;fill-opacity:1;fill-rule:nonzero;stroke:none"
         id="path230"
         inkscape:connector-curvature="0" />
    </g>
    <g
       id="g232"
       transform="matrix(0.04510864,0,0,-0.04510864,-537.44559,707.24031)">
      <path
         d="m 16278.5,11957.1 c 3.7,-1.3 7.2,-3.3 10.2,-6.2 10.9,-10.3 11.3,-27.5 1,-38.4 l -106.5,-112 c -10.3,-10.8 -27.6,-11.3 -38.4,-0.9 -10.9,10.3 -11.4,27.6 -1,38.4 l 106.5,112 c 7.5,7.8 18.5,10.3 28.2,7.1"
         style="fill:#c2fffb;fill-opacity:1;fill-rule:nonzero;stroke:none"
         id="path234"
         inkscape:connector-curvature="0" />
    </g>
    <g
       id="g236"
       transform="matrix(0.04527797,0,0,-0.04527797,-537.44559,707.24031)">
      <path
         d="m 16203.2,11084.8 c -3.9,0 -7.8,0.8 -11.6,2.6 -13.5,6.4 -19.3,22.6 -12.8,36.1 l 65.8,139.1 c 6.4,13.5 22.6,19.3 36.1,12.9 13.5,-6.4 19.3,-22.6 12.9,-36.1 l -65.8,-139.1 c -4.7,-9.8 -14.4,-15.5 -24.6,-15.5"
         style="fill:#233efb;fill-opacity:1;fill-rule:nonzero;stroke:none"
         id="path238"
         inkscape:connector-curvature="0" />
    </g>
    <g
       id="g240"
       transform="matrix(0.04466625,0,0,-0.04466625,-537.44559,707.24031)">
      <path
         d="m 16300,11031 c 0,-4 -0.9,-8.1 -2.7,-11.9 -6.6,-13.9 -23.2,-19.9 -37.1,-13.3 l -142.7,67.6 c -13.8,6.6 -19.8,23.2 -13.2,37.1 6.5,13.8 23.1,19.8 37,13.2 l 142.7,-67.6 c 10.1,-4.7 16,-14.7 16,-25.1"
         style="fill:#ffff29;fill-opacity:1;fill-rule:nonzero;stroke:none"
         id="path242"
         inkscape:connector-curvature="0" />
    </g>
    <g
       id="g244"
       transform="matrix(0.04447399,0,0,-0.04447399,-537.44559,707.24031)">
      <path
         d="m 16121.2,11387.9 c -3.3,2.1 -6.3,5 -8.6,8.6 -8.1,12.9 -4.2,29.9 8.7,38 l 132.5,83.5 c 13,8.2 29.9,4.3 38.1,-8.6 8.1,-12.9 4.3,-29.9 -8.6,-38.1 l -132.6,-83.5 c -9.3,-5.8 -20.8,-5.5 -29.5,0.1"
         style="fill:#e7314f;fill-opacity:1;fill-rule:nonzero;stroke:none"
         id="path246"
         inkscape:connector-curvature="0" />
    </g>
    <g
       id="g248"
       transform="matrix(0.04391307,0,0,-0.04391307,-537.44559,707.24031)">
      <path
         d="m 16292.5,11610.5 c -2.3,-3.2 -5.4,-5.9 -9.2,-7.9 -13.6,-7.3 -30.5,-2.2 -37.8,11.4 l -74.8,139.9 c -7.4,13.6 -2.2,30.6 11.4,37.8 13.6,7.3 30.6,2.2 37.8,-11.4 l 74.9,-139.9 c 5.2,-9.9 4,-21.4 -2.3,-29.9"
         style="fill:#233efb;fill-opacity:1;fill-rule:nonzero;stroke:none"
         id="path250"
         inkscape:connector-curvature="0" />
    </g>
    <g
       id="g252"
       transform="matrix(0.04520177,0,0,-0.04520177,-537.44559,707.24031)">
      <path
         d="m 16108.9,11549 c 0.4,3.9 1.5,7.7 3.6,11.3 7.7,13 24.3,17.3 37.2,9.7 l 133,-77.9 c 12.9,-7.6 17.3,-24.3 9.7,-37.2 -7.6,-12.9 -24.2,-17.3 -37.2,-9.7 l -132.9,78 c -9.4,5.5 -14.3,15.7 -13.4,25.8"
         style="fill:#c2fffb;fill-opacity:1;fill-rule:nonzero;stroke:none"
         id="path254"
         inkscape:connector-curvature="0" />
    </g>
    <g
       id="g256"
       transform="matrix(0.04337015,0,0,-0.04337015,-537.44559,707.24031)">
      <path
         d="m 16096.7,11285.3 c -2.8,2.9 -5.1,6.4 -6.6,10.5 -5.2,14.7 2.5,30.9 17.2,36.2 l 151.3,53.9 c 14.7,5.2 30.9,-2.5 36.2,-17.2 5.2,-14.7 -2.4,-30.9 -17.2,-36.1 l -151.3,-53.9 c -10.7,-3.8 -22.1,-0.9 -29.6,6.6"
         style="fill:#e7314f;fill-opacity:1;fill-rule:nonzero;stroke:none"
         id="path258"
         inkscape:connector-curvature="0" />
    </g>
    <g
       id="g260"
       transform="matrix(0.0440436,0,0,-0.0440436,-537.44559,707.24031)">
      <path
         d="m 16195.9,11252.9 c 2.8,2.9 6.2,5.1 10.3,6.6 14.5,5.1 30.4,-2.4 35.6,-16.9 l 53.1,-149.1 c 5.1,-14.5 -2.4,-30.4 -16.9,-35.6 -14.5,-5.1 -30.5,2.4 -35.7,16.9 l -53,149.1 c -3.8,10.4 -0.9,21.7 6.6,29"
         style="fill:#ffff29;fill-opacity:1;fill-rule:nonzero;stroke:none"
         id="path262"
         inkscape:connector-curvature="0" />
    </g>
    <g
       id="g264"
       transform="matrix(0.04306676,0,0,-0.04306676,-537.44559,707.24031)">
      <path
         d="m 16281.6,11190.9 c 3.6,-2 6.8,-4.8 9.3,-8.4 9.1,-12.8 6,-30.6 -6.9,-39.7 l -132.2,-93.2 c -12.8,-9.1 -30.6,-6 -39.7,6.8 -9,12.9 -6,30.7 6.9,39.8 l 132.2,93.2 c 9.3,6.6 21.1,6.8 30.4,1.5"
         style="fill:#c2fffb;fill-opacity:1;fill-rule:nonzero;stroke:none"
         id="path266"
         inkscape:connector-curvature="0" />
    </g>
    <g
       id="g268"
       transform="matrix(0.04250408,0,0,-0.04250408,-537.44559,707.24031)">
      <path
         d="m 16197.2,11114.8 c 3,2.9 6.8,5.1 10.9,6.5 15.2,4.9 31.5,-3.4 36.5,-18.6 l 50.5,-155.9 c 4.9,-15.2 -3.4,-31.5 -18.6,-36.4 -15.2,-4.9 -31.4,3.4 -36.3,18.6 l -50.6,155.9 c -3.6,11 -0.2,22.5 7.6,29.9"
         style="fill:#233efb;fill-opacity:1;fill-rule:nonzero;stroke:none"
         id="path270"
         inkscape:connector-curvature="0" />
    </g>
    <g
       id="g272"
       transform="matrix(0.04333628,0,0,-0.04333628,-537.44559,707.24031)">
      <path
         d="m 16227.6,10628 c -4,-0.7 -8.2,-0.4 -12.3,0.8 -15,4.4 -23.7,20.1 -19.3,35.1 l 45.2,154.3 c 4.4,15 20.1,23.6 35.2,19.2 15,-4.4 23.6,-20.1 19.2,-35.1 l -45.2,-154.3 c -3.2,-10.9 -12.3,-18.4 -22.8,-20"
         style="fill:#ffff29;fill-opacity:1;fill-rule:nonzero;stroke:none"
         id="path274"
         inkscape:connector-curvature="0" />
    </g>
    <g
       id="g276"
       transform="matrix(0.04404395,0,0,-0.04404395,-537.44559,707.24031)">
      <path
         d="m 16106.1,10869.6 c 0.5,4 1.7,7.9 4,11.5 8.1,13.1 25.3,17.1 38.4,9 l 134.4,-83.4 c 13,-8.1 17.1,-25.3 8.9,-38.4 -8.1,-13 -25.2,-17.1 -38.3,-9 l -134.4,83.5 c -9.5,5.8 -14.2,16.4 -13,26.8"
         style="fill:#e7314f;fill-opacity:1;fill-rule:nonzero;stroke:none"
         id="path278"
         inkscape:connector-curvature="0" />
    </g>
    <g
       id="g280"
       transform="matrix(0.04029816,0,0,-0.04029816,-537.44559,707.24031)">
      <path
         d="m 16297.6,11249.5 c -0.8,-4.3 -2.7,-8.4 -5.5,-12.2 -10.1,-13.4 -29.2,-16 -42.6,-5.9 l -138,104.2 c -13.4,10.2 -16,29.3 -5.9,42.7 10.1,13.4 29.2,16.1 42.7,5.9 l 137.9,-104.2 c 9.7,-7.3 13.8,-19.3 11.4,-30.5"
         style="fill:#e7314f;fill-opacity:1;fill-rule:nonzero;stroke:none"
         id="path282"
         inkscape:connector-curvature="0" />
    </g>
    <g
       id="g284"
       transform="matrix(0.03982155,0,0,-0.03982155,-537.44559,707.24031)">
      <path
         d="m 16153.4,11618.1 c -4.4,0.9 -8.5,2.7 -12.3,5.5 -13.6,10.3 -16.2,29.6 -6.1,43.2 l 105.6,139.6 c 10.2,13.6 29.5,16.3 43.1,6 13.6,-10.2 16.3,-29.6 6,-43.2 l -105.4,-139.5 c -7.4,-9.9 -19.6,-14 -30.9,-11.6"
         style="fill:#ffff29;fill-opacity:1;fill-rule:nonzero;stroke:none"
         id="path286"
         inkscape:connector-curvature="0" />
    </g>
    <g
       id="g288"
       transform="matrix(0.04113036,0,0,-0.04113036,-537.44559,707.24031)">
      <path
         d="m 16078.8,11184.4 c -0.3,4.3 0.3,8.7 2,13 6.1,15.3 23.4,22.8 38.7,16.8 l 157.6,-62.1 c 15.4,-6 22.9,-23.3 16.8,-38.7 -6,-15.3 -23.3,-22.8 -38.7,-16.8 l -157.5,62.1 c -11.2,4.3 -18.1,14.6 -18.9,25.7"
         style="fill:#c2fffb;fill-opacity:1;fill-rule:nonzero;stroke:none"
         id="path290"
         inkscape:connector-curvature="0" />
    </g>
    <g
       id="g292"
       transform="matrix(0.0418599,0,0,-0.0418599,-537.44559,707.24031)">
      <path
         d="m 16156.1,10860.1 c -4.1,0.9 -8.1,2.8 -11.5,5.6 -12.6,10.1 -14.7,28.6 -4.6,41.2 l 104.1,129.9 c 10.1,12.6 28.6,14.6 41.2,4.5 12.7,-10.1 14.7,-28.6 4.6,-41.2 l -104.1,-129.9 c -7.3,-9.1 -19,-12.7 -29.7,-10.1"
         style="fill:#233efb;fill-opacity:1;fill-rule:nonzero;stroke:none"
         id="path294"
         inkscape:connector-curvature="0" />
    </g>
    <g
       id="g296"
       transform="matrix(0.04162778,0,0,-0.04162778,-537.44559,707.24031)">
      <path
         d="m 16288.9,11374 c 2.8,-3.1 5.1,-6.9 6.4,-11.2 4.7,-15.6 -4,-32.1 -19.6,-36.8 l -160,-48.9 c -15.6,-4.8 -32.1,4 -36.9,19.5 -4.7,15.6 4,32.1 19.6,36.8 l 160.1,49 c 11.2,3.4 22.9,-0.2 30.4,-8.4"
         style="fill:#ffff29;fill-opacity:1;fill-rule:nonzero;stroke:none"
         id="path298"
         inkscape:connector-curvature="0" />
    </g>
    <g
       id="g300"
       transform="matrix(0.04050383,0,0,-0.04050383,-537.44559,707.24031)">
      <path
         d="m 16283.1,11569.8 c -3.9,-1.9 -8.3,-3.1 -12.9,-3.2 -16.7,-0.4 -30.6,12.8 -31.1,29.5 l -4.4,172 c -0.5,16.7 12.7,30.6 29.4,31 16.7,0.5 30.7,-12.7 31.1,-29.5 l 4.5,-171.9 c 0.3,-12.1 -6.5,-22.7 -16.6,-27.9"
         style="fill:#e7314f;fill-opacity:1;fill-rule:nonzero;stroke:none"
         id="path302"
         inkscape:connector-curvature="0" />
    </g>
    <g
       id="g304"
       transform="matrix(0.03881261,0,0,-0.03881261,-537.44559,707.24031)">
      <path
         d="m 16188.3,12096.3 c -4.6,0 -9.2,1 -13.6,3 -15.8,7.4 -22.6,26.2 -15.2,42 l 75.8,162.7 c 7.3,15.9 26.2,22.7 42,15.3 15.9,-7.4 22.7,-26.2 15.3,-42 l -75.9,-162.7 c -5.2,-11.4 -16.6,-18.2 -28.4,-18.3"
         style="fill:#ffff29;fill-opacity:1;fill-rule:nonzero;stroke:none"
         id="path306"
         inkscape:connector-curvature="0" />
    </g>
    <g
       id="g308"
       transform="matrix(0.04002334,0,0,-0.04002334,-537.44559,707.24031)">
      <path
         d="m 16078.7,12177.8 c 0.1,4.4 1.1,8.9 3.2,13.1 7.6,15.1 26,21.2 41.2,13.6 l 155.7,-78 c 15,-7.6 21.2,-26.1 13.6,-41.2 -7.6,-15.1 -26.1,-21.2 -41.1,-13.6 l -155.7,78 c -10.9,5.5 -17.2,16.6 -16.9,28.1"
         style="fill:#e7314f;fill-opacity:1;fill-rule:nonzero;stroke:none"
         id="path310"
         inkscape:connector-curvature="0" />
    </g>
    <g
       id="g312"
       transform="matrix(0.03832366,0,0,-0.03832366,-537.44559,707.24031)">
      <path
         d="m 16068.3,12673.5 c -3.2,3.4 -5.7,7.4 -7.3,12.1 -5.5,16.8 3.6,34.9 20.4,40.5 l 172.5,57.2 c 16.8,5.6 35,-3.5 40.5,-20.3 5.6,-16.7 -3.5,-34.9 -20.3,-40.5 l -172.6,-57.2 c -12.1,-4.1 -24.9,-0.4 -33.2,8.2"
         style="fill:#ffff29;fill-opacity:1;fill-rule:nonzero;stroke:none"
         id="path314"
         inkscape:connector-curvature="0" />
    </g>
    <g
       id="g316"
       transform="matrix(0.03895972,0,0,-0.03895972,-537.44559,707.24031)">
      <path
         d="m 16282,12448.7 c -4.1,-1.9 -8.6,-3 -13.5,-3 -17.4,0 -31.5,14 -31.5,31.4 l -0.6,178.8 c 0,17.4 14.1,31.6 31.5,31.6 17.4,0.1 31.6,-14 31.6,-31.4 l 0.4,-178.8 c 0.1,-12.6 -7.2,-23.5 -17.9,-28.6"
         style="fill:#c2fffb;fill-opacity:1;fill-rule:nonzero;stroke:none"
         id="path318"
         inkscape:connector-curvature="0" />
    </g>
    <g
       id="g320"
       transform="matrix(0.03762834,0,0,-0.03762834,-537.44559,707.24031)">
      <path
         d="m 16182.5,13621 c 3.4,3.2 7.5,5.8 12.3,7.3 17.1,5.7 35.5,-3.5 41.3,-20.6 l 58.3,-175.8 c 5.6,-17.1 -3.6,-35.5 -20.7,-41.2 -17.1,-5.7 -35.6,3.6 -41.2,20.7 l -58.4,175.7 c -4,12.4 -0.4,25.5 8.4,33.9"
         style="fill:#233efb;fill-opacity:1;fill-rule:nonzero;stroke:none"
         id="path322"
         inkscape:connector-curvature="0" />
    </g>
    <g
       id="g324"
       transform="matrix(0.03838822,0,0,-0.03838822,-537.44559,707.24031)">
      <path
         d="m 16258.5,13565.5 c 4.5,0.9 9.2,0.8 13.9,-0.4 17.2,-4.2 27.6,-21.6 23.3,-38.7 l -44.1,-176.1 c -4.4,-17.1 -21.7,-27.5 -38.8,-23.2 -17.1,4.3 -27.6,21.6 -23.3,38.8 l 44.2,176 c 3.1,12.4 13,21.3 24.8,23.6"
         style="fill:#e7314f;fill-opacity:1;fill-rule:nonzero;stroke:none"
         id="path326"
         inkscape:connector-curvature="0" />
    </g>
    <g
       id="g328"
       transform="matrix(0.03847853,0,0,-0.03847853,-537.44559,707.24031)">
      <path
         d="m 16289.8,13040.3 c 2.9,-3.5 5,-7.8 6.2,-12.5 4,-17.2 -6.6,-34.4 -23.8,-38.4 l -176.1,-41.8 c -17.1,-4 -34.4,6.6 -38.4,23.7 -4.1,17.2 6.5,34.3 23.6,38.4 l 176.3,41.8 c 12.3,2.9 24.8,-1.8 32.2,-11.2"
         style="fill:#c2fffb;fill-opacity:1;fill-rule:nonzero;stroke:none"
         id="path330"
         inkscape:connector-curvature="0" />
    </g>
    <g
       id="g332"
       transform="matrix(0.03922077,0,0,-0.03922077,-537.44559,707.24031)">
      <path
         d="m 16089.5,14491.5 c 0.8,4.5 2.6,8.8 5.4,12.6 10.1,14.1 29.6,17.3 43.6,7.2 l 144.2,-103.8 c 14.1,-10.1 17.3,-29.6 7.2,-43.7 -10.1,-14 -29.7,-17.2 -43.7,-7.1 l -144.2,103.8 c -10.1,7.3 -14.6,19.5 -12.5,31"
         style="fill:#233efb;fill-opacity:1;fill-rule:nonzero;stroke:none"
         id="path334"
         inkscape:connector-curvature="0" />
    </g>
    <g
       id="g336"
       transform="matrix(0.0386341,0,0,-0.0386341,-537.44559,707.24031)">
      <path
         d="m 16061.7,14343.2 c -2.7,3.7 -4.4,8.1 -5.2,12.9 -2.9,17.3 8.9,33.6 26.2,36.4 l 177.9,29.1 c 17.4,2.8 33.7,-9 36.6,-26.3 2.8,-17.3 -9,-33.6 -26.3,-36.4 l -178,-29.1 c -12.5,-2 -24.5,3.6 -31.2,13.4"
         style="fill:#e7314f;fill-opacity:1;fill-rule:nonzero;stroke:none"
         id="path338"
         inkscape:connector-curvature="0" />
    </g>
    <g
       id="g340"
       transform="matrix(0.03924759,0,0,-0.03924759,-537.44559,707.24031)">
      <path
         d="m 16220.1,14204.2 c 3.7,2.6 8,4.4 12.7,5.1 17,2.8 33,-8.8 35.8,-25.8 l 28.6,-175.2 c 2.8,-17.1 -8.8,-33.1 -25.8,-35.9 -17.1,-2.8 -33.1,8.8 -35.9,25.8 l -28.5,175.2 c -2.1,12.3 3.4,24.2 13.1,30.8"
         style="fill:#ffff29;fill-opacity:1;fill-rule:nonzero;stroke:none"
         id="path342"
         inkscape:connector-curvature="0" />
    </g>
    <g
       id="g344"
       transform="matrix(0.03821042,0,0,-0.03821042,-537.44559,707.24031)">
      <path
         d="m 16283.9,14295 c 3.6,-3 6.6,-6.7 8.6,-11.2 7.5,-16.1 0.5,-35.2 -15.6,-42.6 l -165.4,-76.7 c -16.2,-7.4 -35.2,-0.4 -42.7,15.7 -7.5,16.1 -0.4,35.2 15.6,42.6 l 165.5,76.7 c 11.6,5.3 24.8,3.2 34,-4.5"
         style="fill:#c2fffb;fill-opacity:1;fill-rule:nonzero;stroke:none"
         id="path346"
         inkscape:connector-curvature="0" />
    </g>
    <g
       id="g348"
       transform="matrix(0.03747629,0,0,-0.03747629,-537.44559,707.24031)">
      <path
         d="m 16222.6,14385.9 c 4,2.5 8.5,4.3 13.5,5 18,2.3 34.4,-10.2 36.8,-28.2 l 24.7,-184.2 c 2.4,-18 -10.2,-34.4 -28.2,-36.8 -17.9,-2.4 -34.4,10.2 -36.8,28.1 l -24.7,184.2 c -1.7,13 4.5,25.2 14.7,31.9"
         style="fill:#233efb;fill-opacity:1;fill-rule:nonzero;stroke:none"
         id="path350"
         inkscape:connector-curvature="0" />
    </g>
    <g
       id="g352"
       transform="matrix(0.03816914,0,0,-0.03816914,-537.44559,707.24031)">
      <path
         d="m 16180.6,13707.4 c -4.6,0.1 -9.3,1.2 -13.7,3.4 -15.8,7.9 -22.3,27.3 -14.3,43.1 l 82,163.2 c 7.9,15.8 27.2,22.2 43.1,14.3 15.8,-8 22.3,-27.3 14.3,-43.2 l -81.9,-163.1 c -5.8,-11.5 -17.5,-18 -29.5,-17.7"
         style="fill:#ffff29;fill-opacity:1;fill-rule:nonzero;stroke:none"
         id="path354"
         inkscape:connector-curvature="0" />
    </g>
    <g
       id="g356"
       transform="matrix(0.03910365,0,0,-0.03910365,-537.44559,707.24031)">
      <path
         d="m 16103,13850 c 1.3,4.3 3.6,8.4 6.7,11.9 11.7,12.9 31.5,13.9 44.4,2.2 l 132,-119.6 c 12.9,-11.6 13.9,-31.5 2.3,-44.3 -11.7,-12.8 -31.5,-13.8 -44.4,-2.2 l -132,119.6 c -9.3,8.4 -12.5,21.1 -9,32.4"
         style="fill:#e7314f;fill-opacity:1;fill-rule:nonzero;stroke:none"
         id="path358"
         inkscape:connector-curvature="0" />
    </g>
    <g
       id="g360"
       transform="matrix(0.04410251,0,0,-0.04410251,-537.44559,707.24031)">
      <path
         d="m 16260.3,10564.7 c 3.7,1.6 7.7,2.6 11.9,2.5 15.5,-0.1 27.8,-12.6 27.7,-28 l -1.2,-158 c -0.1,-15.3 -12.6,-27.7 -28,-27.6 -15.3,0.1 -27.7,12.7 -27.6,28 l 1.1,158 c 0.1,11.1 6.7,20.7 16.1,25.1"
         style="fill:#e7314f;fill-opacity:1;fill-rule:nonzero;stroke:none"
         id="path362"
         inkscape:connector-curvature="0" />
    </g>
    <g
       id="g364"
       transform="matrix(0.04623259,0,0,-0.04623259,-537.44559,707.24031)">
      <path
         d="m 16205.5,10435.7 c 2.8,2.6 6.1,4.7 10,5.9 14,4.6 28.9,-3.1 33.5,-17 l 46.4,-143.4 c 4.6,-13.9 -3.1,-28.9 -17,-33.4 -14,-4.5 -28.9,3.1 -33.5,17 l -46.5,143.4 c -3.2,10.1 -0.1,20.7 7.1,27.5"
         style="fill:#233efb;fill-opacity:1;fill-rule:nonzero;stroke:none"
         id="path366"
         inkscape:connector-curvature="0" />
    </g>
    <g
       id="g368"
       transform="matrix(0.04521835,0,0,-0.04521835,-537.44559,707.24031)">
      <path
         d="m 16166.7,10321.6 c -3.7,0.9 -7.4,2.6 -10.6,5.2 -11.7,9.4 -13.5,26.5 -4.2,38.1 l 96.4,120.3 c 9.3,11.7 26.4,13.5 38.1,4.2 11.7,-9.4 13.6,-26.5 4.2,-38.2 l -96.3,-120.2 c -6.8,-8.5 -17.6,-11.8 -27.6,-9.4"
         style="fill:#233efb;fill-opacity:1;fill-rule:nonzero;stroke:none"
         id="path370"
         inkscape:connector-curvature="0" />
    </g>
    <g
       id="g372"
       transform="matrix(0.0454974,0,0,-0.0454974,-537.44559,707.24031)">
      <path
         d="m 16289.8,10707.5 c 2.7,-2.9 4.7,-6.4 5.9,-10.3 4.3,-14.2 -3.7,-29.3 -18,-33.7 l -146.3,-44.7 c -14.3,-4.4 -29.4,3.6 -33.8,17.9 -4.3,14.2 3.8,29.3 17.9,33.7 l 146.5,44.7 c 10.3,3.2 21,-0.2 27.8,-7.6"
         style="fill:#ffff29;fill-opacity:1;fill-rule:nonzero;stroke:none"
         id="path374"
         inkscape:connector-curvature="0" />
    </g>
    <g
       id="g376"
       transform="matrix(0.04609324,0,0,-0.04609324,-537.44559,707.24031)">
      <path
         d="m 16211.5,11018.2 c -3.8,-0.2 -7.7,0.5 -11.5,2.1 -13.5,5.8 -19.8,21.4 -14,34.9 l 59.3,139.1 c 5.7,13.5 21.4,19.8 35,14 13.4,-5.7 19.7,-21.4 14,-34.9 l -59.3,-139.1 c -4.2,-9.7 -13.5,-15.7 -23.5,-16.1"
         style="fill:#ffff29;fill-opacity:1;fill-rule:nonzero;stroke:none"
         id="path378"
         inkscape:connector-curvature="0" />
    </g>
    <g
       id="g380"
       transform="matrix(0.04632219,0,0,-0.04632219,-537.44559,707.24031)">
      <path
         d="m 16131.9,10603.3 c -3.3,1.9 -6.2,4.6 -8.4,7.9 -8.3,12.1 -5.1,28.6 7,36.8 l 124.5,84.4 c 12.1,8.2 28.6,5 36.8,-7.1 8.2,-12.1 5.1,-28.6 -7,-36.8 l -124.5,-84.3 c -8.8,-6 -19.8,-6 -28.4,-0.9"
         style="fill:#e7314f;fill-opacity:1;fill-rule:nonzero;stroke:none"
         id="path382"
         inkscape:connector-curvature="0" />
    </g>
    <g
       id="g384"
       transform="matrix(0.04576269,0,0,-0.04576269,-537.44559,707.24031)">
      <path
         d="m 16293.4,10805.8 c -2.1,-3.1 -5,-5.9 -8.6,-7.9 -12.8,-7.5 -29.2,-3.1 -36.6,9.7 l -76.2,131.8 c -7.4,12.9 -3.1,29.3 9.7,36.7 12.9,7.4 29.3,3 36.7,-9.8 l 76.2,-131.8 c 5.4,-9.3 4.6,-20.4 -1.2,-28.7"
         style="fill:#233efb;fill-opacity:1;fill-rule:nonzero;stroke:none"
         id="path386"
         inkscape:connector-curvature="0" />
    </g>
    <g
       id="g388"
       transform="matrix(0.04583395,0,0,-0.04583395,-537.44559,707.24031)">
      <path
         d="m 16126.4,11683 c -3.2,2.1 -6,4.9 -8.2,8.4 -7.9,12.5 -4.2,29 8.4,36.9 l 128.5,81 c 12.6,7.9 29.1,4.2 37,-8.4 7.9,-12.5 4.1,-29 -8.4,-36.9 l -128.6,-81 c -9,-5.7 -20.2,-5.3 -28.7,0"
         style="fill:#e7314f;fill-opacity:1;fill-rule:nonzero;stroke:none"
         id="path390"
         inkscape:connector-curvature="0" />
    </g>
    <g
       id="g392"
       transform="matrix(0.04542472,0,0,-0.04542472,-537.44559,707.24031)">
      <path
         d="m 16292.8,11915.1 c -2.4,-3.1 -5.4,-5.8 -9,-7.8 -13.2,-7 -29.5,-2 -36.5,11.1 l -72.4,135.3 c -7,13.1 -2,29.5 11.1,36.5 13.1,7.1 29.5,2.1 36.6,-11 l 72.3,-135.3 c 5.1,-9.5 3.9,-20.7 -2.1,-28.8"
         style="fill:#233efb;fill-opacity:1;fill-rule:nonzero;stroke:none"
         id="path394"
         inkscape:connector-curvature="0" />
    </g>
    <g
       id="g396"
       transform="matrix(0.0464439,0,0,-0.0464439,-537.44559,707.24031)">
      <path
         d="m 16114.1,11847.4 c 0.3,3.7 1.5,7.5 3.5,11 7.4,12.6 23.6,16.8 36.2,9.4 l 129.4,-75.8 c 12.5,-7.4 16.8,-23.6 9.4,-36.2 -7.3,-12.6 -23.5,-16.8 -36.1,-9.4 l -129.5,75.8 c -9.1,5.4 -13.8,15.3 -12.9,25.2"
         style="fill:#c2fffb;fill-opacity:1;fill-rule:nonzero;stroke:none"
         id="path398"
         inkscape:connector-curvature="0" />
    </g>
    <g
       id="g400"
       transform="matrix(0.0450282,0,0,-0.0450282,-537.44559,707.24031)">
      <path
         d="m 16207,12359.5 c -3.9,-0.1 -7.9,0.7 -11.7,2.3 -13.8,6.1 -20,22.2 -13.9,36 l 62.7,141.5 c 6.1,13.7 22.2,19.9 35.9,13.8 13.8,-6 20,-22.1 13.9,-35.9 l -62.6,-141.5 c -4.5,-9.9 -14.1,-15.9 -24.3,-16.2"
         style="fill:#ffff29;fill-opacity:1;fill-rule:nonzero;stroke:none"
         id="path402"
         inkscape:connector-curvature="0" />
    </g>
    <g
       id="g404"
       transform="matrix(0.04579479,0,0,-0.04579479,-537.44559,707.24031)">
      <path
         d="m 16186.3,12189.8 c -3.9,0.4 -7.6,1.7 -11.1,3.8 -12.6,7.8 -16.5,24.3 -8.7,36.9 l 80.1,129.3 c 7.8,12.6 24.4,16.5 36.9,8.7 12.6,-7.8 16.5,-24.3 8.7,-36.9 l -80.1,-129.3 c -5.6,-9.1 -15.9,-13.7 -25.8,-12.5"
         style="fill:#e7314f;fill-opacity:1;fill-rule:nonzero;stroke:none"
         id="path406"
         inkscape:connector-curvature="0" />
    </g>
    <g
       id="g408"
       transform="matrix(0.04312567,0,0,-0.04312567,-537.44559,707.24031)">
      <path
         d="m 16299.7,13611.4 c -0.2,-4.1 -1.2,-8.2 -3.1,-12.1 -7.2,-14 -24.4,-19.5 -38.4,-12.4 l -143.7,73.8 c -14,7.1 -19.5,24.3 -12.4,38.3 7.2,14 24.4,19.5 38.4,12.3 l 143.7,-73.7 c 10.2,-5.2 15.8,-15.6 15.5,-26.2"
         style="fill:#c2fffb;fill-opacity:1;fill-rule:nonzero;stroke:none"
         id="path410"
         inkscape:connector-curvature="0" />
    </g>
    <g
       id="g412"
       transform="matrix(0.04230229,0,0,-0.04230229,-537.44559,707.24031)">
      <path
         d="m 16277.6,14038.7 c 3.9,-1.3 7.6,-3.6 10.7,-6.7 11.5,-11.2 11.7,-29.5 0.5,-41 l -115.2,-117.7 c -11.2,-11.5 -29.5,-11.7 -41.1,-0.4 -11.4,11.2 -11.5,29.5 -0.4,41 l 115.2,117.7 c 8.1,8.3 19.9,10.7 30.3,7.1"
         style="fill:#233efb;fill-opacity:1;fill-rule:nonzero;stroke:none"
         id="path414"
         inkscape:connector-curvature="0" />
    </g>
    <g
       id="g416"
       transform="matrix(0.03947795,0,0,-0.03947795,-537.44559,707.24031)">
      <path
         d="m 16131.3,14629.1 c -4.2,1.5 -8.2,3.9 -11.5,7.2 -12.3,12.1 -12.4,31.8 -0.2,44 l 124.2,125.3 c 12.1,12.2 31.8,12.3 44,0.2 12.1,-12.1 12.2,-31.8 0.1,-44 l -124.2,-125.3 c -8.7,-8.8 -21.4,-11.3 -32.4,-7.4"
         style="fill:#e7314f;fill-opacity:1;fill-rule:nonzero;stroke:none"
         id="path418"
         inkscape:connector-curvature="0" />
    </g>
    <g
       id="g420"
       transform="matrix(0.04020361,0,0,-0.04020361,-537.44559,707.24031)">
      <path
         d="m 16114.6,14667.2 c 1.5,4.1 3.8,8 7.2,11.3 11.8,12 31.1,12 43.2,0.2 l 123,-122 c 11.9,-11.9 12,-31.2 0.2,-43.2 -11.9,-12 -31.2,-12.1 -43.2,-0.2 l -123,122 c -8.7,8.6 -11.2,21.1 -7.4,31.9"
         style="fill:#ffff29;fill-opacity:1;fill-rule:nonzero;stroke:none"
         id="path422"
         inkscape:connector-curvature="0" />
    </g>
    <g
       id="g424"
       transform="matrix(0.04119174,0,0,-0.04119174,-537.44559,707.24031)">
      <path
         d="m 16287.1,14368 c -3.3,-2.7 -7.2,-4.7 -11.7,-5.8 -15.9,-4 -32.1,5.7 -36.1,21.7 l -41,164.1 c -3.9,16 5.8,32.1 21.8,36.1 15.9,4 32.1,-5.7 36.1,-21.7 l 40.9,-164.1 c 2.9,-11.5 -1.4,-23.2 -10,-30.3"
         style="fill:#233efb;fill-opacity:1;fill-rule:nonzero;stroke:none"
         id="path426"
         inkscape:connector-curvature="0" />
    </g>
    <g
       id="g428"
       transform="matrix(0.03783083,0,0,-0.03783083,-537.44559,707.24031)">
      <path
         d="m 16257.9,15333.5 c 4.5,0.9 9.4,0.9 14.2,-0.3 17.4,-4.4 27.9,-22 23.6,-39.4 l -44.8,-178.6 c -4.3,-17.4 -22,-28 -39.4,-23.6 -17.3,4.3 -27.9,22 -23.6,39.3 l 44.9,178.7 c 3,12.5 13.2,21.5 25.1,23.9"
         style="fill:#e7314f;fill-opacity:1;fill-rule:nonzero;stroke:none"
         id="path430"
         inkscape:connector-curvature="0" />
    </g>
    <g
       id="g432"
       transform="matrix(0.03804885,0,0,-0.03804885,-537.44559,707.24031)">
      <path
         d="m 16289.7,14778.8 c 3,-3.7 5.1,-8 6.2,-12.8 4.1,-17.3 -6.6,-34.7 -23.9,-38.8 l -178.2,-42.2 c -17.3,-4.1 -34.7,6.6 -38.9,24 -4,17.3 6.7,34.7 24.1,38.8 l 178.1,42.2 c 12.5,3 25.1,-1.8 32.6,-11.2"
         style="fill:#c2fffb;fill-opacity:1;fill-rule:nonzero;stroke:none"
         id="path434"
         inkscape:connector-curvature="0" />
    </g>
    <g
       id="g436"
       transform="matrix(0.03760858,0,0,-0.03760858,-537.44559,707.24031)">
      <path
         d="m 16296.6,14536.8 c -1.3,-4.5 -3.5,-8.8 -6.8,-12.5 -11.8,-13.6 -32.5,-15 -46.1,-3.1 l -139.4,122 c -13.5,11.9 -14.9,32.5 -3,46.1 11.8,13.5 32.5,14.9 46,3 l 139.5,-122 c 9.7,-8.6 13.2,-21.7 9.8,-33.5"
         style="fill:#c2fffb;fill-opacity:1;fill-rule:nonzero;stroke:none"
         id="path438"
         inkscape:connector-curvature="0" />
    </g>
    <g
       id="g440"
       transform="matrix(0.03675345,0,0,-0.03675345,-537.44559,707.24031)">
      <path
         d="m 16283.5,14631.6 c -4,-2.7 -8.6,-4.5 -13.6,-5.2 -18.4,-2.7 -35.3,10 -38,28.3 l -27,187.6 c -2.7,18.2 10,35.2 28.2,37.8 18.3,2.6 35.2,-10 37.9,-28.3 l 27.1,-187.6 c 1.9,-13.2 -4.1,-25.7 -14.6,-32.6"
         style="fill:#233efb;fill-opacity:1;fill-rule:nonzero;stroke:none"
         id="path442"
         inkscape:connector-curvature="0" />
    </g>
    <g
       id="g444"
       transform="matrix(0.03655765,0,0,-0.03655765,-537.44559,707.24031)">
      <path
         d="m 16256.4,14427.8 c 4.7,1 9.7,0.9 14.7,-0.3 18,-4.5 28.9,-22.8 24.4,-40.8 l -46.4,-184.8 c -4.5,-18 -22.7,-28.9 -40.7,-24.4 -18,4.5 -28.9,22.7 -24.4,40.7 l 46.3,184.9 c 3.3,13 13.7,22.3 26.1,24.7"
         style="fill:#e7314f;fill-opacity:1;fill-rule:nonzero;stroke:none"
         id="path446"
         inkscape:connector-curvature="0" />
    </g>
    <g
       id="g448"
       transform="matrix(0.03664832,0,0,-0.03664832,-537.44559,707.24031)">
      <path
         d="m 16289.3,13874.3 c 3,-3.7 5.2,-8.2 6.5,-13.2 4.2,-18 -7,-36 -25,-40.3 l -184.9,-43.8 c -18,-4.3 -36.1,6.9 -40.3,24.9 -4.3,17.9 6.8,36 24.8,40.3 l 185,43.8 c 13,3.1 26,-1.9 33.9,-11.7"
         style="fill:#c2fffb;fill-opacity:1;fill-rule:nonzero;stroke:none"
         id="path450"
         inkscape:connector-curvature="0" />
    </g>
    <g
       id="g452"
       transform="matrix(0.03669136,0,0,-0.03669136,-537.44559,707.24031)">
      <path
         d="m 16140.8,13150 c -4.6,1 -9.2,3 -13.3,6.1 -14.8,11.2 -17.7,32.1 -6.5,46.9 l 114.5,151.5 c 11,14.7 32.1,17.6 46.8,6.5 14.7,-11.2 17.7,-32.1 6.5,-46.9 l -114.5,-151.5 c -8,-10.6 -21.2,-15.1 -33.5,-12.6"
         style="fill:#ffff29;fill-opacity:1;fill-rule:nonzero;stroke:none"
         id="path454"
         inkscape:connector-curvature="0" />
    </g>
    <g
       id="g456"
       transform="matrix(0.03776063,0,0,-0.03776063,-537.44559,707.24031)">
      <path
         d="m 16059.1,12657.6 c -0.4,4.6 0.3,9.4 2.1,14.1 6.5,16.7 25.4,24.9 42.1,18.3 l 171.8,-67.6 c 16.7,-6.6 24.9,-25.4 18.3,-42.1 -6.6,-16.7 -25.4,-24.9 -42.2,-18.4 l -171.7,67.6 c -12,4.8 -19.7,15.9 -20.4,28.1"
         style="fill:#c2fffb;fill-opacity:1;fill-rule:nonzero;stroke:none"
         id="path458"
         inkscape:connector-curvature="0" />
    </g>
    <g
       id="g460"
       transform="matrix(0.03737328,0,0,-0.03737328,-537.44559,707.24031)">
      <path
         d="m 16281.6,13069.8 c -4.2,-2.1 -8.9,-3.3 -14,-3.5 -18.1,-0.4 -33.1,13.9 -33.7,32 l -4.8,186.4 c -0.5,18.1 13.9,33.2 32,33.6 18.1,0.5 33.2,-13.8 33.7,-31.9 l 4.8,-186.4 c 0.4,-13.1 -7.1,-24.6 -18,-30.2"
         style="fill:#e7314f;fill-opacity:1;fill-rule:nonzero;stroke:none"
         id="path462"
         inkscape:connector-curvature="0" />
    </g>
    <g
       id="g464"
       transform="matrix(0.03935448,0,0,-0.03935448,-537.44559,707.24031)">
      <path
         d="m 16189,11671.7 c 3.3,3 7.3,5.5 11.9,6.9 16.3,5.3 33.9,-3.6 39.2,-20 l 54.6,-168.4 c 5.3,-16.4 -3.7,-34 -20,-39.3 -16.4,-5.3 -34,3.7 -39.3,20 l -54.6,168.4 c -3.9,11.9 -0.2,24.4 8.2,32.4"
         style="fill:#233efb;fill-opacity:1;fill-rule:nonzero;stroke:none"
         id="path466"
         inkscape:connector-curvature="0" />
    </g>
    <g
       id="g468"
       transform="matrix(0.03847818,0,0,-0.03847818,-537.44559,707.24031)">
      <path
         d="m 16287.9,11964.7 c 3.1,-3.4 5.5,-7.5 7,-12.2 5.1,-16.8 -4.4,-34.6 -21.2,-39.8 l -173.2,-52.9 c -16.9,-5.2 -34.7,4.3 -39.8,21.2 -5.2,16.8 4.3,34.6 21.1,39.8 l 173.2,52.9 c 12.2,3.7 24.9,-0.2 32.9,-9"
         style="fill:#ffff29;fill-opacity:1;fill-rule:nonzero;stroke:none"
         id="path470"
         inkscape:connector-curvature="0" />
    </g>
    <g
       id="g472"
       transform="matrix(0.04300008,0,0,-0.04300008,-537.44559,707.24031)">
      <path
         d="m 16269.9,10228.9 c 4.1,-0.3 8.1,-1.6 11.9,-3.8 13.6,-7.9 18.2,-25.4 10.3,-39 l -81.6,-140 c -8,-13.6 -25.4,-18.2 -39.1,-10.2 -13.6,7.9 -18.2,25.4 -10.2,39 l 81.5,140 c 5.9,9.8 16.5,14.9 27.2,14"
         style="fill:#ffff29;fill-opacity:1;fill-rule:nonzero;stroke:none"
         id="path474"
         inkscape:connector-curvature="0" />
    </g>
    <g
       id="g476"
       transform="matrix(0.04149196,0,0,-0.04149196,-537.44559,707.24031)">
      <path
         d="m 16283.4,10556.1 c -3.8,-1.9 -8.1,-3.1 -12.6,-3.2 -16.3,-0.4 -29.9,12.5 -30.3,28.8 l -4.4,167.9 c -0.4,16.3 12.5,29.9 28.9,30.3 16.3,0.4 29.8,-12.5 30.2,-28.8 l 4.5,-167.8 c 0.3,-11.9 -6.4,-22.2 -16.3,-27.2"
         style="fill:#e7314f;fill-opacity:1;fill-rule:nonzero;stroke:none"
         id="path478"
         inkscape:connector-curvature="0" />
    </g>
    <g
       id="g480"
       transform="matrix(0.04292212,0,0,-0.04292212,-537.44559,707.24031)">
      <path
         d="m 16128.3,10565.7 c 1.4,3.8 3.7,7.4 6.8,10.5 11.3,11 29.4,10.8 40.5,-0.5 l 113.4,-116.1 c 11,-11.3 10.8,-29.4 -0.5,-40.5 -11.4,-11 -29.4,-10.8 -40.4,0.5 l -113.5,116.1 c -7.9,8.2 -10.1,19.9 -6.3,30"
         style="fill:#233efb;fill-opacity:1;fill-rule:nonzero;stroke:none"
         id="path482"
         inkscape:connector-curvature="0" />
    </g>
  </g>
</svg>
