<?xml version="1.0" encoding="UTF-8" standalone="no"?>
<!-- Created with Inkscape (http://www.inkscape.org/) -->

<svg
   xmlns:dc="http://purl.org/dc/elements/1.1/"
   xmlns:cc="http://creativecommons.org/ns#"
   xmlns:rdf="http://www.w3.org/1999/02/22-rdf-syntax-ns#"
   xmlns:svg="http://www.w3.org/2000/svg"
   xmlns="http://www.w3.org/2000/svg"
   xmlns:sodipodi="http://sodipodi.sourceforge.net/DTD/sodipodi-0.dtd"
   xmlns:inkscape="http://www.inkscape.org/namespaces/inkscape"
   width="200.00476mm"
   height="199.96675mm"
   viewBox="0 0 200.00476 199.96675"
   version="1.1"
   id="svg1139"
   sodipodi:docname="lightBlueDonut.svg"
   inkscape:version="0.92.5 (2060ec1f9f, 2020-04-08)">
  <defs
     id="defs1133" />
  <sodipodi:namedview
     id="base"
     pagecolor="#ffffff"
     bordercolor="#666666"
     borderopacity="1.0"
     inkscape:pageopacity="0.0"
     inkscape:pageshadow="2"
     inkscape:zoom="0.35"
     inkscape:cx="-38.96967"
     inkscape:cy="472.71493"
     inkscape:document-units="mm"
     inkscape:current-layer="layer1"
     showgrid="false"
     inkscape:window-width="1312"
     inkscape:window-height="704"
     inkscape:window-x="0"
     inkscape:window-y="27"
     inkscape:window-maximized="1"
     fit-margin-top="0"
     fit-margin-left="0"
     fit-margin-right="0"
     fit-margin-bottom="0" />
  <metadata
     id="metadata1136">
    <rdf:RDF>
      <cc:Work
         rdf:about="">
        <dc:format>image/svg+xml</dc:format>
        <dc:type
           rdf:resource="http://purl.org/dc/dcmitype/StillImage" />
        <dc:title></dc:title>
      </cc:Work>
    </rdf:RDF>
  </metadata>
  <g
     inkscape:label="Layer 1"
     inkscape:groupmode="layer"
     id="layer1"
     transform="translate(-20.194052,-74.552341)">
    <g
       id="g484"
       transform="matrix(0.05780581,0,0,-0.05780581,-802.72383,683.0518)">
      <path
         d="m 15984.7,9457.93 c 116,0 224.1,-33.58 315.3,-91.36 -108,121.61 -265.7,198.31 -441.1,198.31 -325.7,0 -589.8,-264.05 -589.8,-589.77 0,-209.79 109.7,-394.09 274.7,-498.64 -92.5,104.15 -148.8,241.43 -148.8,391.69 0,325.72 264,589.77 589.7,589.77"
         style="fill:#e6e6e6;fill-opacity:1;fill-rule:nonzero;stroke:none"
         id="path486"
         inkscape:connector-curvature="0" />
    </g>
    <g
       id="g488"
       transform="matrix(0.06275599,0,0,-0.06275599,-802.72383,683.0518)">
      <path
         d="m 15756.9,9157.83 c 216,-259.23 346,-592.77 346,-956.57 0,-825.67 -669.3,-1495.02 -1495,-1495.02 -361.7,0 -693.4,128.46 -951.9,342.22 274.2,-329.1 687.1,-538.6 1149,-538.6 825.7,0 1495,669.35 1495,1495.02 0,463.98 -211.4,878.73 -543.1,1152.95"
         style="fill:#e6e6e6;fill-opacity:1;fill-rule:nonzero;stroke:none"
         id="path490"
         inkscape:connector-curvature="0" />
    </g>
    <g
       id="g492"
       transform="matrix(0.06199752,0,0,-0.06199752,-802.72383,683.0518)">
      <path
         d="m 14786.7,7818.41 c -303.7,0 -549.9,246.2 -549.9,549.9 0,303.7 246.2,549.9 549.9,549.9 303.7,0 549.9,-246.2 549.9,-549.9 0,-303.7 -246.2,-549.9 -549.9,-549.9 z m 0,1996.49 c -835.8,0 -1513.3,-677.53 -1513.3,-1513.31 0,-835.78 677.5,-1513.31 1513.3,-1513.31 835.8,0 1513.3,677.53 1513.3,1513.31 0,835.78 -677.5,1513.31 -1513.3,1513.31"
         style="fill:#ffae75;fill-opacity:1;fill-rule:nonzero;stroke:none"
         id="path494"
         inkscape:connector-curvature="0" />
    </g>
    <g
       id="g496"
       transform="matrix(0.06199752,0,0,-0.06199752,-802.72383,683.0518)">
      <path
         d="m 16174.5,8905.78 c 3.5,-124.98 5.2,-674.16 -411.2,-1140.89 -85.5,-95.8 -379.4,-402.15 -862.2,-501.5 -830.2,-170.86 -1463.1,425.83 -1523.1,484.33 221,-561.8 768.4,-959.44 1408.7,-959.44 835.8,0 1513.3,677.53 1513.3,1513.31 0,214.81 -44.8,419.1 -125.5,604.19"
         style="fill:#ff9075;fill-opacity:1;fill-rule:nonzero;stroke:none"
         id="path498"
         inkscape:connector-curvature="0" />
    </g>
    <g
       id="g500"
       transform="matrix(0.061214,0,0,-0.061214,-802.72383,683.0518)">
      <path
         d="m 14975.9,7918.48 c -307.5,0 -556.9,249.35 -556.9,556.94 0,307.58 249.4,556.93 556.9,556.93 307.6,0 557,-249.35 557,-556.93 0,-307.59 -249.4,-556.94 -557,-556.94 z m 1298.5,775.21 c -33.9,129.06 -154.1,176.91 -166.1,181.43 v 0 c -32.8,23.47 -89.2,70.38 -133.3,148.38 -41.5,73.66 -53.3,142.11 -57.2,181.63 v 0 c 13,98.43 -27.1,196.07 -105.1,254.73 -109.2,82.11 -234.8,44.46 -246.9,40.62 v 0 c -42,-1.86 -113.3,0.31 -194.6,30.42 -78.6,29.1 -132.9,71.82 -163.5,99.91 v 0 c -10.2,12.19 -98.6,114.2 -242.4,108.12 -128.9,-5.45 -205,-93.65 -217,-108.12 v 0 c -20.2,-25.54 -71.1,-82.72 -158.4,-115.14 -89.9,-33.35 -167.9,-21.75 -199.7,-15.19 v 0 c -17.6,2.56 -147.1,19.09 -251.9,-76.14 -94.3,-85.66 -99.5,-199.02 -100.1,-219.21 v 0 c 1.1,-33.15 -1.1,-104.79 -42,-181.63 -47.6,-89.39 -119.6,-132.9 -148.5,-148.38 v 0 c -94.3,-32.34 -162.7,-114.46 -176.2,-211.87 -20,-143.59 90.7,-236.07 96.4,-240.62 v 0 c 22.4,-26.61 63.5,-82.66 81.1,-165.3 21,-97.9 -3,-177.14 -14.9,-209.98 v -0.01 c -4.9,-9.17 -68,-131.75 -0.3,-256.82 72.2,-133.37 223.4,-140.88 230,-141.09 v 0 c 31.5,-4.02 115.2,-18.96 191.2,-87.24 65.5,-58.88 91.2,-126.8 100.7,-157.7 v -0.01 c 7.1,-17.23 56.9,-133.07 188.5,-177.17 122.8,-41.17 225.6,10.73 243.3,20.03 v 0 c 43.3,14.32 108.1,30.37 188,30.71 82.3,0.34 149.1,-16.17 193,-30.71 v 0 c 17.3,-8.35 140.9,-65.7 273.8,-4.81 104.4,47.88 147.5,138.12 158,161.95 v 0.01 c 10.5,31.04 39.3,102.34 110.9,162.77 72.5,61.16 148.7,77.23 181,82.17 v 0 c 15.5,3.18 157.1,34.78 219.9,171.53 48.4,105.76 17.5,204.02 9.9,226.38 v 0.01 c -11.1,36.77 -28.4,112.3 -9.9,204.9 16.4,82.26 53.5,140.27 76,170.38 v 0 c 78.3,68.35 111.9,173.68 86.3,271.06"
         style="fill:#2edeea;fill-opacity:1;fill-rule:nonzero;stroke:none"
         id="path502"
         inkscape:connector-curvature="0" />
    </g>
    <g
       id="g504"
       transform="matrix(0.05924409,0,0,-0.05924409,-802.72383,683.0518)">
      <path
         d="m 15473.9,8181.78 c -317.8,0 -575.4,257.64 -575.4,575.45 0,317.82 257.6,575.46 575.4,575.46 317.8,0 575.5,-257.64 575.5,-575.46 0,-317.81 -257.7,-575.45 -575.5,-575.45 z m 0,1401.51 c -456.2,0 -826,-369.84 -826,-826.06 0,-456.21 369.8,-826.05 826,-826.05 456.3,0 826.1,369.84 826.1,826.05 0,456.22 -369.8,826.06 -826.1,826.06"
         style="fill:#7cdbf7;fill-opacity:1;fill-rule:nonzero;stroke:none"
         id="path506"
         inkscape:connector-curvature="0" />
    </g>
    <g
       id="g508"
       transform="matrix(0.06018177,0,0,-0.06018177,-802.72383,683.0518)">
      <path
         d="m 16265,8559.54 c 8.2,65.32 35,279.88 -90.6,459.22 -64.7,92.38 -92.6,65.1 -253.8,211.49 -188.7,171.33 -182.3,237.58 -314.2,302.13 -24.6,12.02 -214.4,104.91 -326.3,18.12 -38.8,-30.1 -70.9,-83.9 -66.5,-138.97 4,-48.32 36.2,-99.62 142.8,-163.15 200.8,-119.73 321.4,-77.64 437.3,-132.94 324.4,-154.74 222.9,-886.74 332.3,-894.28 58.3,-4.02 121.8,201.11 139,338.38"
         style="fill:#95eaf1;fill-opacity:1;fill-rule:nonzero;stroke:none"
         id="path510"
         inkscape:connector-curvature="0" />
    </g>
    <g
       id="g512"
       transform="matrix(0.05500017,0,0,-0.05500017,-802.72383,683.0518)">
      <path
         d="m 16260.8,10040.4 c -11.9,72.3 -272.8,108.9 -462.4,-35.9 -125.4,-95.92 -231.7,-180.5 -260.9,-300.92 -21,-86.6 5.8,-150.46 22.9,-218.62 107.5,-428.32 -144.8,-725.32 -4.5,-841.31 69.2,-57.21 180.9,-26.52 229.2,-13.23 129.7,35.65 231.6,143.13 265.4,259.68 44.9,155.09 -34.3,313.86 -97.9,441.17 -77.5,155.37 -176.6,260.82 -132.8,368.07 7.8,19.07 15.1,33.22 27.1,43.68 158.7,138.65 453.1,59.32 413.9,297.38"
         style="fill:#95eaf1;fill-opacity:1;fill-rule:nonzero;stroke:none"
         id="path514"
         inkscape:connector-curvature="0" />
    </g>
    <g
       id="g516"
       transform="matrix(0.05854171,0,0,-0.05854171,-802.72383,683.0518)">
      <path
         d="m 16225.9,8029.11 c -11.9,59.98 -140.9,212.31 -347.9,133.07 -207.1,-79.23 -336.3,-356.7 -600.9,-199.33 -264.6,157.36 -175.2,-153.95 0,-240.19 175.3,-86.24 276.5,165.65 391.1,161.51 114.6,-4.14 631.8,-229.45 557.7,144.94"
         style="fill:#95eaf1;fill-opacity:1;fill-rule:nonzero;stroke:none"
         id="path518"
         inkscape:connector-curvature="0" />
    </g>
    <g
       id="g520"
       transform="matrix(0.05839636,0,0,-0.05839636,-802.72383,683.0518)">
      <path
         d="m 16299.2,9531.95 c -1.1,27.21 -193.3,-8.59 -278,105.61 -35.8,48.32 -32.9,97.28 -93.4,143.23 -17.1,13.07 -60,45.63 -101.9,32.67 -42.8,-13.21 -66.5,-69.01 -68.3,-113.62 -3.8,-97.31 143.3,-179.78 251.2,-207.58 148,-38.11 291.2,16.17 290.4,39.69"
         style="fill:#caf6fe;fill-opacity:1;fill-rule:nonzero;stroke:none"
         id="path522"
         inkscape:connector-curvature="0" />
    </g>
    <g
       id="g524"
       transform="matrix(0.05773561,0,0,-0.05773561,-802.72383,683.0518)">
      <path
         d="m 16264.4,8205.78 c -49.6,45.38 -124.1,38.01 -152.7,33.06 -108,-18.66 -196.1,-112.47 -182.7,-140.13 12.1,-24.78 112.1,-10 178,14.16 32.5,11.96 40.3,20.17 72.4,26.77 63.2,13.01 104.5,-4.2 113.4,12.6 7.2,13.78 -13.1,39.53 -28.4,53.54"
         style="fill:#caf6fe;fill-opacity:1;fill-rule:nonzero;stroke:none"
         id="path526"
         inkscape:connector-curvature="0" />
    </g>
    <g
       id="g528"
       transform="matrix(0.0535312,0,0,-0.0535312,-802.72383,683.0518)">
      <path
         d="m 16259.1,9249.96 c 40.9,135.36 2.7,261.27 -11.3,303.43 -41.6,125.44 -127.5,244.64 -156.2,233.24 -29,-11.48 30.1,-143.35 9,-371.37 -7.2,-78.29 -22.7,-154.77 -27.2,-176.62 -37.3,-182.51 -81.9,-258.1 -49.8,-285.31 24,-20.31 80.1,3.23 111,29.44 30.3,25.71 37.4,55.1 58.8,113.21 39.2,106.16 49.5,100.37 65.7,153.98"
         style="fill:#caf6fe;fill-opacity:1;fill-rule:nonzero;stroke:none"
         id="path530"
         inkscape:connector-curvature="0" />
    </g>
    <g
       id="g532"
       transform="matrix(0.05350545,0,0,-0.05350545,-802.72383,683.0518)">
      <path
         d="m 16300,10703.7 c 0,-31.1 -25.2,-56.2 -56.2,-56.2 -31,0 -56.2,25.1 -56.2,56.2 0,31 25.2,56.2 56.2,56.2 31,0 56.2,-25.2 56.2,-56.2"
         style="fill:#d7f6fe;fill-opacity:1;fill-rule:nonzero;stroke:none"
         id="path534"
         inkscape:connector-curvature="0" />
    </g>
    <g
       id="g536"
       transform="matrix(0.05518573,0,0,-0.05518573,-802.72383,683.0518)">
      <path
         d="m 16300,10323.3 c 0,-19.5 -15.8,-35.3 -35.3,-35.3 -19.4,0 -35.3,15.8 -35.3,35.3 0,19.5 15.9,35.3 35.3,35.3 19.5,0 35.3,-15.8 35.3,-35.3"
         style="fill:#d7f6fe;fill-opacity:1;fill-rule:nonzero;stroke:none"
         id="path538"
         inkscape:connector-curvature="0" />
    </g>
    <g
       id="g540"
       transform="matrix(0.05414998,0,0,-0.05414998,-802.72383,683.0518)">
      <path
         d="m 16300,10379 c 0,-30.6 -24.8,-55.5 -55.5,-55.5 -30.7,0 -55.6,24.9 -55.6,55.5 0,30.7 24.9,55.6 55.6,55.6 30.7,0 55.5,-24.9 55.5,-55.6"
         style="fill:#d7f6fe;fill-opacity:1;fill-rule:nonzero;stroke:none"
         id="path542"
         inkscape:connector-curvature="0" />
    </g>
    <g
       id="g544"
       transform="matrix(0.05591457,0,0,-0.05591457,-802.72383,683.0518)">
      <path
         d="m 16300,10458.3 c 0,-29.7 -24.1,-53.8 -53.8,-53.8 -29.7,0 -53.8,24.1 -53.8,53.8 0,29.7 24.1,53.7 53.8,53.7 29.7,0 53.8,-24 53.8,-53.7"
         style="fill:#d7f6fe;fill-opacity:1;fill-rule:nonzero;stroke:none"
         id="path546"
         inkscape:connector-curvature="0" />
    </g>
    <g
       id="g548"
       transform="matrix(0.05344054,0,0,-0.05344054,-802.72383,683.0518)">
      <path
         d="m 16300,10542.5 c 0,-20.1 -16.3,-36.5 -36.4,-36.5 -20.1,0 -36.5,16.4 -36.5,36.5 0,20.1 16.4,36.4 36.5,36.4 20.1,0 36.4,-16.3 36.4,-36.4"
         style="fill:#d7f6fe;fill-opacity:1;fill-rule:nonzero;stroke:none"
         id="path550"
         inkscape:connector-curvature="0" />
    </g>
    <g
       id="g552"
       transform="matrix(0.05664411,0,0,-0.05664411,-802.72383,683.0518)">
      <path
         d="m 16300,10342.3 c 0,-19 -15.4,-34.4 -34.4,-34.4 -18.9,0 -34.4,15.4 -34.4,34.4 0,19 15.5,34.4 34.4,34.4 19,0 34.4,-15.4 34.4,-34.4"
         style="fill:#d7f6fe;fill-opacity:1;fill-rule:nonzero;stroke:none"
         id="path554"
         inkscape:connector-curvature="0" />
    </g>
    <g
       id="g556"
       transform="matrix(0.05857769,0,0,-0.05857769,-802.72383,683.0518)">
      <path
         d="m 16300,9811.02 c 0,-28.35 -22.9,-51.34 -51.3,-51.34 -28.4,0 -51.4,22.99 -51.4,51.34 0,28.35 23,51.34 51.4,51.34 28.4,0 51.3,-22.99 51.3,-51.34"
         style="fill:#d7f6fe;fill-opacity:1;fill-rule:nonzero;stroke:none"
         id="path558"
         inkscape:connector-curvature="0" />
    </g>
    <g
       id="g560"
       transform="matrix(0.05924409,0,0,-0.05924409,-802.72383,683.0518)">
      <path
         d="m 16300,9453.73 c 0,-18.15 -14.7,-32.87 -32.9,-32.87 -18.1,0 -32.8,14.72 -32.8,32.87 0,18.16 14.7,32.87 32.8,32.87 18.2,0 32.9,-14.71 32.9,-32.87"
         style="fill:#d7f6fe;fill-opacity:1;fill-rule:nonzero;stroke:none"
         id="path562"
         inkscape:connector-curvature="0" />
    </g>
    <g
       id="g564"
       transform="matrix(0.059309,0,0,-0.059309,-802.72383,683.0518)">
      <path
         d="m 16300,9639.37 c 0,-28.01 -22.7,-50.71 -50.7,-50.71 -28,0 -50.7,22.7 -50.7,50.71 0,28.01 22.7,50.71 50.7,50.71 28,0 50.7,-22.7 50.7,-50.71"
         style="fill:#d7f6fe;fill-opacity:1;fill-rule:nonzero;stroke:none"
         id="path566"
         inkscape:connector-curvature="0" />
    </g>
    <g
       id="g568"
       transform="matrix(0.06078714,0,0,-0.06078714,-802.72383,683.0518)">
      <path
         d="m 16300,8619.06 c 0,-27.32 -22.1,-49.48 -49.4,-49.48 -27.4,0 -49.5,22.16 -49.5,49.48 0,27.32 22.1,49.47 49.5,49.47 27.3,0 49.4,-22.15 49.4,-49.47"
         style="fill:#d7f6fe;fill-opacity:1;fill-rule:nonzero;stroke:none"
         id="path570"
         inkscape:connector-curvature="0" />
    </g>
    <g
       id="g572"
       transform="matrix(0.06090673,0,0,-0.06090673,-802.72383,683.0518)">
      <path
         d="m 16300,8728.74 c 0,-17.67 -14.3,-31.98 -32,-31.98 -17.6,0 -31.9,14.31 -31.9,31.98 0,17.65 14.3,31.97 31.9,31.97 17.7,0 32,-14.32 32,-31.97"
         style="fill:#d7f6fe;fill-opacity:1;fill-rule:nonzero;stroke:none"
         id="path574"
         inkscape:connector-curvature="0" />
    </g>
    <g
       id="g576"
       transform="matrix(0.06041813,0,0,-0.06041813,-802.72383,683.0518)">
      <path
         d="m 16300,8933.85 c 0,-27.49 -22.2,-49.77 -49.7,-49.77 -27.5,0 -49.9,22.28 -49.9,49.77 0,27.5 22.4,49.78 49.9,49.78 27.5,0 49.7,-22.28 49.7,-49.78"
         style="fill:#d7f6fe;fill-opacity:1;fill-rule:nonzero;stroke:none"
         id="path578"
         inkscape:connector-curvature="0" />
    </g>
    <g
       id="g580"
       transform="matrix(0.05877948,0,0,-0.05877948,-802.72383,683.0518)">
      <path
         d="m 16300,8168.32 c 0,-28.25 -22.9,-51.16 -51.2,-51.16 -28.2,0 -51.1,22.91 -51.1,51.16 0,28.26 22.9,51.17 51.1,51.17 28.3,0 51.2,-22.91 51.2,-51.17"
         style="fill:#d7f6fe;fill-opacity:1;fill-rule:nonzero;stroke:none"
         id="path582"
         inkscape:connector-curvature="0" />
    </g>
    <g
       id="g584"
       transform="matrix(0.06041813,0,0,-0.06041813,-802.72383,683.0518)">
      <path
         d="m 16300,8052.12 c 0,-27.49 -22.2,-49.78 -49.7,-49.78 -27.5,0 -49.9,22.29 -49.9,49.78 0,27.49 22.4,49.77 49.9,49.77 27.5,0 49.7,-22.28 49.7,-49.77"
         style="fill:#d7f6fe;fill-opacity:1;fill-rule:nonzero;stroke:none"
         id="path586"
         inkscape:connector-curvature="0" />
    </g>
    <g
       id="g588"
       transform="matrix(0.05819951,0,0,-0.05819951,-802.72383,683.0518)">
      <path
         d="m 16300,7749.96 c 0,-28.54 -23.2,-51.68 -51.7,-51.68 -28.6,0 -51.6,23.14 -51.6,51.68 0,28.54 23,51.67 51.6,51.67 28.5,0 51.7,-23.13 51.7,-51.67"
         style="fill:#d7f6fe;fill-opacity:1;fill-rule:nonzero;stroke:none"
         id="path590"
         inkscape:connector-curvature="0" />
    </g>
    <g
       id="g592"
       transform="matrix(0.0564261,0,0,-0.0564261,-802.72383,683.0518)">
      <path
         d="m 16300,8079 c 0,-29.43 -23.9,-53.3 -53.3,-53.3 -29.5,0 -53.3,23.87 -53.3,53.3 0,29.44 23.8,53.3 53.3,53.3 29.4,0 53.3,-23.86 53.3,-53.3"
         style="fill:#d7f6fe;fill-opacity:1;fill-rule:nonzero;stroke:none"
         id="path594"
         inkscape:connector-curvature="0" />
    </g>
    <g
       id="g596"
       transform="matrix(0.05706604,0,0,-0.05706604,-802.72383,683.0518)">
      <path
         d="m 16300,7883 c 0,-29.11 -23.6,-52.7 -52.7,-52.7 -29.1,0 -52.7,23.59 -52.7,52.7 0,29.1 23.6,52.7 52.7,52.7 29.1,0 52.7,-23.6 52.7,-52.7"
         style="fill:#d7f6fe;fill-opacity:1;fill-rule:nonzero;stroke:none"
         id="path598"
         inkscape:connector-curvature="0" />
    </g>
    <g
       id="g600"
       transform="matrix(0.05433448,0,0,-0.05433448,-802.72383,683.0518)">
      <path
         d="m 16300,8715.71 c 0,-30.57 -24.8,-55.35 -55.4,-55.35 -30.6,0 -55.3,24.78 -55.3,55.35 0,30.57 24.7,55.35 55.3,55.35 30.6,0 55.4,-24.78 55.4,-55.35"
         style="fill:#d7f6fe;fill-opacity:1;fill-rule:nonzero;stroke:none"
         id="path602"
         inkscape:connector-curvature="0" />
    </g>
    <g
       id="g604"
       transform="matrix(0.05202731,0,0,-0.05202731,-802.72383,683.0518)">
      <path
         d="m 16300,10070.3 c 0,-31.9 -25.9,-57.8 -57.8,-57.8 -32,0 -57.8,25.9 -57.8,57.8 0,31.9 25.8,57.8 57.8,57.8 31.9,0 57.8,-25.9 57.8,-57.8"
         style="fill:#d7f6fe;fill-opacity:1;fill-rule:nonzero;stroke:none"
         id="path606"
         inkscape:connector-curvature="0" />
    </g>
    <g
       id="g608"
       transform="matrix(0.05239632,0,0,-0.05239632,-802.72383,683.0518)">
      <path
         d="m 16300,9844.34 c 0,-31.7 -25.7,-57.4 -57.4,-57.4 -31.7,0 -57.4,25.7 -57.4,57.4 0,31.7 25.7,57.4 57.4,57.4 31.7,0 57.4,-25.7 57.4,-57.4"
         style="fill:#d7f6fe;fill-opacity:1;fill-rule:nonzero;stroke:none"
         id="path610"
         inkscape:connector-curvature="0" />
    </g>
    <g
       id="g612"
       transform="matrix(0.05936333,0,0,-0.05936333,-802.72383,683.0518)">
      <path
         d="m 16300,8281.54 c 0,-18.12 -14.7,-32.81 -32.8,-32.81 -18.1,0 -32.8,14.69 -32.8,32.81 0,18.11 14.7,32.79 32.8,32.79 18.1,0 32.8,-14.68 32.8,-32.79"
         style="fill:#d7f6fe;fill-opacity:1;fill-rule:nonzero;stroke:none"
         id="path614"
         inkscape:connector-curvature="0" />
    </g>
    <g
       id="g616"
       transform="matrix(0.05985969,0,0,-0.05985969,-802.72383,683.0518)">
      <path
         d="m 16300,8071.16 c 0,-17.96 -14.6,-32.53 -32.5,-32.53 -18,0 -32.6,14.57 -32.6,32.53 0,17.97 14.6,32.53 32.6,32.53 17.9,0 32.5,-14.56 32.5,-32.53"
         style="fill:#d7f6fe;fill-opacity:1;fill-rule:nonzero;stroke:none"
         id="path618"
         inkscape:connector-curvature="0" />
    </g>
    <g
       id="g620"
       transform="matrix(0.05883381,0,0,-0.05883381,-802.72383,683.0518)">
      <path
         d="m 16300,8011.85 c 0,-18.28 -14.8,-33.09 -33.1,-33.09 -18.2,0 -33.1,14.81 -33.1,33.09 0,18.28 14.9,33.1 33.1,33.1 18.3,0 33.1,-14.82 33.1,-33.1"
         style="fill:#d7f6fe;fill-opacity:1;fill-rule:nonzero;stroke:none"
         id="path622"
         inkscape:connector-curvature="0" />
    </g>
    <g
       id="g624"
       transform="matrix(0.06035322,0,0,-0.06035322,-802.72383,683.0518)">
      <path
         d="m 16300,8439.6 c 0,-17.82 -14.4,-32.26 -32.3,-32.26 -17.8,0 -32.2,14.44 -32.2,32.26 0,17.82 14.4,32.27 32.2,32.27 17.9,0 32.3,-14.45 32.3,-32.27"
         style="fill:#d7f6fe;fill-opacity:1;fill-rule:nonzero;stroke:none"
         id="path626"
         inkscape:connector-curvature="0" />
    </g>
    <g
       id="g628"
       transform="matrix(0.05997928,0,0,-0.05997928,-802.72383,683.0518)">
      <path
         d="m 16300,9140.73 c 0,-17.92 -14.5,-32.47 -32.5,-32.47 -17.9,0 -32.4,14.55 -32.4,32.47 0,17.93 14.5,32.47 32.4,32.47 18,0 32.5,-14.54 32.5,-32.47"
         style="fill:#d7f6fe;fill-opacity:1;fill-rule:nonzero;stroke:none"
         id="path630"
         inkscape:connector-curvature="0" />
    </g>
    <g
       id="g632"
       transform="matrix(0.05518573,0,0,-0.05518573,-802.72383,683.0518)">
      <path
         d="m 16300,8097.1 c 0,-19.49 -15.8,-35.29 -35.3,-35.29 -19.4,0 -35.3,15.8 -35.3,35.29 0,19.48 15.9,35.28 35.3,35.28 19.5,0 35.3,-15.8 35.3,-35.28"
         style="fill:#d7f6fe;fill-opacity:1;fill-rule:nonzero;stroke:none"
         id="path634"
         inkscape:connector-curvature="0" />
    </g>
    <g
       id="g636"
       transform="matrix(0.05518573,0,0,-0.05518573,-802.72383,683.0518)">
      <path
         d="m 16300,8506.2 c 0,-19.49 -15.8,-35.28 -35.3,-35.28 -19.4,0 -35.3,15.79 -35.3,35.28 0,19.48 15.9,35.29 35.3,35.29 19.5,0 35.3,-15.81 35.3,-35.29"
         style="fill:#d7f6fe;fill-opacity:1;fill-rule:nonzero;stroke:none"
         id="path638"
         inkscape:connector-curvature="0" />
    </g>
    <g
       id="g640"
       transform="matrix(0.05373052,0,0,-0.05373052,-802.72383,683.0518)">
      <path
         d="m 16300,8757.72 c 0,-20.01 -16.2,-36.24 -36.2,-36.24 -20,0 -36.3,16.23 -36.3,36.24 0,20.02 16.3,36.24 36.3,36.24 20,0 36.2,-16.22 36.2,-36.24"
         style="fill:#d7f6fe;fill-opacity:1;fill-rule:nonzero;stroke:none"
         id="path642"
         inkscape:connector-curvature="0" />
    </g>
    <g
       id="g644"
       transform="matrix(0.05251556,0,0,-0.05251556,-802.72383,683.0518)">
      <path
         d="m 16300,9662.09 c 0,-20.48 -16.6,-37.08 -37.1,-37.08 -20.5,0 -37.1,16.6 -37.1,37.08 0,20.48 16.6,37.08 37.1,37.08 20.5,0 37.1,-16.6 37.1,-37.08"
         style="fill:#d7f6fe;fill-opacity:1;fill-rule:nonzero;stroke:none"
         id="path646"
         inkscape:connector-curvature="0" />
    </g>
    <g
       id="g648"
       transform="matrix(0.05251556,0,0,-0.05251556,-802.72383,683.0518)">
      <path
         d="m 16300,10335.5 c 0,-20.5 -16.6,-37.1 -37.1,-37.1 -20.5,0 -37.1,16.6 -37.1,37.1 0,20.5 16.6,37.1 37.1,37.1 20.5,0 37.1,-16.6 37.1,-37.1"
         style="fill:#d7f6fe;fill-opacity:1;fill-rule:nonzero;stroke:none"
         id="path650"
         inkscape:connector-curvature="0" />
    </g>
    <g
       id="g652"
       transform="matrix(0.05208164,0,0,-0.05208164,-802.72383,683.0518)">
      <path
         d="m 16300,10245.2 c 0,-20.6 -16.7,-37.4 -37.4,-37.4 -20.6,0 -37.4,16.8 -37.4,37.4 0,20.7 16.8,37.4 37.4,37.4 20.7,0 37.4,-16.7 37.4,-37.4"
         style="fill:#d7f6fe;fill-opacity:1;fill-rule:nonzero;stroke:none"
         id="path654"
         inkscape:connector-curvature="0" />
    </g>
    <g
       id="g656"
       transform="matrix(0.05472853,0,0,-0.05472853,-802.72383,683.0518)">
      <path
         d="m 16300,10556 c 0,-19.6 -15.9,-35.5 -35.6,-35.5 -19.6,0 -35.6,15.9 -35.6,35.5 0,19.7 16,35.6 35.6,35.6 19.7,0 35.6,-15.9 35.6,-35.6"
         style="fill:#d7f6fe;fill-opacity:1;fill-rule:nonzero;stroke:none"
         id="path658"
         inkscape:connector-curvature="0" />
    </g>
  </g>
</svg>
