<?xml version="1.0" encoding="UTF-8" standalone="no"?>
<!-- Created with Inkscape (http://www.inkscape.org/) -->

<svg
   xmlns:dc="http://purl.org/dc/elements/1.1/"
   xmlns:cc="http://creativecommons.org/ns#"
   xmlns:rdf="http://www.w3.org/1999/02/22-rdf-syntax-ns#"
   xmlns:svg="http://www.w3.org/2000/svg"
   xmlns="http://www.w3.org/2000/svg"
   xmlns:sodipodi="http://sodipodi.sourceforge.net/DTD/sodipodi-0.dtd"
   xmlns:inkscape="http://www.inkscape.org/namespaces/inkscape"
   width="200.00475mm"
   height="199.96941mm"
   viewBox="0 0 200.00475 199.96941"
   version="1.1"
   id="svg1139"
   inkscape:version="0.92.5 (2060ec1f9f, 2020-04-08)"
   sodipodi:docname="orangeDonut.svg">
  <defs
     id="defs1133" />
  <sodipodi:namedview
     id="base"
     pagecolor="#ffffff"
     bordercolor="#666666"
     borderopacity="1.0"
     inkscape:pageopacity="0.0"
     inkscape:pageshadow="2"
     inkscape:zoom="0.35"
     inkscape:cx="193.6752"
     inkscape:cy="322.66037"
     inkscape:document-units="mm"
     inkscape:current-layer="layer1"
     showgrid="false"
     fit-margin-top="0"
     fit-margin-left="0"
     fit-margin-right="0"
     fit-margin-bottom="0"
     inkscape:window-width="1312"
     inkscape:window-height="704"
     inkscape:window-x="0"
     inkscape:window-y="27"
     inkscape:window-maximized="1" />
  <metadata
     id="metadata1136">
    <rdf:RDF>
      <cc:Work
         rdf:about="">
        <dc:format>image/svg+xml</dc:format>
        <dc:type
           rdf:resource="http://purl.org/dc/dcmitype/StillImage" />
        <dc:title></dc:title>
      </cc:Work>
    </rdf:RDF>
  </metadata>
  <g
     inkscape:label="Layer 1"
     inkscape:groupmode="layer"
     id="layer1"
     transform="translate(-39.09286,-87.4022)">
    <path
       d="m 140.18578,149.17797 c 6.70278,0 12.954,1.94381 18.22802,5.28109 -6.24769,-7.02734 -15.35994,-11.46175 -25.5023,-11.46175 -18.82775,0 -34.088914,15.26469 -34.088914,34.09244 0,12.12497 6.339414,22.77886 15.875004,28.82547 -5.34811,-6.02192 -8.60425,-13.95941 -8.60425,-22.6448 0,-18.82775 15.26469,-34.09245 34.09244,-34.09245"
       style="fill:#e6e6e6;fill-opacity:1;fill-rule:nonzero;stroke:none;stroke-width:0.03527778"
       id="path62"
       inkscape:connector-curvature="0"
       inkscape:transform-center-x="11.232994"
       inkscape:transform-center-y="-9.1508664" />
    <path
       d="m 205.01928,121.19564 c 13.55372,16.26658 21.70994,37.19689 21.70994,60.02867 0,51.81599 -42.00525,93.82124 -93.82124,93.82124 -22.69773,0 -43.511614,-8.06097 -59.739039,-21.47711 17.211675,20.65514 43.123199,33.80317 72.107419,33.80317 51.816,0 93.82125,-42.00878 93.82125,-93.82125 0,-29.11828 -13.26445,-55.14622 -34.07833,-72.35472"
       style="fill:#e6e6e6;fill-opacity:1;fill-rule:nonzero;stroke:none;stroke-width:0.03527778"
       id="path64"
       inkscape:connector-curvature="0"
       inkscape:transform-center-x="-16.282088"
       inkscape:transform-center-y="20.676494" />
    <g
       id="g66"
       transform="matrix(0.0373313,0,0,-0.0373313,-263.52959,695.90239)"
       inkscape:transform-center-x="6.9373039"
       inkscape:transform-center-y="-2.3839082">
      <path
         d="m 10619.6,12984.4 c -504.4,0 -913.17,408.8 -913.17,913.2 0,504.4 408.77,913.2 913.17,913.2 504.4,0 913.2,-408.8 913.2,-913.2 0,-504.4 -408.8,-913.2 -913.2,-913.2 z m 0,3315.6 c -1387.99,0 -2513.2,-1125.2 -2513.2,-2513.2 0,-1388 1125.21,-2513.2 2513.2,-2513.2 1388,0 2513.2,1125.2 2513.2,2513.2 0,1388 -1125.2,2513.2 -2513.2,2513.2"
         style="fill:#ffae75;fill-opacity:1;fill-rule:nonzero;stroke:none"
         id="path68"
         inkscape:connector-curvature="0" />
    </g>
    <path
       d="m 218.95047,143.76636 c 0.21872,7.75053 0.32456,41.79711 -25.49172,70.73194 -5.2952,5.94078 -23.52322,24.93434 -53.45289,31.09384 -51.470978,10.59391 -90.708686,-26.40189 -94.430491,-30.02845 13.705064,34.82975 47.64158,59.48186 87.336131,59.48186 51.816,0 93.82125,-42.00172 93.82125,-93.82124 0,-13.31737 -2.77989,-25.98209 -7.78228,-37.45795"
       style="fill:#ff9075;fill-opacity:1;fill-rule:nonzero;stroke:none;stroke-width:0.03527778"
       id="path70"
       inkscape:connector-curvature="0"
       inkscape:transform-center-x="3.6971278"
       inkscape:transform-center-y="25.798824" />
    <g
       id="g72"
       transform="matrix(0.03722582,0,0,-0.03722582,-263.52959,695.90239)"
       inkscape:transform-center-x="49.973322"
       inkscape:transform-center-y="-38.232248">
      <path
         d="m 9969.81,16137.8 c -178.82,-48.1 -794.51,-273.5 -1094.09,-794.5 -299.57,-521 -19.53,-638.3 -104.19,-989.9 -84.67,-351.7 -442.86,-579.6 -371.22,-859.7 71.64,-280 683.92,41.5 677.72,693 -6.2,651.5 530.43,1228.2 530.43,1228.2 0,0 976.54,305.4 986.54,449.4 10,143.9 -22,435.7 -625.19,273.5"
         style="fill:#ffd080;fill-opacity:1;fill-rule:nonzero;stroke:none"
         id="path74"
         inkscape:connector-curvature="0" />
    </g>
    <g
       id="g76"
       transform="matrix(0.03695135,0,0,-0.03695135,-263.52959,695.90239)"
       inkscape:transform-center-x="-32.32555"
       inkscape:transform-center-y="-76.181769">
      <path
         d="m 11260.7,16011.1 c 23.9,-24.7 96.9,-93.7 305.2,-140.7 247,-55.6 287,9.2 452.4,-37.4 258.3,-72.6 378.7,-291.5 413.7,-264.4 25.9,20.2 -23.4,154.1 -111.6,262.5 -137.2,168.7 -374.1,282.4 -610.2,282.1 -148.9,-0.2 -202,-45.6 -318.4,-2.3 -151.2,56.2 -212.9,189.1 -239.2,172.9 -26.3,-16.2 5.5,-166.6 108.1,-272.7"
         style="fill:#ffd080;fill-opacity:1;fill-rule:nonzero;stroke:none"
         id="path78"
         inkscape:connector-curvature="0" />
    </g>
    <g
       id="g80"
       transform="matrix(0.03659681,0,0,-0.03659681,-263.52959,695.90239)"
       inkscape:transform-center-x="6.9402152"
       inkscape:transform-center-y="-6.5157768">
      <path
         d="m 10832.6,13244.9 c -514.4,0 -931.44,417 -931.44,931.5 0,514.5 417.04,931.6 931.44,931.6 514.6,0 931.6,-417.1 931.6,-931.6 0,-514.5 -417,-931.5 -931.6,-931.5 z m 2171.9,1296.6 c -56.7,215.9 -257.7,295.9 -277.7,303.5 v 0 c -54.9,39.2 -149.4,117.7 -223,248.2 -69.5,123.2 -89.2,237.7 -95.8,303.8 h 0.1 c 21.6,164.6 -45.5,327.9 -175.9,426 -182.6,137.4 -392.6,74.4 -412.9,68 v 0 c -70.1,-3.1 -189.4,0.5 -325.4,50.9 -131.6,48.6 -222.3,120.1 -273.6,167.1 v 0 c -17,20.4 -164.9,191 -405.4,180.8 -215.6,-9.1 -342.9,-156.6 -363,-180.8 v 0 c -33.9,-42.7 -118.9,-138.4 -265,-192.6 -150.4,-55.8 -280.82,-36.4 -334.03,-25.4 v 0 c -29.4,4.3 -246.07,31.9 -421.35,-127.4 -157.67,-143.3 -166.39,-332.9 -167.36,-366.6 v 0 c 1.83,-55.5 -1.77,-175.3 -70.28,-303.8 -79.7,-149.6 -200.07,-222.3 -248.42,-248.2 h -0.01 c -157.7,-54.1 -272.04,-191.5 -294.74,-354.4 -33.46,-240.2 151.83,-394.9 161.29,-402.5 h 0.01 c 37.52,-44.5 106.22,-138.3 135.74,-276.5 34.98,-163.7 -4.99,-296.3 -25.06,-351.2 v 0 c -8.23,-15.4 -113.64,-220.4 -0.39,-429.6 120.76,-223.1 373.63,-235.6 384.65,-236 h 0.01 c 52.64,-6.7 192.69,-31.7 319.76,-145.9 109.6,-98.5 152.5,-212.1 168.5,-263.8 v 0 c 11.86,-28.8 95.15,-222.6 315.18,-296.3 205.5,-68.9 377.4,17.9 407,33.5 v 0 c 72.4,23.9 180.9,50.8 314.5,51.3 137.8,0.6 249.4,-27 322.9,-51.3 v 0 c 28.8,-14 235.7,-109.9 457.9,-8.1 174.6,80.1 246.7,231 264.3,270.9 v 0 c 17.5,51.9 65.6,171.2 185.4,272.3 121.3,102.3 248.7,129.2 302.8,137.4 h 0.1 c 25.9,5.3 262.7,58.2 367.7,286.9 81.1,176.9 29.4,341.3 16.6,378.7 v 0 c -18.6,61.5 -47.6,187.8 -16.6,342.7 27.4,137.6 89.6,234.7 127.2,285 v 0 c 130.9,114.3 187.1,290.5 144.3,453.4"
         style="fill:#f8c218;fill-opacity:1;fill-rule:nonzero;stroke:none"
         id="path82"
         inkscape:connector-curvature="0" />
    </g>
    <path
       d="m 132.9115,211.18219 c -18.82775,0 -34.088914,-15.26469 -34.088914,-34.09244 0,-18.82775 15.261164,-34.09244 34.088914,-34.09244 18.83128,0 34.09244,15.26469 34.09244,34.09244 0,18.82775 -15.26116,34.09244 -34.09244,34.09244 z m 0,-83.0333 c -27.0263,0 -48.937328,21.91103 -48.937328,48.94086 0,27.0263 21.911028,48.93733 48.937328,48.93733 27.02983,0 48.94086,-21.91103 48.94086,-48.93733 0,-27.02983 -21.91103,-48.94086 -48.94086,-48.94086"
       style="fill:#f8cd43;fill-opacity:1;fill-rule:nonzero;stroke:none;stroke-width:0.03527778"
       id="path84"
       inkscape:connector-curvature="0"
       inkscape:transform-center-x="6.9379213"
       inkscape:transform-center-y="-6.5191464" />
    <g
       id="g86"
       transform="matrix(0.03534339,0,0,-0.03534339,-263.52959,695.90239)"
       inkscape:transform-center-x="36.373169"
       inkscape:transform-center-y="0.42704681">
      <path
         d="m 10052.4,16063.8 c -143.94,-143.6 -339.53,-575.6 -339.53,-894.6 0,-319 51.45,-802.5 -82.3,-1152.4 -133.77,-349.8 152.78,-617.3 621.73,-761.4 468.8,-144 633.5,-288 736.4,-360.1 102.9,-72 285.2,-174.9 106.6,267.6 -178.6,442.4 -513.4,424.4 -711.2,551.7 -198,127.3 -414.01,394.8 -300.9,847.5 113.2,452.8 -61.7,836 -41.1,1081.7 20.6,245.6 246.9,656.2 10.3,420"
         style="fill:#f8de34;fill-opacity:1;fill-rule:nonzero;stroke:none"
         id="path88"
         inkscape:connector-curvature="0" />
    </g>
    <g
       id="g90"
       transform="matrix(0.03597028,0,0,-0.03597028,-263.52959,695.90239)"
       inkscape:transform-center-x="-16.310709"
       inkscape:transform-center-y="-40.542267">
      <path
         d="m 10827.6,15977.3 c 123.3,-10.2 374,41.3 707.7,0 333.5,-41.3 626.8,-516.4 606.5,-1001.7 -20.2,-485.2 232.5,-587.5 404.4,-293.8 171.9,293.8 -70.8,556.7 -283.1,860 -212.2,303.3 -677.3,758.2 -1000.9,667.2 -323.4,-91 -716.5,-208.5 -434.6,-231.7"
         style="fill:#f8de34;fill-opacity:1;fill-rule:nonzero;stroke:none"
         id="path92"
         inkscape:connector-curvature="0" />
    </g>
    <path
       d="m 83.974172,158.31492 c 0.01376,3.40783 1.3081,15.00011 0,28.22927 -1.3081,13.22917 4.146547,5.95489 5.96547,-5.31988 1.816807,-11.27125 -6.000395,-31.55598 -5.96547,-22.90939"
       style="fill:#f8ff69;fill-opacity:1;fill-rule:nonzero;stroke:none;stroke-width:0.03527778"
       id="path94"
       inkscape:connector-curvature="0"
       inkscape:transform-center-x="52.857532"
       inkscape:transform-center-y="-8.6692631" />
    <path
       d="m 174.6698,142.99731 c 0.37748,1.62277 4.66725,12.69294 3.63714,21.13844 -1.03364,8.44197 8.4455,7.46125 7.27075,-5.09411 -1.17475,-12.55183 -12.40014,-22.47547 -10.90789,-16.04433"
       style="fill:#f8ff69;fill-opacity:1;fill-rule:nonzero;stroke:none;stroke-width:0.03527778"
       id="path96"
       inkscape:connector-curvature="0"
       inkscape:transform-center-x="-40.254908"
       inkscape:transform-center-y="-28.302617" />
    <path
       d="m 90.303003,217.95553 c 3.58775,4.97064 9.443863,1.89794 18.182167,6.18066 9.32745,4.572 14.02997,13.44436 15.74094,12.64003 0.22578,-0.10936 0.31398,-0.53269 0.26106,-1.36525 -0.20461,-3.048 -0.46919,-7.00969 -3.048,-10.13883 -2.76578,-3.35492 -6.10658,-3.15384 -11.57817,-5.00239 -12.862274,-4.35328 -17.515414,-13.56431 -20.284718,-11.7722 -1.798108,1.1677 -1.623131,6.20184 0.726721,9.45798"
       style="fill:#f8ff69;fill-opacity:1;fill-rule:nonzero;stroke:none;stroke-width:0.03527778"
       id="path98"
       inkscape:connector-curvature="0"
       inkscape:transform-center-x="33.417274"
       inkscape:transform-center-y="38.941182" />
    <g
       id="g100"
       transform="matrix(0.03677708,0,0,-0.03677708,-263.52959,695.90239)"
       inkscape:transform-center-x="39.55576"
       inkscape:transform-center-y="-30.095839">
      <path
         d="m 9027.82,13413.4 c 59.65,65.2 114.41,133.2 167.4,202.2 52.9,69.1 103.74,139.3 153.54,210 160.58,228.1 288.56,428.1 289.42,429.4 286.04,438.1 495.72,586.6 679.92,945.8 44.5,86.8 107.6,225.6 206.4,351 36.8,46.7 94.4,111.9 147.4,167.3 18.2,18.9 48.2,49.4 89.4,85.4 30.7,26.7 62.5,51.5 95.1,71.6 32.5,20 66.4,35.5 97,40.4 15.2,2.4 29.3,2.3 42.2,-0.3 11.4,-2.2 28.6,-9.7 44.7,-18 65.1,-34.6 121.4,-88.9 139.8,-151.4 5.4,-15.5 7.1,-32.2 8.6,-49 0,0 1.5,-26 -3.5,-52.4 -11,-59.2 -66.2,-133 -73.6,-143 -50.4,-68.1 -48.3,-95 -91.1,-172.4 -39.2,-70.8 -110.6,-174 -249.2,-296.2 2.8,0 5.5,0.2 8.3,0.2 43,0 85.3,-3.2 126.9,-8.9 7.7,8.5 19.4,21.5 33.8,37 79.8,85.3 117.6,113.7 154,151.1 59.4,61.1 93,132.8 160.4,276.4 11.6,24.9 32.3,73.5 44.6,136.9 4.7,24.4 5.7,50.2 5.4,76.1 -1.7,26 -4.7,52.4 -13,77.8 -7.2,25.7 -18.5,49.9 -31.9,72.2 -13.2,22.7 -29.4,42.6 -46.6,61.1 -34.6,36.9 -74.3,66 -117.7,89.2 -11,5.8 -22,11.3 -34.1,16.2 -11.5,5.1 -26.2,9.8 -40.8,13.1 -29.2,6.3 -58.9,6.1 -86,1.8 -56.9,-9.1 -103.1,-34.6 -140.5,-56 -100.2,-57.1 -150.4,-85.7 -169.4,-99.9 -112.2,-82.8 -164,-189 -212,-274.3 -60.1,-106.7 -155,-253 -306.2,-420.8 -408.75,-615 -412.68,-542.8 -569.55,-827.6 -48.4,-87.9 -144.71,-270.3 -277.32,-467.7 -61.07,-90.9 -115.16,-163.1 -148.89,-208 -51.06,-67.9 -103.65,-134.5 -159.53,-196.8 -27.91,-31.1 -56.75,-61 -86.69,-88.8 -29.95,-27.4 -61.27,-53 -93.36,-71.9 -31.79,-19 -65.14,-29.3 -86.5,-24.1 -5.56,1 -10.38,3.8 -15.69,6 -2.42,1.8 -4.9,3.5 -7.5,5.1 -2.54,1.8 -4.82,4.6 -7.39,6.8 -9.69,10.1 -19.12,23.6 -26.73,39.8 -15.32,32.4 -25.78,71.2 -33.15,111.1 -3.87,20 -6.79,40.5 -9.63,61.2 0,0 -4.37,32.5 -7.01,62.5 -8.6,97.7 21.69,219.3 21.69,219.3 52.79,212.1 24.39,312.3 91.79,519.1 41.74,128 103.8,224.3 227.92,417 91.32,141.7 113.05,157 359.26,491.1 198.7,269.6 196.55,276 265.52,355.9 159.19,184.4 253.77,257.3 366.86,360.7 126.7,115.8 257,227.8 391.8,334.4 2.7,2.2 3.3,6.3 1.2,9.2 0,0 -2,2.7 -9.3,1.5 -313.96,-53.9 -811.72,-649.7 -811.72,-649.7 -543.01,-650 -327.8,-444 -649.32,-820.7 -112.98,-132.4 -184.98,-211.1 -243.9,-352.7 -62.02,-149.1 -75.57,-308.6 -102.69,-627.7 0,0 -11.78,-138.4 -2.32,-265.8 1.67,-22.5 3.76,-43.9 6.38,-65.8 2.68,-22 5.46,-44.1 9.44,-66.4 3.79,-22.3 8.46,-44.8 14.7,-67.5 5.84,-22.6 14.08,-45.5 24.3,-68.3 10.41,-22.8 24.59,-45.9 44.41,-67 5.36,-5.1 10.27,-10.4 16.23,-15.1 6.22,-4.6 12.55,-9.1 18.95,-13.3 13.89,-7.4 28.46,-14.3 44.02,-17.8 15.52,-3.5 31.12,-4.5 46.06,-3.7 14.71,1.1 29.05,3.4 42.07,7.2 26.41,7.3 49.51,18.2 70.74,30.3 42.28,24.5 77.97,53.7 111.71,83.8 33.48,30.4 64.66,62.2 94.46,94.8"
         style="fill:#ff7904;fill-opacity:1;fill-rule:nonzero;stroke:none"
         id="path102"
         inkscape:connector-curvature="0" />
    </g>
    <g
       id="g104"
       transform="matrix(0.03603202,0,0,-0.03603202,-263.52959,695.90239)"
       inkscape:transform-center-x="-29.49643"
       inkscape:transform-center-y="-47.023336">
      <path
         d="m 11339.6,15282.9 c 18.3,-7 36.3,-14.6 54.1,-22.7 0.1,0.2 0.2,0.4 0.3,0.6 0.5,0.6 151.5,251 300,430.9 93.5,113.3 92.2,84.9 168,183.5 54.5,70.7 92,133 172,207.5 16.8,15.7 51,45.2 100,75.4 35,21.6 71.7,38.4 109.2,48.4 37.6,9.9 75.9,11.8 113.4,5.2 8.1,-1.5 18.3,-4.1 27.6,-6.8 0,0 15.6,-4.6 28.3,-9.6 22.1,-8.6 31.1,-21.8 53.3,-39.2 41.2,-32.3 60.9,-27.2 87.7,-59.4 7.5,-9 12.6,-17.4 15.6,-23 l 7,-12 c 1.5,-2.7 3.8,-7 6,-12.4 16.3,-39.1 8,-76.6 4.8,-91.7 -17.5,-86.1 -1.3,-108.9 -25.4,-192 -16.7,-56.9 -36.5,-87.9 -124.2,-220.6 -90.2,-136.6 -135.4,-204.9 -137.9,-208.1 -109.1,-133.7 -172.8,-140.6 -306.2,-277.5 -45.7,-47 -103.8,-113.6 -162.7,-202.8 19.2,-34.5 36,-70.3 50.8,-107.2 23.2,38.1 60.7,96.9 111.9,165.3 100.4,134.2 174.2,199.5 314.5,353.2 46.1,50.5 113.1,125.5 191.8,220.4 93.8,103.9 133.8,142.8 149.7,217 13.8,64.6 -7.5,77.8 13.4,164.8 12.2,50.2 32,99.1 22.8,143.7 -7.7,37.2 -24,72.1 -24,72.1 -2.9,5.6 -5.5,11.5 -8.7,17 l -9.9,16.3 c -8,31.9 -22,52 -32.3,63.8 -11.8,13.6 -42.7,29.4 -103.6,60.6 -17.5,8.9 -38.6,19.7 -66,29.3 -11.3,4 -22.7,7.7 -34.3,10.9 -11.9,3.2 -22.9,5.9 -36.4,8.3 -49.2,7.9 -100.5,4.3 -147.5,-9.1 -34.3,-9.8 -66.6,-26.3 -129.7,-59.8 -44.8,-23.9 -79,-42.1 -106.5,-60.4 -50.9,-34 -47.7,-47.8 -185,-221 -44.4,-56.1 -87.5,-108.6 -148.4,-194.1 -5.5,-7.7 -9.5,-13.5 -12.1,-17.2 -74.3,-105.5 -177.4,-255.7 -301.4,-447.6"
         style="fill:#ff7904;fill-opacity:1;fill-rule:nonzero;stroke:none"
         id="path106"
         inkscape:connector-curvature="0" />
    </g>
    <path
       d="m 217.59228,179.53097 c -0.0952,-0.0177 -0.25048,0.10584 -0.25753,0.23284 -0.1905,3.54894 -0.92428,11.95211 -2.76578,18.669 -0.87842,3.20322 -1.42875,2.37772 -3.41489,8.00452 -1.72508,4.90009 -1.44286,5.9055 -3.05153,9.63789 -1.30175,3.01272 -2.66347,5.08706 -4.66372,8.13858 -1.7145,2.61409 -3.59128,5.12587 -5.56683,7.5565 -3.96522,4.84011 -8.3185,9.38389 -13.06689,13.43025 -2.37772,2.02142 -4.85069,3.91936 -7.4295,5.62681 -1.29822,0.83961 -2.61056,1.65453 -3.96522,2.36361 -1.34761,0.73025 -2.73403,1.36525 -4.13809,1.89089 -2.06727,0.76905 -3.09738,1.16769 -4.2545,1.11478 -0.33161,-0.0141 -1.54516,-0.0988 -3.92641,-1.51342 -2.59292,-1.54164 -4.191,-2.49414 -5.23875,-4.43442 -1.5487,-2.86455 -0.889,-6.0078 -0.34925,-8.4455 0.31397,-1.41464 0.81844,-2.80811 1.42522,-4.1663 0.58914,-1.28411 1.28764,-2.62114 2.11314,-3.98639 3.30905,-5.45747 7.40833,-9.21456 10.77736,-11.69458 15.79739,-19.26167 23.64317,-26.57828 27.88355,-29.44989 1.09362,-0.74083 4.12398,-2.65995 6.96737,-6.27945 1.524,-1.9438 2.21191,-3.37608 5.06941,-8.87588 1.02306,-1.9685 2.6035,-4.99887 4.5967,-8.75948 l 0.46214,-1.16416 0.41275,-1.18886 c 0.2928,-0.7867 0.49741,-1.60867 0.74083,-2.413 0.10936,-0.40923 0.19755,-0.8255 0.29986,-1.23473 0.0988,-0.41275 0.19403,-0.8255 0.26106,-1.24883 l 0.22225,-1.25589 0.15522,-1.27353 0.0776,-0.635 0.0388,-0.64205 c 0.0212,-0.42686 0.0529,-0.85725 0.0706,-1.28411 -0.0141,-0.86078 0.0247,-1.72156 -0.0564,-2.57881 -0.0353,-0.43039 -0.0494,-0.86078 -0.0988,-1.28764 l -0.16934,-1.28058 c -0.0564,-0.4445 -0.12347,-0.82197 -0.1905,-1.22061 -0.067,-0.40217 -0.14111,-0.80786 -0.22225,-1.22414 -0.19755,-1.01247 -0.37041,-1.89794 -0.65616,-2.59997 -0.2152,-0.5327 -0.7867,-1.18534 -1.92264,-2.47297 -1.89089,-2.13431 -2.31775,-2.37773 -2.78342,-2.52237 -0.75847,-0.23636 -1.56633,-0.20461 -1.92264,-0.18697 -0.33161,0.0141 -0.97719,0.0459 -1.69686,0.28928 -0.91722,0.3175 -1.31939,0.76553 -2.02141,1.27 -1.18534,0.85372 -1.8415,0.87489 -2.94923,1.41464 -0.58914,0.28928 -1.5875,1.03011 -3.79236,3.35139 -2.55058,2.68816 -3.98991,5.54919 -4.3815,6.29355 -3.12914,6.01486 -7.83872,8.99936 -13.60311,16.30186 -4.45558,5.64445 -3.73944,6.51934 -9.57791,15.97378 -9.53912,15.45167 -12.62945,15.03539 -22.62011,30.95272 -4.64962,7.40128 -5.45042,9.83192 -9.92717,15.41286 -1.41464,1.76036 -7.32719,9.12989 -13.589,13.74422 -2.84339,2.09198 -4.63197,2.79048 -6.68514,5.07295 -0.0882,0.0988 -1.88736,2.10608 -3.87702,3.1503 -0.91017,0.47625 -1.89089,0.81492 -1.89089,0.81492 -0.63147,0.22225 -1.25589,0.39511 -1.86972,0.50447 -1.22767,0.21167 -2.37067,0.14464 -3.39725,-0.22577 -0.9525,-0.33867 -1.57339,-0.889 -2.81517,-2.00378 -1.43933,-1.29822 -2.159,-1.94734 -2.6035,-2.87514 -0.42686,-0.89253 -0.46214,-2.06375 -0.51858,-4.36739 -0.0459,-1.9685 0.0141,-3.48897 0.0423,-4.13456 0.13052,-2.93511 0.19755,-4.40619 0.38452,-5.40808 0.48684,-2.59292 1.85561,-4.30741 4.16631,-7.01675 6.73805,-7.9128 8.76653,-9.39094 11.38061,-13.34911 1.72508,-2.60703 2.88572,-5.05883 3.683,-7.0485 -1.50636,-0.56444 -2.95981,-1.23119 -4.35328,-1.99672 -0.49036,0.43039 -1.19591,1.12536 -1.8415,2.12019 -1.22766,1.88736 -1.48519,3.68653 -1.58044,4.19806 -0.89253,4.78719 -8.11389,6.12775 -12.27314,13.8183 -1.520474,2.81164 -2.455334,6.14892 -3.259667,9.02406 -0.55739,1.97555 -0.786697,3.16794 -1.14653,5.03061 -0.93486,4.82953 -0.719667,6.13128 -0.500943,6.94619 0.169333,0.64559 0.719666,1.651 1.820333,3.65831 1.36525,2.49767 2.060223,3.73239 2.861027,4.66725 1.23472,1.44286 2.89278,2.71286 4.84011,3.429 1.94381,0.72319 4.06753,0.80786 5.95136,0.48683 1.89442,-0.32455 3.60186,-0.98425 5.17878,-1.75683 2.04611,-1.00542 3.54895,-2.03906 4.38856,-2.67053 4.18394,-3.1503 6.96383,-6.9603 7.5953,-7.81403 4.7872,-6.46641 6.93208,-6.44172 12.68236,-13.05277 5.05531,-5.81025 5.52097,-8.26559 11.1372,-17.12736 11.22186,-17.70592 14.38627,-15.82209 21.76991,-29.55572 4.58964,-8.53017 4.56142,-11.47939 9.8672,-18.81012 0.52211,-0.72319 6.21594,-8.53369 11.81805,-13.36322 2.14489,-1.85208 3.82411,-2.87514 6.26886,-5.47864 0.20461,-0.21519 1.11125,-1.27352 3.28789,-2.95275 1.11478,-0.85372 2.31422,-1.60161 3.28789,-1.87677 0.24342,-0.0811 0.44803,-0.0988 0.635,-0.12348 0.16933,0.004 0.32456,-0.007 0.43039,0.0353 0.23636,0.0529 0.38453,0.15875 0.62442,0.42334 0.23283,0.28222 0.47977,0.77611 0.68086,1.36525 0.20108,0.58913 0.36689,1.27352 0.51505,1.99319 l 0.2152,1.11125 c 0.067,0.37747 0.14111,0.77611 0.18344,1.11831 l 0.15522,1.06891 c 0.0423,0.35631 0.0565,0.71967 0.0917,1.07597 0.0776,0.71614 0.0459,1.44287 0.0705,2.16253 l -0.0529,1.08303 -0.0247,0.54328 -0.06,0.54328 -0.11995,1.08302 -0.18344,1.0795 c -0.0494,0.35984 -0.13053,0.71967 -0.2152,1.07598 -0.0811,0.3563 -0.15522,0.71613 -0.24341,1.07244 -0.21167,0.70908 -0.37748,1.42875 -0.63148,2.12725 l -0.3563,1.0548 -0.40217,1.04423 c -0.40922,1.85914 -1.15711,4.55083 -2.61055,7.55297 -3.00214,6.19478 -6.63928,8.78769 -12.92225,15.13769 -7.88459,7.96573 -5.66562,7.42598 -12.44248,13.95236 -5.17525,4.98475 -7.79286,6.57578 -14.097,13.11275 -0.77611,0.80786 -3.33375,3.46781 -6.35352,7.22842 -2.02142,2.51531 -3.9617,5.12586 -5.61623,7.97278 -0.83961,1.41464 -1.59808,2.89277 -2.24719,4.43089 -0.65617,1.53811 -1.2065,3.14677 -1.55222,4.826 -0.35278,1.67216 -0.51859,3.41136 -0.42686,5.15408 0.0388,0.43744 0.06,0.87136 0.11641,1.30528 l 0.2152,1.29469 c 0.1023,0.42333 0.21519,0.84667 0.32455,1.27 0.10584,0.41981 0.23989,0.81139 0.38453,1.22414 0.58914,1.63336 1.41464,3.23497 2.63172,4.62492 0.60678,0.68791 1.30881,1.32291 2.10609,1.83797 0.40569,0.24694 0.81138,0.49389 1.25236,0.66675 l 0.65264,0.27517 c 0.21872,0.0952 0.44802,0.13758 0.67027,0.20461 1.80623,0.51152 3.63714,0.49389 5.34459,0.24341 1.7145,-0.254 3.3408,-0.74789 4.87891,-1.3723 1.54517,-0.61384 3.02684,-1.3335 4.44148,-2.14136 2.08844,-1.18886 3.59127,-2.20486 4.13102,-2.57881 6.87917,-4.77308 7.28134,-4.64608 9.47561,-6.39586 2.40242,-1.90853 5.31637,-5.81025 11.14425,-13.61369 3.31612,-4.43795 4.56848,-6.36411 5.49275,-7.85636 1.68275,-2.72345 3.21028,-5.53862 4.55789,-8.43492 1.35467,-2.89278 2.51884,-5.87022 3.53836,-8.89 0.56445,-1.67217 1.59456,-4.92125 2.53648,-9.2075 2.032,-9.24631 2.69522,-19.02178 1.95791,-19.14878"
       style="fill:#ff7904;fill-opacity:1;fill-rule:nonzero;stroke:none;stroke-width:0.03527778"
       id="path108"
       inkscape:connector-curvature="0"
       inkscape:transform-center-x="-16.966433"
       inkscape:transform-center-y="17.102971" />
    <path
       d="m 110.45367,202.72611 c -0.38805,-0.33867 -0.76553,-0.68792 -1.13594,-1.04069 -1.56986,2.43063 -3.14678,4.85775 -4.73781,7.27427 -5.355167,8.11389 -8.025694,12.17436 -10.816167,15.53634 -2.942167,3.54189 -2.737554,2.70933 -5.824712,6.45936 -1.156407,1.40405 -4.195234,5.17525 -6.868936,7.25311 0,0 -1.811866,1.35466 -3.940881,2.19075 -0.344665,0.13405 -0.701323,0.21166 -1.050219,0.32455 -0.353838,0.0811 -0.7112,0.13759 -1.066096,0.20109 -0.357362,0.0141 -0.715079,0.0705 -1.070327,0.0494 0,0 -0.544335,-0.0106 -1.060098,-0.0988 -1.097843,-0.18345 -2.474383,-1.24884 -2.989792,-1.64747 -3.065991,-2.37067 -3.373612,-2.50473 -3.858683,-3.29848 -0.478012,-0.78316 -0.705907,-1.51694 -0.821265,-1.98614 l -0.144287,-0.51858 -0.08502,-0.53622 c -0.02575,-0.17992 -0.06456,-0.35278 -0.08114,-0.53622 l -0.0314,-0.54681 c 0.01093,-1.38289 0.205669,-2.46944 0.385233,-3.2138 0.348545,-1.44639 0.618066,-1.52048 1.091141,-3.41136 0.280813,-1.11831 0.303741,-1.56281 0.683683,-2.52589 0.206023,-0.52211 0.409575,-0.92428 0.803982,-1.70392 0,0 0.546806,-1.0795 1.098901,-2.05317 2.48638,-4.37444 5.082824,-7.86341 5.082824,-7.86341 2.168173,-2.91042 3.30341,-3.92642 6.558491,-7.5812 5.977467,-6.70983 6.331657,-7.99041 11.752792,-13.99116 2.53647,-2.80811 4.878917,-5.207 6.88622,-7.1755 -0.194027,-1.26648 -0.310443,-2.55764 -0.359833,-3.86645 -3.813527,3.33375 -6.709833,6.3112 -8.671277,8.44197 -2.964392,3.21734 -6.050492,7.22842 -12.223043,15.25764 -6.104115,7.9375 -3.98004,5.54567 -5.720644,7.65881 -1.92123,2.32833 -3.895021,4.49791 -4.846463,6.99558 -0.186618,0.48683 -0.590195,1.66511 -1.327502,3.30553 -0.358068,0.79728 -0.555625,1.21708 -0.991658,2.21544 -0.324203,0.74084 -0.593372,1.51342 -0.871361,2.27895 -0.244122,0.77964 -0.493536,1.55928 -0.6731,2.36714 -0.373944,1.60161 -0.594783,3.27377 -0.487892,4.97416 l 0.04551,0.635 c 0.02222,0.21167 0.06809,0.42334 0.1016,0.635 l 0.110772,0.635 0.178506,0.62442 c 0.04127,0.74083 0.212725,1.91558 0.914752,3.10092 0.726017,1.22413 1.663699,1.8168 3.538714,3.00566 0,0 2.660298,1.52753 4.694415,1.97556 0.42686,0.0953 0.865362,0.0811 1.299278,0.10583 0.434624,0.0141 0.864659,-0.0529 1.296107,-0.0776 0.421923,-0.0776 0.847373,-0.14817 1.260827,-0.25047 0.618067,-0.1517 1.062215,-0.33514 1.209675,-0.39159 1.571625,-0.60325 4.088341,-1.46402 4.837996,-1.77447 2.671937,-1.1183 4.322233,-4.24391 6.447719,-7.30602 2.28882,-3.29848 1.904293,-1.8662 7.506403,-8.55839 4.367385,-5.21759 7.665865,-9.19339 10.819695,-14.95425 1.48519,-2.71286 2.51178,-5.0412 3.1503,-6.59342"
       style="fill:#ff7904;fill-opacity:1;fill-rule:nonzero;stroke:none;stroke-width:0.03527778"
       id="path110"
       inkscape:connector-curvature="0"
       inkscape:transform-center-x="53.117136"
       inkscape:transform-center-y="26.919848" />
  </g>
</svg>
