<?xml version="1.0" encoding="UTF-8" standalone="no"?>
<!-- Created with Inkscape (http://www.inkscape.org/) -->

<svg
   xmlns:dc="http://purl.org/dc/elements/1.1/"
   xmlns:cc="http://creativecommons.org/ns#"
   xmlns:rdf="http://www.w3.org/1999/02/22-rdf-syntax-ns#"
   xmlns:svg="http://www.w3.org/2000/svg"
   xmlns="http://www.w3.org/2000/svg"
   xmlns:sodipodi="http://sodipodi.sourceforge.net/DTD/sodipodi-0.dtd"
   xmlns:inkscape="http://www.inkscape.org/namespaces/inkscape"
   width="187.64317mm"
   height="187.64336mm"
   viewBox="0 0 187.64317 187.64336"
   version="1.1"
   id="svg4900"
   inkscape:version="0.92.5 (2060ec1f9f, 2020-04-08)"
   sodipodi:docname="drawing.svg">
  <defs
     id="defs4894" />
  <sodipodi:namedview
     id="base"
     pagecolor="#ffffff"
     bordercolor="#666666"
     borderopacity="1.0"
     inkscape:pageopacity="0.0"
     inkscape:pageshadow="2"
     inkscape:zoom="0.35"
     inkscape:cx="377.4584"
     inkscape:cy="266.03011"
     inkscape:document-units="mm"
     inkscape:current-layer="layer1"
     showgrid="false"
     inkscape:window-width="1312"
     inkscape:window-height="704"
     inkscape:window-x="0"
     inkscape:window-y="27"
     inkscape:window-maximized="1"
     fit-margin-top="0"
     fit-margin-left="0"
     fit-margin-right="0"
     fit-margin-bottom="0" />
  <metadata
     id="metadata4897">
    <rdf:RDF>
      <cc:Work
         rdf:about="">
        <dc:format>image/svg+xml</dc:format>
        <dc:type
           rdf:resource="http://purl.org/dc/dcmitype/StillImage" />
        <dc:title></dc:title>
      </cc:Work>
    </rdf:RDF>
  </metadata>
  <g
     inkscape:label="Layer 1"
     inkscape:groupmode="layer"
     id="layer1"
     transform="translate(-5.9641313,-31.57713)">
    <path
       d="m 107.05814,93.352908 c 6.70136,0 12.95541,1.943806 18.22626,5.281083 -6.24487,-7.027333 -15.35677,-11.46175 -25.499477,-11.46175 -18.828454,0 -34.092089,15.264689 -34.092089,34.092439 0,12.12497 6.340826,22.77886 15.878526,28.82547 -5.348112,-6.02192 -8.605308,-13.95941 -8.605308,-22.6448 0,-18.82775 15.263635,-34.092442 34.092088,-34.092442"
       style="fill:#e6e6e6;fill-opacity:1;fill-rule:nonzero;stroke:none;stroke-width:0.03527778"
       id="path18"
       inkscape:connector-curvature="0" />
    <g
       id="g22"
       transform="matrix(0.0373313,0,0,-0.0373313,-36.961264,640.07732)">
      <path
         d="m 3663.06,12984.4 c -504.36,0 -913.24,408.8 -913.24,913.2 0,504.4 408.88,913.2 913.24,913.2 504.37,0 913.23,-408.8 913.23,-913.2 0,-504.4 -408.86,-913.2 -913.23,-913.2 z m 0,3315.6 c -1388.01,0 -2513.21,-1125.2 -2513.21,-2513.2 0,-1388 1125.2,-2513.2 2513.21,-2513.2 1388.01,0 2513.22,1125.2 2513.22,2513.2 0,1388 -1125.21,2513.2 -2513.22,2513.2"
         style="fill:#ffae75;fill-opacity:1;fill-rule:nonzero;stroke:none"
         id="path24"
         inkscape:connector-curvature="0" />
    </g>
    <path
       d="m 185.82283,87.941298 c 0.21802,7.750527 0.3235,41.797112 -25.49031,70.731932 -5.29872,5.94078 -23.52569,24.93434 -53.45642,31.09384 -51.469208,10.59391 -90.706916,-26.40189 -94.428722,-30.02845 13.705064,34.82975 47.641932,59.48186 87.337545,59.48186 51.815997,0 93.821237,-42.00172 93.821237,-93.82124 0,-13.31736 -2.78094,-25.982082 -7.78333,-37.457942"
       style="fill:#ff9075;fill-opacity:1;fill-rule:nonzero;stroke:none;stroke-width:0.03527778"
       id="path26"
       inkscape:connector-curvature="0" />
    <g
       id="g28"
       transform="matrix(0.03722582,0,0,-0.03722582,-36.961264,640.07732)">
      <path
         d="m 2960.33,16137.8 c -178.89,-48.1 -794.54,-273.5 -1094.1,-794.5 -299.58,-521 -19.55,-638.3 -104.2,-989.9 -84.67,-351.7 -442.86,-579.6 -371.22,-859.7 71.63,-280 683.92,41.5 677.71,693 -6.19,651.5 530.48,1228.2 530.48,1228.2 0,0 976.52,305.4 986.52,449.4 10,143.9 -22.05,435.7 -625.19,273.5"
         style="fill:#ffd080;fill-opacity:1;fill-rule:nonzero;stroke:none"
         id="path30"
         inkscape:connector-curvature="0" />
    </g>
    <g
       id="g32"
       transform="matrix(0.03695135,0,0,-0.03695135,-36.961264,640.07732)">
      <path
         d="m 4199.2,16011.1 c 23.91,-24.7 96.83,-93.7 305.2,-140.7 246.92,-55.6 286.9,9.2 452.43,-37.4 258.2,-72.6 378.68,-291.5 413.59,-264.4 25.92,20.2 -23.39,154.1 -111.53,262.5 -137.24,168.7 -374.06,282.4 -610.16,282.1 -148.93,-0.2 -202.01,-45.6 -318.37,-2.3 -151.24,56.2 -212.98,189.1 -239.29,172.9 -26.24,-16.2 5.54,-166.6 108.13,-272.7"
         style="fill:#ffd080;fill-opacity:1;fill-rule:nonzero;stroke:none"
         id="path34"
         inkscape:connector-curvature="0" />
    </g>
    <g
       id="g36"
       transform="matrix(0.03659681,0,0,-0.03659681,-36.961264,640.07732)">
      <path
         d="m 3736.55,13244.9 c -514.48,0 -931.56,417 -931.56,931.5 0,514.5 417.08,931.6 931.56,931.6 514.49,0 931.55,-417.1 931.55,-931.6 0,-514.5 -417.06,-931.5 -931.55,-931.5 z m 2171.87,1296.6 c -56.7,215.9 -257.79,295.9 -277.77,303.5 h -0.01 c -54.87,39.2 -149.35,117.7 -222.95,248.2 -69.5,123.2 -89.28,237.7 -95.74,303.8 v 0 c 21.69,164.6 -45.4,327.9 -175.85,426 -182.56,137.4 -392.66,74.4 -412.88,68 v 0 c -70.22,-3.1 -189.45,0.5 -325.49,50.9 -131.52,48.6 -222.26,120.1 -273.47,167.1 v 0 c -17.07,20.4 -164.99,191 -405.49,180.8 -215.59,-9.1 -342.86,-156.6 -363.04,-180.8 v 0 c -33.83,-42.7 -118.86,-138.4 -264.99,-192.6 -150.33,-55.8 -280.73,-36.4 -333.97,-25.4 h -0.01 c -29.46,4.3 -246.08,31.9 -421.37,-127.4 -157.66,-143.3 -166.38,-332.9 -167.35,-366.6 v 0 c 1.83,-55.5 -1.76,-175.3 -70.28,-303.8 -79.69,-149.6 -200.07,-222.3 -248.41,-248.2 h -0.01 c -157.72,-54.1 -272.05,-191.5 -294.75,-354.4 -33.45,-240.2 151.83,-394.9 161.29,-402.5 h 0.01 c 37.51,-44.5 106.21,-138.3 135.74,-276.5 34.98,-163.7 -4.99,-296.3 -25.06,-351.2 v 0 c -8.24,-15.4 -113.64,-220.4 -0.4,-429.6 120.77,-223.1 373.64,-235.6 384.67,-236 v 0 c 52.63,-6.7 192.68,-31.7 319.75,-145.9 109.59,-98.5 152.5,-212.1 168.52,-263.8 v 0 c 11.82,-28.8 95.16,-222.6 315.24,-296.3 205.43,-68.9 377.37,17.9 406.95,33.5 v 0 c 72.37,23.9 180.86,50.8 314.45,51.3 137.8,0.6 249.47,-27 322.94,-51.3 v 0 c 28.82,-14 235.67,-109.9 457.86,-8.1 174.7,80.1 246.77,231 264.33,270.9 v 0 c 17.56,51.9 65.65,171.2 185.48,272.3 121.26,102.3 248.65,129.2 302.79,137.4 v 0 c 25.92,5.3 262.74,58.2 367.69,286.9 81.15,176.9 29.41,341.3 16.58,378.7 v 0 c -18.53,61.5 -47.51,187.8 -16.58,342.7 27.47,137.6 89.62,234.7 127.26,285 h 0.01 c 130.87,114.3 187.1,290.5 144.31,453.4"
         style="fill:#ff7fc2;fill-opacity:1;fill-rule:nonzero;stroke:none"
         id="path38"
         inkscape:connector-curvature="0" />
    </g>
    <path
       d="m 99.784923,155.35712 c -18.828454,0 -34.092089,-15.26469 -34.092089,-34.09244 0,-18.82775 15.263635,-34.092439 34.092089,-34.092439 18.828807,0 34.092087,15.264689 34.092087,34.092439 0,18.82775 -15.26328,34.09244 -34.092087,34.09244 z m 0,-83.033295 c -27.028069,0 -48.938744,21.911027 -48.938744,48.940855 0,27.0263 21.910675,48.93733 48.938744,48.93733 27.028067,0 48.939087,-21.91103 48.939087,-48.93733 0,-27.029828 -21.91102,-48.940855 -48.939087,-48.940855"
       style="fill:#ffa4c3;fill-opacity:1;fill-rule:nonzero;stroke:none;stroke-width:0.03527778"
       id="path40"
       inkscape:connector-curvature="0" />
    <path
       d="M 68.14746,68.309214 C 57.246627,72.394381 55.783304,85.034408 54.692869,97.399268 53.601727,109.76413 43.783217,116.39988 43.055787,121.26468 c -0.727075,4.86481 4.000148,6.04661 10.182225,0 6.18208,-6.04661 7.636582,-30.409439 23.273457,-36.230272 15.636875,-5.817306 29.091821,-5.453944 37.092111,-2.543527 8.00029,2.906887 13.45494,-3.273779 2.90935,-9.817806 C 105.967,66.125521 93.96656,71.942825 87.421121,70.126021 80.875329,68.309214 73.965823,66.125521 68.14746,68.309214"
       style="fill:#ff92b3;fill-opacity:1;fill-rule:nonzero;stroke:none;stroke-width:0.03527778"
       id="path42"
       inkscape:connector-curvature="0" />
    <path
       d="m 49.601579,149.7656 c -0.540808,8.11388 9.454798,17.45544 14.182373,26.18316 4.727575,8.72772 16.000587,16.36183 28.728104,9.45445 12.727514,-6.91092 35.273894,-15.50106 48.365124,-16.47825 13.09158,-0.9772 30.28385,-17.526 5.09129,-19.15936 -25.19292,-1.63689 -25.51748,17.45544 -42.94187,14.90838 -17.423696,-2.54352 -27.605921,-8.56191 -32.697208,-15.00716 -5.090938,-6.44878 -19.637023,-16.26658 -20.727813,0.0988"
       style="fill:#ff92b3;fill-opacity:1;fill-rule:nonzero;stroke:none;stroke-width:0.03527778"
       id="path44"
       inkscape:connector-curvature="0" />
    <path
       d="m 137.96782,95.945825 c -3.66395,7.404805 5.14844,12.625915 4.72757,26.909885 -0.19649,6.67456 -2.4645,9.91658 0,13.8183 2.08069,3.29495 6.46924,5.47159 10.18223,4.72723 6.62728,-1.32998 10.41259,-11.83922 8.68751,-19.15231 -1.16735,-4.953 -4.05836,-5.3975 -5.33506,-11.61697 -1.0541,-5.13291 0.7493,-6.223 -0.53799,-10.851442 -0.20602,-0.740833 -2.63102,-9.07697 -8.122,-9.835443 -3.57929,-0.49389 -7.78263,2.324806 -9.60226,6.00075"
       style="fill:#ff92b3;fill-opacity:1;fill-rule:nonzero;stroke:none;stroke-width:0.03527778"
       id="path46"
       inkscape:connector-curvature="0" />
    <path
       d="m 76.875181,71.096158 c -3.015544,0.941917 -5.050367,2.786944 -8.439147,5.863167 -1.62913,1.478139 -3.263197,3.436056 -4.409724,6.258277 -3.151716,7.757583 8.429271,-4.847167 18.639367,-6.060721 10.210094,-1.213556 22.244403,-0.613833 30.574543,1.993194 1.30457,0.409223 3.67559,0.599723 3.99344,-0.123473 0.52176,-1.185334 -4.26438,-5.559777 -10.05452,-7.203721 -6.48758,-1.837973 -8.048267,1.502833 -17.212728,0.726721 -7.173735,-0.606777 -8.594373,-2.857498 -13.091231,-1.453444"
       style="fill:#ffaaa6;fill-opacity:1;fill-rule:nonzero;stroke:none;stroke-width:0.03527778"
       id="path48"
       inkscape:connector-curvature="0" />
    <path
       d="m 145.24104,100.30968 c -0.10971,3.92995 2.18193,10.99961 1.81821,20.955 -0.36371,9.95539 6.5458,2.68111 5.81837,-8.95702 -0.72743,-11.63461 -7.4676,-18.069279 -7.63658,-11.99798"
       style="fill:#ffaaa6;fill-opacity:1;fill-rule:nonzero;stroke:none;stroke-width:0.03527778"
       id="path50"
       inkscape:connector-curvature="0" />
    <path
       d="m 61.238309,161.03685 c 1.431925,6.08541 2.148062,9.12988 3.636433,10.91141 3.467804,4.14867 9.085789,4.699 13.091229,5.09059 4.462639,0.43744 7.839781,-0.27517 13.454943,-1.45345 4.433359,-0.93486 7.648223,-2.032 10.182226,-2.91042 6.4844,-2.24366 10.68528,-3.69711 10.54593,-4.72722 -0.26352,-1.94733 -15.333831,2.80459 -30.910026,-3.50308 -11.93659,-4.83658 -18.822107,-14.00175 -21.091525,-12.13203 -0.807157,0.66322 -0.174273,3.35139 1.09079,8.7242"
       style="fill:#ffaaa6;fill-opacity:1;fill-rule:nonzero;stroke:none;stroke-width:0.03527778"
       id="path52"
       inkscape:connector-curvature="0" />
  </g>
</svg>
