<?xml version="1.0" encoding="UTF-8" standalone="no"?>
<!-- Created with Inkscape (http://www.inkscape.org/) -->

<svg
   xmlns:dc="http://purl.org/dc/elements/1.1/"
   xmlns:cc="http://creativecommons.org/ns#"
   xmlns:rdf="http://www.w3.org/1999/02/22-rdf-syntax-ns#"
   xmlns:svg="http://www.w3.org/2000/svg"
   xmlns="http://www.w3.org/2000/svg"
   xmlns:sodipodi="http://sodipodi.sourceforge.net/DTD/sodipodi-0.dtd"
   xmlns:inkscape="http://www.inkscape.org/namespaces/inkscape"
   width="187.64021mm"
   height="187.6427mm"
   viewBox="0 0 187.64021 187.6427"
   version="1.1"
   id="svg1139"
   sodipodi:docname="purpleDonut.svg"
   inkscape:version="0.92.5 (2060ec1f9f, 2020-04-08)">
  <defs
     id="defs1133" />
  <sodipodi:namedview
     id="base"
     pagecolor="#ffffff"
     bordercolor="#666666"
     borderopacity="1.0"
     inkscape:pageopacity="0.0"
     inkscape:pageshadow="2"
     inkscape:zoom="0.35"
     inkscape:cx="235.23731"
     inkscape:cy="430.16914"
     inkscape:document-units="mm"
     inkscape:current-layer="layer1"
     showgrid="false"
     inkscape:window-width="1312"
     inkscape:window-height="704"
     inkscape:window-x="0"
     inkscape:window-y="27"
     inkscape:window-maximized="1"
     fit-margin-top="0"
     fit-margin-left="0"
     fit-margin-right="0"
     fit-margin-bottom="0" />
  <metadata
     id="metadata1136">
    <rdf:RDF>
      <cc:Work
         rdf:about="">
        <dc:format>image/svg+xml</dc:format>
        <dc:type
           rdf:resource="http://purl.org/dc/dcmitype/StillImage" />
        <dc:title></dc:title>
      </cc:Work>
    </rdf:RDF>
  </metadata>
  <g
     inkscape:label="Layer 1"
     inkscape:groupmode="layer"
     id="layer1"
     transform="translate(25.784396,-33.089366)">
    <g
       id="g660"
       transform="matrix(0.05788942,0,0,-0.05788942,-850.0666,360.15697)">
      <path
         d="m 15985.1,4582.74 c 115.8,0 223.9,-33.58 314.9,-91.23 -107.9,121.39 -265.3,197.99 -440.5,197.99 -325.3,0 -588.9,-263.68 -588.9,-588.92 0,-209.45 109.5,-393.49 274.3,-497.88 -92.4,103.96 -148.7,241.08 -148.7,391.11 0,325.24 263.7,588.93 588.9,588.93"
         style="fill:#e6e6e6;fill-opacity:1;fill-rule:nonzero;stroke:none"
         id="path662"
         inkscape:connector-curvature="0" />
    </g>
    <g
       id="g668"
       transform="matrix(0.06208113,0,0,-0.06208113,-850.0666,360.15697)">
      <path
         d="m 14788.7,3274.56 c -303.3,0 -579,245.88 -579,549.16 0,303.28 275.7,577.74 579,577.74 303.3,0 564,-274.46 564,-577.74 0,-303.28 -260.7,-549.16 -564,-549.16 z m 0,1993.83 c -834.6,0 -1511.2,-676.62 -1511.2,-1511.27 0,-834.65 676.6,-1511.27 1511.2,-1511.27 834.7,0 1511.3,676.62 1511.3,1511.27 0,834.65 -676.6,1511.27 -1511.3,1511.27"
         style="fill:#ffae75;fill-opacity:1;fill-rule:nonzero;stroke:none"
         id="path670"
         inkscape:connector-curvature="0" />
    </g>
    <g
       id="g672"
       transform="matrix(0.06208113,0,0,-0.06208113,-850.0666,360.15697)">
      <path
         d="m 16174.6,4360.49 c 3.5,-124.84 5.2,-673.27 -410.6,-1139.35 -85.3,-95.69 -378.9,-401.64 -861,-500.85 -829.1,-170.6 -1461.1,425.28 -1521.1,483.69 220.7,-561.03 767.4,-958.13 1406.8,-958.13 834.7,0 1511.3,676.62 1511.3,1511.27 0,214.51 -44.8,418.52 -125.4,603.37"
         style="fill:#ff9075;fill-opacity:1;fill-rule:nonzero;stroke:none"
         id="path674"
         inkscape:connector-curvature="0" />
    </g>
    <g
       id="g676"
       transform="matrix(0.06129725,0,0,-0.06129725,-850.0666,360.15697)">
      <path
         d="m 14977.8,3316.42 c -307.2,0 -556.2,249.03 -556.2,556.19 0,307.15 249,556.18 556.2,556.18 307.2,0 556.2,-249.03 556.2,-556.18 0,-307.16 -249,-556.19 -556.2,-556.19 z m 1296.6,774.19 c -33.8,128.86 -153.8,176.63 -165.8,181.17 v 0 c -32.7,23.43 -89.2,70.28 -133.1,148.2 -41.5,73.55 -53.3,141.87 -57.1,181.35 v 0 c 12.9,98.29 -27.1,195.79 -105,254.38 -109,82.01 -234.5,44.43 -246.6,40.57 v 0 c -41.8,-1.84 -113,0.34 -194.2,30.39 -78.6,29.06 -132.8,71.71 -163.3,99.73 v 0.06 c -10.2,12.15 -98.5,114.01 -242.1,107.97 -128.7,-5.47 -204.8,-93.52 -216.8,-107.97 v -0.06 c -20.2,-25.49 -70.9,-82.58 -158.2,-114.93 -89.7,-33.32 -167.6,-21.75 -199.4,-15.19 v 0 c -17.6,2.53 -146.9,19.05 -251.6,-76.03 -94.1,-85.52 -99.3,-198.72 -99.9,-218.92 v 0 c 1.1,-33.1 -1,-104.63 -41.9,-181.35 -47.6,-89.32 -119.5,-132.77 -148.3,-148.2 v 0 c -94.2,-32.28 -162.5,-114.29 -176,-211.61 -20,-143.37 90.6,-235.74 96.2,-240.28 v 0 c 22.5,-26.53 63.5,-82.53 81.1,-165.06 20.9,-97.78 -3,-176.91 -14.9,-209.72 v 0 c -5,-9.15 -67.9,-131.56 -0.3,-256.45 72.1,-133.18 223.1,-140.72 229.7,-140.89 v 0 c 31.4,-4.03 115,-18.93 190.9,-87.13 65.4,-58.82 91,-126.62 100.6,-157.46 v -0.06 c 7.1,-17.21 56.8,-132.89 188.2,-176.92 122.7,-41.09 225.3,10.71 243,20.03 v 0 c 37.9,14.39 104,34.02 187.7,30.62 77.3,-3.05 137.4,-24.46 173.4,-40.4 14.6,-5.3 29.1,-10.59 43.6,-15.83 8.3,-4.31 149.4,-74.01 280.8,5.93 95.6,58.19 121.3,156.08 126.2,176.57 v 0.06 c 10.5,30.96 39.2,102.15 110.8,162.52 72.4,61.06 148.4,77.12 180.7,82.07 v 0 c 15.5,3.17 156.9,34.71 219.5,171.28 48.5,105.6 17.6,203.73 9.9,226.06 v 0 c -11,36.78 -28.3,112.17 -9.9,204.65 16.4,82.13 53.5,140.09 76,170.13 v 0 c 78.1,68.25 111.7,173.46 86.1,270.72"
         style="fill:#c0319c;fill-opacity:1;fill-rule:nonzero;stroke:none"
         id="path678"
         inkscape:connector-curvature="0" />
    </g>
    <g
       id="g680"
       transform="matrix(0.05932734,0,0,-0.05932734,-850.0666,360.15697)">
      <path
         d="m 15475.1,3404.36 c -317.4,0 -574.6,279.48 -574.6,596.83 0,317.36 257.2,574.65 574.6,574.65 317.4,0 574.7,-257.29 574.7,-574.65 0,-317.35 -257.3,-596.83 -574.7,-596.83 z m 0,1421.76 c -455.6,0 -824.9,-369.32 -824.9,-824.93 0,-455.54 369.3,-824.87 824.9,-824.87 455.6,0 824.9,369.33 824.9,824.87 0,455.61 -369.3,824.93 -824.9,824.93"
         style="fill:#f452b0;fill-opacity:1;fill-rule:nonzero;stroke:none"
         id="path682"
         inkscape:connector-curvature="0" />
    </g>
    <g
       id="g684"
       transform="matrix(0.05751089,0,0,-0.05751089,-850.0666,360.15697)">
      <path
         d="m 14843.8,3684.07 c 38.1,41.72 73.1,85.21 107,129.31 33.9,44.17 66.4,89.07 98.2,134.34 102.7,145.8 184.5,273.7 185.1,274.56 182.9,280.14 317,375.1 434.8,604.82 28.4,55.51 68.8,144.21 132,224.45 23.5,29.87 60.3,71.58 94.3,106.98 11.5,12.08 30.7,31.59 57.1,54.65 19.6,17.05 40,32.88 60.8,45.7 20.8,12.82 42.5,22.76 62,25.89 9.8,1.53 18.8,1.47 27,-0.19 7.3,-1.41 18.3,-6.19 28.6,-11.53 41.6,-22.15 77.7,-56.86 89.4,-96.86 3.5,-9.87 4.6,-20.55 5.5,-31.28 0,0 1,-16.62 -2.2,-33.49 -7.1,-37.85 -42.3,-85.02 -47.1,-91.46 -32.2,-43.49 -30.9,-60.73 -58.2,-110.23 -25.1,-45.33 -70.8,-111.27 -159.4,-189.48 1.8,0.06 3.5,0.18 5.3,0.18 27.5,0 54.6,-2.09 81.1,-5.7 4.9,5.45 12.4,13.73 21.7,23.67 51,54.53 75.2,72.69 98.4,96.61 38,39.08 59.5,84.96 102.6,176.79 7.4,15.89 20.7,46.99 28.5,87.53 3,15.58 3.7,32.14 3.5,48.65 -1.1,16.62 -3.1,33.49 -8.3,49.74 -4.6,16.44 -11.9,31.96 -20.5,46.19 -8.4,14.48 -18.7,27.24 -29.7,39.08 -22.1,23.55 -47.5,42.14 -75.3,57.04 -7,3.68 -14.1,7.18 -21.8,10.37 -7.4,3.25 -16.8,6.26 -26.1,8.4 -18.7,3.99 -37.6,3.87 -55,1.11 -36.4,-5.83 -65.9,-22.15 -89.9,-35.82 -64,-36.5 -96.1,-54.78 -108.3,-63.86 -71.7,-52.94 -104.8,-120.84 -135.6,-175.44 -38.4,-68.21 -99,-161.81 -195.8,-269.04 -261.3,-393.31 -263.8,-347.12 -364.1,-529.25 -31,-56.25 -92.6,-172.92 -177.4,-299.09 -39,-58.16 -73.6,-104.35 -95.2,-132.99 -32.7,-43.43 -66.3,-86.06 -102,-125.87 -17.9,-19.94 -36.3,-39.08 -55.4,-56.8 -19.2,-17.55 -39.2,-33.93 -59.8,-46.01 -20.3,-12.08 -41.6,-18.71 -55.3,-15.4 -3.5,0.68 -6.6,2.46 -10,3.8 -1.5,1.23 -3.1,2.28 -4.8,3.32 -1.7,1.16 -3.1,2.94 -4.7,4.35 -6.2,6.45 -12.3,15.09 -17.1,25.46 -9.8,20.73 -16.5,45.52 -21.2,71.03 -2.5,12.76 -4.4,25.89 -6.2,39.14 0,0 -2.8,20.79 -4.5,39.93 -5.5,62.51 13.9,140.29 13.9,140.29 33.8,135.62 15.6,199.73 58.7,331.91 26.7,81.89 66.4,143.48 145.7,266.65 58.4,90.67 72.4,100.42 229.8,314.07 127.1,172.43 125.7,176.48 169.8,227.57 101.8,117.96 162.3,164.58 234.6,230.71 81,74.04 164.3,145.62 250.5,213.83 1.8,1.41 2.1,4.05 0.8,5.89 0,0 -1.3,1.72 -5.9,0.92 -200.8,-34.41 -519.1,-415.46 -519.1,-415.46 -347.3,-415.65 -209.6,-283.95 -415.2,-524.84 -72.3,-84.65 -118.4,-134.95 -156,-225.49 -39.6,-95.32 -48.4,-197.33 -65.7,-401.41 0,0 -7.5,-88.52 -1.5,-169.98 1.1,-14.35 2.5,-28.03 4.1,-42.08 1.7,-14.04 3.5,-28.15 6,-42.44 2.5,-14.3 5.4,-28.65 9.5,-43.19 3.7,-14.41 8.9,-29.07 15.5,-43.67 6.6,-14.6 15.7,-29.38 28.4,-42.82 3.4,-3.31 6.6,-6.68 10.4,-9.69 4,-2.94 8,-5.77 12.1,-8.53 8.8,-4.72 18.2,-9.14 28.2,-11.34 9.8,-2.27 19.8,-2.89 29.4,-2.4 10.8,0.56 18.5,2.52 26.9,4.6 46.4,11.66 44,10.49 48.3,11.97 24.3,8.34 33.6,23.43 68.3,61.03 31.5,33.98 26.9,23.98 60.5,60.6"
         style="fill:#8381fb;fill-opacity:1;fill-rule:nonzero;stroke:none"
         id="path686"
         inkscape:connector-curvature="0" />
    </g>
    <g
       id="g688"
       transform="matrix(0.06006606,0,0,-0.06006606,-850.0666,360.15697)">
      <path
         d="m 15487.2,4482.41 c 10.9,-4.17 21.7,-8.75 32.4,-13.63 0.1,0.18 0.1,0.24 0.2,0.35 0.3,0.42 90.9,150.59 180,258.54 56.1,67.95 55.2,50.92 100.7,110.06 32.7,42.41 55.2,79.82 103.2,124.52 10.1,9.39 30.6,27.13 60,45.22 21,12.92 43,23.02 65.5,29.01 22.5,5.93 45.5,7.11 68,3.11 4.9,-0.93 11,-2.46 16.6,-4.11 0,0 9.4,-2.7 16.9,-5.69 13.3,-5.17 18.7,-13.1 32,-23.55 24.7,-19.33 36.6,-16.27 52.6,-35.6 4.5,-5.46 7.6,-10.45 9.4,-13.86 l 4.2,-7.16 c 0.9,-1.65 2.3,-4.23 3.6,-7.46 9.8,-23.43 4.8,-45.93 2.9,-55.03 -10.5,-51.63 -0.8,-65.31 -15.3,-115.12 -10,-34.12 -21.9,-52.74 -74.4,-132.32 -54.2,-81.93 -81.3,-122.92 -82.8,-124.86 -65.4,-80.23 -103.7,-84.34 -183.7,-166.51 -27.4,-28.13 -62.3,-68.07 -97.5,-121.63 11.4,-20.67 21.5,-42.17 30.4,-64.31 13.9,22.84 36.4,58.14 67.1,99.2 60.2,80.52 104.5,119.63 188.7,211.9 27.7,30.25 67.8,75.29 115,132.15 56.3,62.31 80.3,85.69 89.8,130.15 8.3,38.82 -4.5,46.69 8.1,98.9 7.3,30.07 19.2,59.44 13.7,86.16 -4.7,22.38 -14.5,43.28 -14.5,43.28 -1.7,3.41 -3.3,6.88 -5.1,10.17 l -6,9.8 c -4.8,19.15 -13.2,31.19 -19.3,38.3 -7.2,8.1 -25.7,17.62 -62.2,36.35 -10.5,5.35 -23.2,11.81 -39.6,17.62 -6.8,2.35 -13.6,4.58 -20.6,6.46 -7.1,1.94 -13.7,3.59 -21.8,4.99 -29.5,4.76 -60.3,2.59 -88.5,-5.46 -20.6,-5.87 -40,-15.74 -77.8,-35.82 -26.9,-14.33 -47.4,-25.26 -63.9,-36.3 -30.5,-20.38 -28.6,-28.6 -111,-132.5 -26.6,-33.65 -52.5,-65.19 -89,-116.52 -3.3,-4.58 -5.7,-8.05 -7.3,-10.28 -44.5,-63.26 -106.4,-153.41 -180.7,-268.52"
         style="fill:#8381fb;fill-opacity:1;fill-rule:nonzero;stroke:none"
         id="path690"
         inkscape:connector-curvature="0" />
    </g>
    <g
       id="g692"
       transform="matrix(0.06156572,0,0,-0.06156572,-850.0666,360.15697)">
      <path
         d="m 16288,3816.13 c -1.5,0.29 -4,-1.72 -4.2,-3.78 -3.1,-57.71 -15,-194.14 -44.9,-303.24 -14.3,-52.03 -23.2,-38.68 -55.4,-130.07 -28.1,-79.54 -23.5,-95.87 -49.6,-156.49 -21.2,-48.94 -43.3,-82.69 -75.8,-132.2 -27.8,-42.45 -58.3,-83.31 -90.4,-122.73 -64.4,-78.68 -135.1,-152.42 -212.2,-218.21 -38.6,-32.83 -78.8,-63.66 -120.7,-91.39 -21.1,-13.58 -42.4,-26.82 -64.4,-38.33 -21.9,-11.87 -44.4,-22.18 -67.2,-30.72 -33.6,-12.55 -50.3,-18.96 -69.1,-18.1 -5.4,0.22 -25.1,1.54 -63.8,24.58 -42.1,25.04 -68.1,40.45 -85.1,71.97 -25.2,46.58 -14.4,97.58 -5.7,137.17 5.1,22.98 13.3,45.62 23.2,67.73 9.5,20.86 20.9,42.58 34.3,64.75 53.7,88.65 120.3,149.62 175.1,189.96 256.5,312.86 384,431.7 452.9,478.29 17.7,12.03 66.9,43.26 113.1,102.05 24.8,31.52 36,54.78 82.4,144.17 16.6,31.98 42.3,81.14 74.6,142.22 l 7.5,18.97 6.7,19.25 c 4.8,12.78 8.1,26.13 12.1,39.25 1.8,6.65 3.2,13.35 4.9,20.06 1.6,6.7 3.1,13.41 4.2,20.23 l 3.6,20.39 2.5,20.69 1.3,10.37 0.6,10.43 c 0.4,6.93 0.9,13.87 1.2,20.86 -0.3,13.92 0.4,27.9 -1,41.89 -0.5,6.93 -0.8,13.92 -1.6,20.91 l -2.7,20.8 c -0.9,7.16 -2,13.29 -3.1,19.83 -1.1,6.47 -2.3,13.12 -3.6,19.82 -3.2,16.51 -6,30.83 -10.7,42.29 -3.5,8.65 -12.8,19.25 -31.2,40.11 -30.7,34.72 -37.7,38.68 -45.2,41.03 -12.3,3.84 -25.5,3.26 -31.2,3.04 -5.4,-0.23 -15.9,-0.75 -27.6,-4.76 -14.9,-5.1 -21.4,-12.38 -32.8,-20.63 -19.3,-13.87 -30,-14.15 -47.9,-22.98 -9.6,-4.69 -25.8,-16.67 -61.6,-54.43 -41.5,-43.61 -64.8,-90.14 -71.2,-102.23 -50.8,-97.64 -127.3,-146.12 -221,-264.73 -72.3,-91.68 -60.7,-105.89 -155.5,-259.46 -155,-250.97 -205.2,-244.27 -367.4,-502.76 -75.6,-120.21 -88.6,-159.75 -161.3,-250.34 -23,-28.6 -119,-148.3 -220.7,-223.25 -46.2,-33.98 -75.3,-45.38 -108.6,-82.45 -1.4,-1.55 -30.7,-34.16 -63,-51.12 -14.8,-7.73 -30.7,-13.29 -30.7,-13.29 -10.2,-3.55 -20.4,-6.42 -30.4,-8.19 -19.9,-3.44 -38.5,-2.35 -55.1,3.66 -15.5,5.56 -25.6,14.5 -45.8,32.61 -23.3,21.03 -35,31.57 -42.3,46.7 -6.9,14.49 -7.5,33.52 -8.4,70.94 -0.7,31.97 0.3,56.61 0.7,67.15 2.1,47.68 3.2,71.51 6.3,87.85 7.9,42.11 30.1,69.9 67.6,113.97 109.5,128.47 142.4,152.53 184.9,216.77 28,42.4 46.9,82.22 59.8,114.48 -24.5,9.23 -48.1,20.06 -70.7,32.49 -8,-6.99 -19.4,-18.33 -29.9,-34.43 -20,-30.66 -24.1,-59.88 -25.7,-68.25 -14.5,-77.76 -131.8,-99.48 -199.3,-224.45 -24.7,-45.67 -39.9,-99.87 -53,-146.52 -9,-32.14 -12.8,-51.51 -18.6,-81.71 -15.2,-78.44 -11.7,-99.59 -8.1,-112.88 2.7,-10.43 11.6,-26.76 29.5,-59.36 22.2,-40.57 33.5,-60.69 46.5,-75.81 20.1,-23.44 47,-44.07 78.6,-55.7 31.6,-11.8 66.1,-13.18 96.7,-7.91 30.8,5.27 58.5,15.99 84.1,28.54 33.2,16.33 57.6,33.06 71.3,43.32 67.9,51.23 113.1,113.05 123.4,126.92 77.7,105.09 112.5,104.69 205.9,212.07 82.2,94.32 89.7,134.26 180.9,278.2 182.3,287.59 233.7,256.99 353.6,480.01 74.6,138.61 74.1,186.45 160.3,305.58 8.5,11.69 101,138.56 192,217.06 34.8,30.08 62.1,46.64 101.8,88.99 3.3,3.49 18.1,20.68 53.4,47.9 18.1,13.93 37.6,26.01 53.4,30.48 4,1.32 7.3,1.67 10.3,2.07 2.8,-0.12 5.3,0.05 7,-0.57 3.9,-0.92 6.3,-2.58 10.2,-6.94 3.7,-4.58 7.8,-12.61 11,-22.12 3.3,-9.62 6,-20.68 8.4,-32.37 l 3.5,-18.05 c 1.1,-6.13 2.3,-12.66 3,-18.22 l 2.5,-17.37 c 0.7,-5.78 0.9,-11.63 1.5,-17.47 1.2,-11.63 0.7,-23.38 1.1,-35.07 l -0.8,-17.65 -0.4,-8.77 -1,-8.82 -2,-17.59 -2.9,-17.54 c -0.9,-5.9 -2.2,-11.69 -3.5,-17.53 -1.4,-5.79 -2.6,-11.63 -4,-17.42 -3.4,-11.52 -6.1,-23.15 -10.3,-34.49 l -5.7,-17.19 -6.6,-16.97 c -6.6,-30.19 -18.8,-73.91 -42.4,-122.62 -48.7,-100.62 -107.8,-142.74 -209.9,-245.94 -128,-129.38 -92,-120.56 -202.1,-226.62 -84,-80.97 -126.5,-106.81 -228.9,-212.99 -12.6,-13.06 -54.2,-56.33 -103.2,-117.41 -32.9,-40.85 -64.4,-83.26 -91.3,-129.5 -13.6,-22.92 -25.9,-46.93 -36.5,-71.97 -10.6,-24.98 -19.6,-51.05 -25.2,-78.33 -5.7,-27.22 -8.4,-55.47 -6.9,-83.77 0.6,-7.05 1,-14.16 1.9,-21.2 l 3.5,-20.98 c 1.6,-6.93 3.5,-13.75 5.2,-20.62 1.8,-6.88 4,-13.18 6.3,-19.95 9.6,-26.47 23,-52.54 42.7,-75.06 9.9,-11.23 21.3,-21.55 34.2,-29.85 6.6,-4.02 13.2,-8.03 20.4,-10.83 l 10.6,-4.53 c 3.5,-1.49 7.3,-2.18 10.9,-3.32 29.3,-8.31 59.1,-8.03 86.8,-3.9 27.9,4.13 54.3,12.15 79.2,22.23 25.1,9.97 49.2,21.72 72.2,34.78 33.9,19.31 58.3,35.82 67.1,41.95 111.7,77.47 118.2,75.46 153.9,103.83 39,31.06 86.3,94.43 181,221.18 53.9,72.08 74.2,103.31 89.2,127.61 27.4,44.18 52.2,89.96 74,136.95 22.1,47.04 41,95.35 57.5,144.4 9.2,27.21 25.9,79.93 41.2,149.55 33,150.25 43.8,309.03 31.8,311.09"
         style="fill:#8381fb;fill-opacity:1;fill-rule:nonzero;stroke:none"
         id="path694"
         inkscape:connector-curvature="0" />
    </g>
    <g
       id="g696"
       transform="matrix(0.05494761,0,0,-0.05494761,-850.0666,360.15697)">
      <path
         d="m 16300,3853.63 c -7.1,6.16 -13.9,12.45 -20.7,18.94 -28.5,-44.24 -57.2,-88.41 -86.2,-132.39 -97.5,-147.73 -146.1,-221.62 -196.8,-282.75 -53.6,-64.45 -49.9,-49.37 -106,-117.55 -21.1,-25.55 -76.4,-94.18 -125,-132 0,0 -33,-24.65 -71.8,-39.87 -6.3,-2.5 -12.7,-3.92 -19.1,-5.97 -6.4,-1.48 -13,-2.5 -19.4,-3.66 -6.5,-0.19 -13,-1.22 -19.5,-0.9 0,0 -9.9,0.26 -19.3,1.8 -19.9,3.4 -45,22.79 -54.4,30.05 -55.8,43.07 -61.4,45.58 -70.2,60.03 -8.7,14.25 -12.8,27.54 -14.9,36.14 l -2.7,9.44 -1.5,9.69 c -0.5,3.28 -1.2,6.49 -1.5,9.76 l -0.6,9.95 c 0.2,25.17 3.8,44.95 7,58.56 6.4,26.32 11.3,27.67 19.9,62.02 5.1,20.41 5.6,28.5 12.4,46.03 3.8,9.5 7.5,16.82 14.7,31.01 0,0 9.9,19.65 20,37.3 45.2,79.68 92.5,143.17 92.5,143.17 39.4,52.97 60.1,71.4 119.3,137.91 108.8,122.18 115.2,145.42 213.9,254.63 46.2,51.17 88.8,94.82 125.3,130.65 -3.5,23.05 -5.6,46.55 -6.5,70.37 -69.4,-60.74 -122.1,-114.93 -157.8,-153.71 -53.9,-58.48 -110.1,-131.55 -222.5,-277.61 -111,-144.52 -72.4,-100.99 -104,-139.38 -35,-42.37 -71,-81.86 -88.3,-127.31 -3.4,-8.93 -10.7,-30.31 -24.2,-60.23 -6.4,-14.51 -10,-22.08 -18,-40.32 -5.8,-13.48 -10.8,-27.48 -15.9,-41.41 -4.4,-14.25 -8.9,-28.44 -12.2,-43.08 -6.8,-29.21 -10.8,-59.64 -8.9,-90.52 l 0.9,-11.62 c 0.4,-3.85 1.2,-7.71 1.8,-11.56 l 2,-11.49 3.3,-11.37 c 0.7,-13.54 3.8,-34.92 16.6,-56.49 13.2,-22.28 30.3,-33.07 64.4,-54.64 0,0 48.5,-27.86 85.5,-35.95 7.7,-1.74 15.7,-1.48 23.6,-1.93 7.9,-0.32 15.8,0.9 23.6,1.35 7.6,1.41 15.4,2.76 22.9,4.62 11.3,2.76 19.4,6.04 22,7.06 28.7,11.05 74.5,26.65 88.1,32.36 48.6,20.29 78.7,77.24 117.3,132.9 41.7,60.03 34.7,34.03 136.7,155.82 79.5,94.89 139.5,167.31 196.9,272.16 27,49.3 45.7,91.68 57.3,119.99"
         style="fill:#8381fb;fill-opacity:1;fill-rule:nonzero;stroke:none"
         id="path698"
         inkscape:connector-curvature="0" />
    </g>
    <g
       id="g700"
       transform="matrix(0.06095753,0,0,-0.06095753,-850.0666,360.15697)">
      <path
         d="m 16299.3,4214.01 c -30.3,176.86 -366,457.25 -366,457.25 -366.1,305.86 -250.1,184.62 -462.2,365.7 -74.6,63.66 -118.9,104.23 -198.7,137.39 -84,34.96 -173.8,42.6 -353.5,57.87 0,0 -78,6.6 -149.8,1.28 -12.6,-0.93 -24.7,-2.08 -37,-3.59 -12.4,-1.5 -24.8,-3.07 -37.4,-5.32 -12.6,-2.15 -25.3,-4.75 -38,-8.28 -12.7,-3.3 -25.6,-7.93 -38.5,-13.66 -12.9,-5.9 -25.9,-13.89 -37.8,-25.06 -2.8,-3.01 -5.8,-5.73 -8.5,-9.14 -2.5,-3.47 -5.1,-7.06 -7.5,-10.65 -4.2,-7.81 -8,-16.03 -10,-24.77 -1.9,-8.74 -2.5,-17.53 -2.1,-25.98 0.6,-8.28 1.9,-16.38 4.1,-23.67 4.1,-14.88 10.3,-27.9 17.1,-39.88 13.8,-23.78 30.2,-43.92 47.2,-62.9 17.1,-18.87 35,-36.41 53.4,-53.19 36.7,-33.62 75,-64.47 113.9,-94.33 38.8,-29.75 78.4,-58.4 118.2,-86.47 128.5,-90.45 241.1,-162.5 241.9,-163.02 246.8,-161.06 330.4,-279.18 532.8,-382.95 48.9,-25.11 127,-60.65 197.7,-116.26 26.3,-20.72 63,-53.19 94.2,-83.11 10.6,-10.19 27.8,-27.08 48.1,-50.35 15.1,-17.24 29,-35.13 40.3,-53.53 11.2,-18.29 20,-37.39 22.8,-54.63 1.4,-8.57 1.3,-16.5 -0.2,-23.73 -1.2,-6.42 -5.5,-16.09 -10.1,-25.18 -19.5,-36.69 -50.1,-68.4 -85.3,-78.76 -8.8,-3.01 -18.2,-4.05 -27.7,-4.86 0,0 -14.5,-0.81 -29.4,1.96 -33.3,6.2 -75,37.28 -80.6,41.5 -38.3,28.36 -53.5,27.14 -97.1,51.27 -33.3,18.41 -79.1,49.49 -133.4,104.52 0.1,-5.09 0.4,-10.12 0.4,-15.27 0,-19.68 -1,-39.07 -3,-58.22 36.7,-35.48 51.5,-54.4 70.2,-72.58 34.4,-33.45 74.9,-52.37 155.7,-90.34 14,-6.54 41.4,-18.23 77.1,-25.11 13.8,-2.61 28.3,-3.24 42.9,-3.07 14.6,0.98 29.5,2.72 43.8,7.35 14.4,4.05 28.2,10.42 40.7,17.94 12.8,7.46 24,16.55 34.4,26.22 20.8,19.5 37.2,41.9 50.3,66.32 3.2,6.19 6.3,12.44 9.1,19.21 2.9,6.48 5.5,14.76 7.4,22.98 3.5,16.49 3.4,33.16 1,48.44 -5.2,32.06 -19.5,58.1 -31.6,79.17 -32.1,56.42 -48.2,84.67 -56.2,95.43 -46.7,63.2 -106.5,92.37 -154.5,119.39 -60.1,33.86 -142.6,87.27 -237.1,172.52 -346.4,230.22 -305.7,232.42 -466.2,320.73 -49.4,27.32 -152.2,81.54 -263.4,156.26 -51.2,34.37 -91.8,64.82 -117.1,83.86 -38.3,28.76 -75.8,58.39 -110.9,89.81 -17.6,15.74 -34.4,32.01 -50,48.85 -15.5,16.9 -29.9,34.55 -40.5,52.61 -10.7,17.88 -16.5,36.69 -13.6,48.72 0.6,3.13 2.2,5.85 3.4,8.8 1,1.39 2,2.78 2.9,4.23 1,1.44 2.6,2.72 3.8,4.16 5.7,5.5 13.3,10.77 22.4,15.05 18.3,8.62 40.1,14.53 62.6,18.69 11.2,2.2 22.8,3.82 34.4,5.44 0,0 18.3,2.43 35.2,3.94 55.1,4.86 123.6,-12.21 123.6,-12.21 119.4,-29.75 175.9,-13.72 292.4,-51.68 72.1,-23.56 126.4,-58.51 234.9,-128.42 79.8,-51.45 88.4,-63.66 276.5,-202.33 152,-111.92 155.6,-110.71 200.5,-149.6 103.9,-89.64 145,-142.89 203.2,-206.6 65.2,-71.36 128.3,-144.8 188.4,-220.67 1.3,-1.57 3.5,-1.91 5.2,-0.7 0,0 1.5,1.1 0.8,5.21"
         style="fill:#ff3296;fill-opacity:1;fill-rule:nonzero;stroke:none"
         id="path702"
         inkscape:connector-curvature="0" />
    </g>
    <g
       id="g704"
       transform="matrix(0.0562864,0,0,-0.0562864,-850.0666,360.15697)">
      <path
         d="m 15881.1,4643.81 c 6.5,6.52 13.1,12.85 19.9,19.12 -38.3,24.75 -76.6,49.64 -114.7,74.71 -134.6,88.81 -202,133.12 -257.7,179.44 -58.8,48.76 -45,45.37 -107.2,96.58 -23.2,19.18 -85.8,69.57 -120.3,113.94 0,0 -22.5,30.03 -36.3,65.37 -2.3,5.71 -3.6,11.6 -5.4,17.43 -1.4,5.83 -2.3,11.78 -3.4,17.67 -0.2,5.89 -1.1,11.85 -0.8,17.74 0,0 0.3,9.02 1.6,17.61 3.1,18.18 20.8,40.99 27.4,49.58 39.3,50.83 41.6,55.97 54.7,63.99 13,7.89 25.2,11.72 32.9,13.6 l 8.6,2.38 8.9,1.44 c 3,0.44 5.9,1.07 8.9,1.32 l 9.1,0.56 c 22.9,-0.18 40.9,-3.45 53.4,-6.39 23.9,-5.77 25.1,-10.28 56.5,-18.11 18.5,-4.64 25.9,-5.02 41.9,-11.35 8.7,-3.38 15.3,-6.77 28.3,-13.35 0,0 17.9,-9.02 34,-18.17 72.6,-41.24 130.4,-84.36 130.4,-84.36 48.4,-35.92 65.2,-54.78 125.8,-108.75 111.3,-99.15 132.5,-105.04 232.1,-194.92 42.7,-38.67 92.1,-89 125.2,-122.78 21.4,2.7 43.1,4.26 65.1,4.7 -53.6,60.67 -113.4,122.47 -147.2,153.68 -53.4,49.14 -119.9,100.28 -253.1,202.69 -131.7,101.23 -92,66 -127,94.9 -38.7,31.83 -74.6,64.55 -116.1,80.35 -8,3.13 -27.5,9.77 -54.8,22.06 -13.2,5.89 -20.2,9.21 -36.7,16.42 -12.4,5.39 -25.2,9.84 -37.8,14.48 -13,4.01 -25.9,8.14 -39.3,11.15 -26.6,6.21 -54.3,9.84 -82.5,8.09 l -10.5,-0.75 c -3.5,-0.38 -7.1,-1.13 -10.6,-1.7 l -10.5,-1.81 -10.3,-3.01 c -12.4,-0.63 -31.9,-3.51 -51.5,-15.17 -20.3,-12.03 -30.1,-27.58 -49.8,-58.66 0,0 -25.4,-44.13 -32.8,-77.91 -1.6,-7.02 -1.3,-14.35 -1.7,-21.5 -0.3,-7.21 0.8,-14.35 1.2,-21.5 1.3,-7.01 2.5,-14.1 4.2,-20.93 2.5,-10.28 5.5,-17.61 6.5,-20.05 10,-26.08 24.2,-67.82 29.4,-80.29 18.5,-44.31 70.4,-71.64 121.2,-106.93 54.7,-37.98 30.9,-31.52 142,-124.53 86.5,-72.45 152.4,-127.11 248,-179.44 40.3,-22.07 75.4,-37.98 100.8,-48.64"
         style="fill:#ff3296;fill-opacity:1;fill-rule:nonzero;stroke:none"
         id="path706"
         inkscape:connector-curvature="0" />
    </g>
    <g
       id="g708"
       transform="matrix(0.05841471,0,0,-0.05841471,-850.0666,360.15697)">
      <path
         d="m 16294.6,2922.36 c -5.1,14.68 -12.2,21.14 -20.3,32.31 -13.7,18.97 -14,29.41 -22.7,47.11 -4.6,9.42 -16.4,25.42 -53.5,60.69 -42.9,40.7 -88.7,63.77 -100.6,69.99 -96.1,50.01 -143.8,125.26 -260.5,217.41 -86.4,68.25 -103,60.64 -237.2,141.99 -171.7,34.96 -316.1,145.42 -396.8,295.13 -32.1,23.07 -69.7,48.43 -116,77.48 -118.3,74.29 -157.2,87.09 -246.4,158.65 -28.1,22.59 -145.9,117.1 -219.6,217.17 -33.5,45.42 -44.6,74.04 -81.1,106.83 -1.6,1.39 -33.7,30.2 -50.3,61.97 -7.6,14.55 -13.1,30.25 -13.1,30.25 -3.5,10.09 -6.3,20.11 -8.1,29.9 -3.3,19.63 -2.3,37.86 3.7,54.29 5.4,15.22 14.2,25.18 32,44.93 20.7,23.07 31.1,34.54 45.9,41.67 14.3,6.83 33,7.37 69.8,8.28 31.5,0.72 55.8,-0.25 66.2,-0.73 46.9,-2.05 70.3,-3.08 86.4,-6.1 41.4,-7.73 68.8,-29.65 112.1,-66.55 126.4,-107.68 150.1,-140.17 213.3,-181.9 32.9,-21.74 64.1,-37.81 91.5,-49.88 12,25.36 25.8,49.7 41.2,72.89 -6,5.49 -13.2,11.47 -22,17.15 -30.1,19.57 -58.9,23.67 -67.1,25.18 -76.5,14.32 -97.9,129.72 -220.8,196.22 -44.9,24.27 -98.3,39.19 -144.2,52.12 -31.6,8.81 -50.7,12.56 -80.4,18.29 -77.2,14.98 -98,11.48 -111.1,8.03 -10.3,-2.77 -26.3,-11.53 -58.4,-29.1 -39.9,-21.87 -59.7,-32.98 -74.6,-45.72 -23,-19.75 -43.4,-46.32 -54.8,-77.36 -11.6,-31.1 -13,-65.04 -7.8,-95.12 5.2,-30.32 15.7,-57.55 28.1,-82.8 16.1,-32.73 32.6,-56.71 42.6,-70.11 50.5,-66.92 111.3,-111.36 124.9,-121.45 103.4,-76.52 103,-110.76 208.7,-202.67 92.8,-80.81 132.1,-88.24 273.7,-177.98 283,-179.36 252.9,-229.91 472.4,-347.98 136.3,-73.31 183.4,-72.89 300.6,-157.68 11.5,-8.33 136.4,-99.34 213.6,-188.91 29.6,-34.24 45.9,-61.05 87.5,-100.18 3.5,-3.21 20.4,-17.7 47.2,-52.55 13.7,-17.75 25.6,-36.96 30,-52.54 1.3,-3.86 1.6,-7.18 2,-10.14 -0.1,-2.72 0.1,-5.14 -0.6,-6.89 -0.8,-3.74 -2.5,-6.1 -6.7,-9.96 -4.6,-3.69 -12.5,-7.67 -21.8,-10.87 -9.5,-3.26 -20.4,-5.86 -31.9,-8.28 l -17.7,-3.38 c -6.1,-1.09 -12.5,-2.29 -17.9,-2.96 l -17.1,-2.47 c -5.7,-0.73 -11.5,-0.91 -17.2,-1.45 -11.5,-1.27 -23.1,-0.79 -34.6,-1.09 l -17.3,0.78 -8.7,0.43 -8.7,0.9 -17.2,1.94 -17.3,2.95 c -5.8,0.79 -11.5,2.06 -17.2,3.45 -5.7,1.33 -11.5,2.47 -17.2,3.92 -11.3,3.32 -22.8,5.98 -34,10.03 l -16.8,5.67 -16.7,6.47 c -29.8,6.52 -72.8,18.48 -120.7,41.73 -99,48.01 -140.4,106.11 -241.9,206.54 -127.4,125.98 -118.8,90.53 -223.1,198.81 -79.6,82.73 -105,124.59 -209.5,225.38 -12.9,12.38 -55.5,53.27 -115.5,101.52 -40.3,32.25 -82,63.29 -127.5,89.74 -22.6,13.41 -46.2,25.55 -70.8,35.93 -24.6,10.45 -50.3,19.27 -77.1,24.77 -26.7,5.67 -54.6,8.33 -82.4,6.82 -7,-0.6 -14,-0.91 -20.8,-1.81 l -20.8,-3.51 c -6.7,-1.57 -13.5,-3.38 -20.3,-5.13 -6.7,-1.69 -12.9,-3.86 -19.5,-6.16 -26.1,-9.42 -51.7,-22.65 -73.9,-42.03 -11,-9.73 -21.2,-20.96 -29.4,-33.7 -3.9,-6.46 -7.9,-12.98 -10.6,-19.99 l -4.5,-10.45 c -1.4,-3.5 -2.2,-7.19 -3.2,-10.75 -8.2,-28.8 -8,-58.09 -3.9,-85.39 2.8,-19.21 9.1,-38.77 21.9,-77.97 8.2,-25.06 15.3,-44.33 24.7,-69.27 14.4,-38.53 21.6,-57.79 24.9,-64.37 3.2,-6.28 28.6,-55.32 71.6,-93.37 7.2,-6.4 24.7,-21.14 44.2,-45.23 6.7,-8.28 11.1,-14.68 12.3,-16.25 30.5,-38.35 92.9,-84.91 217.6,-178.1 70.9,-52.96 101.6,-72.95 125.5,-87.74 43.5,-26.88 88.6,-51.34 134.8,-72.9 46.3,-21.62 93.8,-40.22 142.1,-56.52 26.8,-9 78.7,-25.49 147.1,-40.53 147.9,-32.49 304.1,-43.06 306.2,-31.28 0.2,1.51 -1.8,3.99 -3.8,4.11 -56.7,3.08 -191,14.73 -298.4,44.2 -51.2,14.02 -38,22.83 -127.9,54.54 -78.3,27.66 -94.4,23.07 -154,48.85 -48.2,20.72 -81.4,42.58 -130.1,74.53 -41.8,27.42 -82,57.37 -120.7,88.89 -77.5,63.42 -150.1,132.99 -214.7,208.9 -32.4,37.99 -62.7,77.48 -90,118.73 -13,19.63 -26.1,37.26 -37.7,63.41 -16.3,36.3 -7.6,35.63 -22.3,62.87 -11.4,21.02 -27.2,41.13 -25.8,71.26 0.1,0.73 0.1,1.27 0.1,1.63 0.5,7.13 3.4,26.27 24.1,61.06 24.7,41.43 39.8,67.03 70.9,83.76 45.8,24.76 96,14.2 134.9,5.56 22.6,-5.01 44.9,-13.05 66.7,-22.77 20.5,-9.42 41.9,-20.59 63.7,-33.76 87.2,-52.9 147.2,-118.43 186.9,-172.3 307.8,-252.44 424.8,-377.87 470.6,-445.57 11.9,-17.45 42.5,-65.94 100.4,-111.36 31,-24.4 53.9,-35.39 141.9,-81.05 31.4,-16.36 79.9,-41.6 139.9,-73.43 l 18.6,-7.43 19.1,-6.58 c 12.5,-4.65 25.6,-7.97 38.6,-11.84 6.5,-1.75 13.1,-3.2 19.7,-4.77 6.6,-1.63 13.2,-3.14 19.9,-4.17 l 20.1,-3.62 20.3,-2.48 10.2,-1.21 10.2,-0.6 c 6.9,-0.36 13.8,-0.84 20.6,-1.15 13.7,0.19 27.5,-0.36 41.2,0.91 6.9,0.54 13.7,0.79 20.6,1.57 l 20.4,2.72 c 7.2,0.9 13.2,1.99 19.6,3.02 6.3,1.14 12.9,2.29 19.5,3.56 16.2,3.14 30.3,5.98 41.6,10.51 8.5,3.38 18.9,12.56 39.5,30.74 34.1,30.19 38,37.08 40.4,44.51 3.7,12.07 3.2,25 2.9,30.73 -0.2,5.26 -0.7,15.59 -4.6,27.06"
         style="fill:#ff3296;fill-opacity:1;fill-rule:nonzero;stroke:none"
         id="path710"
         inkscape:connector-curvature="0" />
    </g>
    <g
       id="g712"
       transform="matrix(0.0602615,0,0,-0.0602615,-850.0666,360.15697)">
      <path
         d="m 16290.5,3305.05 c -5.4,19.14 -14.6,37.24 -33.4,72.42 -13.3,25 -23.4,44.08 -33.7,59.42 -18.9,28.45 -26.7,26.63 -123.3,103.26 -31.3,24.82 -60.7,48.89 -108.4,82.84 -4.3,3.04 -7.5,5.33 -9.6,6.79 -50.7,35.71 -120.1,83.48 -206.9,140.26 -3.2,-10.3 -6.8,-20.43 -10.6,-30.44 49.6,-31.67 130.9,-85.82 195.9,-139.44 63.2,-52.16 47.4,-51.4 102.3,-93.78 39.5,-30.39 74.3,-51.29 115.9,-95.95 8.8,-9.43 25.3,-28.51 42.2,-55.85 12,-19.55 21.4,-40.04 26.9,-61 5.5,-20.96 6.6,-42.33 3,-63.28 -0.9,-4.51 -2.4,-10.19 -3.9,-15.4 0,0 -2.5,-8.72 -5.3,-15.81 -4.8,-12.29 -12.2,-17.32 -21.9,-29.79 -18,-22.95 -15.2,-33.96 -33.2,-48.89 -5,-4.21 -9.7,-7.02 -12.8,-8.72 l -6.7,-3.92 c -1.5,-0.88 -3.9,-2.11 -7,-3.39 -21.7,-9.02 -42.7,-4.4 -51.1,-2.7 -48.1,9.84 -60.9,0.76 -107.2,14.28 -31.8,9.25 -49.1,20.32 -123.1,69.26 -76.3,50.4 -114.4,75.58 -116.2,77.04 -74.7,60.88 -78.5,96.42 -154.9,170.88 -13.2,12.76 -29,27.28 -47.8,42.74 -15.8,-11.13 -32.2,-21.43 -49.1,-30.91 5.2,-3.81 10.6,-7.67 16.1,-11.83 74.9,-56.02 111.3,-97.24 197.2,-175.56 28.2,-25.76 70.1,-63.11 123,-107.08 58,-52.33 79.7,-74.69 121.1,-83.53 36.1,-7.73 43.5,4.21 92,-7.5 28,-6.79 55.3,-17.91 80.2,-12.76 20.8,4.33 40.3,13.47 40.3,13.47 3.1,1.63 6.4,3.04 9.4,4.8 l 9.2,5.5 c 17.8,4.51 29,12.29 35.6,18.09 7.6,6.61 16.4,23.77 33.9,57.84 4.9,9.71 10.9,21.54 16.3,36.82 2.2,6.32 4.3,12.7 6.1,19.14 1.7,6.62 3.3,12.82 4.6,20.38 4.4,27.45 2.4,56.02 -5.1,82.3"
         style="fill:#ff3296;fill-opacity:1;fill-rule:nonzero;stroke:none"
         id="path714"
         inkscape:connector-curvature="0" />
    </g>
  </g>
</svg>
