<?xml version="1.0" encoding="UTF-8" standalone="no"?>
<!-- Created with Inkscape (http://www.inkscape.org/) -->

<svg
   xmlns:dc="http://purl.org/dc/elements/1.1/"
   xmlns:cc="http://creativecommons.org/ns#"
   xmlns:rdf="http://www.w3.org/1999/02/22-rdf-syntax-ns#"
   xmlns:svg="http://www.w3.org/2000/svg"
   xmlns="http://www.w3.org/2000/svg"
   xmlns:sodipodi="http://sodipodi.sourceforge.net/DTD/sodipodi-0.dtd"
   xmlns:inkscape="http://www.inkscape.org/namespaces/inkscape"
   width="200.00636mm"
   height="199.96434mm"
   viewBox="0 0 200.00636 199.96434"
   version="1.1"
   id="svg1139"
   sodipodi:docname="purpleDonut.svg"
   inkscape:version="0.92.5 (2060ec1f9f, 2020-04-08)">
  <defs
     id="defs1133" />
  <sodipodi:namedview
     id="base"
     pagecolor="#ffffff"
     bordercolor="#666666"
     borderopacity="1.0"
     inkscape:pageopacity="0.0"
     inkscape:pageshadow="2"
     inkscape:zoom="0.35"
     inkscape:cx="137.78448"
     inkscape:cy="546.37192"
     inkscape:document-units="mm"
     inkscape:current-layer="layer1"
     showgrid="false"
     inkscape:window-width="1312"
     inkscape:window-height="704"
     inkscape:window-x="0"
     inkscape:window-y="27"
     inkscape:window-maximized="1"
     fit-margin-top="0"
     fit-margin-left="0"
     fit-margin-right="0"
     fit-margin-bottom="0" />
  <metadata
     id="metadata1136">
    <rdf:RDF>
      <cc:Work
         rdf:about="">
        <dc:format>image/svg+xml</dc:format>
        <dc:type
           rdf:resource="http://purl.org/dc/dcmitype/StillImage" />
        <dc:title></dc:title>
      </cc:Work>
    </rdf:RDF>
  </metadata>
  <g
     inkscape:label="Layer 1"
     inkscape:groupmode="layer"
     id="layer1"
     transform="translate(35.747226,-88.160688)">
    <g
       id="g716"
       transform="matrix(0.0427923,0,0,-0.0427923,-613.93742,416.14838)">
      <path
         d="m 15874,6221.07 c 156.7,0 302.8,-45.34 426,-123.41 -145.9,164.3 -358.9,267.85 -595.9,267.85 -440,0 -796.7,-356.64 -796.7,-796.62 0,-283.43 148.2,-532.39 371.1,-673.61 -125,140.64 -201.2,326.13 -201.2,529.1 0,439.98 356.8,796.69 796.7,796.69"
         style="fill:#e6e6e6;fill-opacity:1;fill-rule:nonzero;stroke:none"
         id="path718"
         inkscape:connector-curvature="0" />
    </g>
    <g
       id="g720"
       transform="matrix(0.04774212,0,0,-0.04774212,-613.93742,416.14838)">
      <path
         d="m 15586.2,6162.26 c 283.9,-340.79 454.7,-779.2 454.7,-1257.43 0,-1085.33 -879.7,-1965.17 -1965.1,-1965.17 -475.5,0 -911.4,168.85 -1251.3,449.86 360.5,-432.57 903.2,-707.96 1510.3,-707.96 1085.4,0 1965.2,879.83 1965.2,1965.16 0,609.91 -277.8,1155.09 -713.8,1515.54"
         style="fill:#e6e6e6;fill-opacity:1;fill-rule:nonzero;stroke:none"
         id="path722"
         inkscape:connector-curvature="0" />
    </g>
    <g
       id="g724"
       transform="matrix(0.04698365,0,0,-0.04698365,-613.93742,416.14838)">
      <path
         d="m 14303.1,4346.45 c -400.8,0 -725.6,324.82 -725.6,725.62 0,400.73 324.8,725.55 725.6,725.55 400.7,0 725.6,-324.82 725.6,-725.55 0,-400.8 -324.9,-725.62 -725.6,-725.62 z m 0,2634.44 c -1102.8,0 -1996.9,-894.04 -1996.9,-1996.89 0,-1102.85 894.1,-1996.89 1996.9,-1996.89 1102.9,0 1996.9,894.04 1996.9,1996.89 0,1102.85 -894,1996.89 -1996.9,1996.89"
         style="fill:#ffae75;fill-opacity:1;fill-rule:nonzero;stroke:none"
         id="path726"
         inkscape:connector-curvature="0" />
    </g>
    <g
       id="g728"
       transform="matrix(0.04698365,0,0,-0.04698365,-613.93742,416.14838)">
      <path
         d="m 16134.3,5781.25 c 4.6,-164.89 6.9,-889.61 -542.5,-1505.45 -112.8,-126.45 -500.7,-530.63 -1137.8,-661.73 -1095.5,-225.48 -1930.6,561.86 -2009.8,639.05 291.7,-741.31 1014,-1266.01 1858.9,-1266.01 1102.9,0 1996.9,894.04 1996.9,1996.89 0,283.45 -59.2,553 -165.7,797.25"
         style="fill:#ff9075;fill-opacity:1;fill-rule:nonzero;stroke:none"
         id="path730"
         inkscape:connector-curvature="0" />
    </g>
    <g
       id="g732"
       transform="matrix(0.04517143,0,0,-0.04517143,-613.93742,416.14838)">
      <path
         d="m 15320.7,6863.43 c 19.6,-20.15 79.2,-76.62 249.7,-115.04 202,-45.61 234.7,7.42 370.1,-30.62 211.2,-59.43 309.8,-238.5 338.3,-216.32 21.2,16.55 -19.1,126.04 -91.2,214.68 -112.3,138.08 -306,231.02 -499.2,230.78 -121.8,-0.08 -165.2,-37.25 -260.4,-1.87 -123.7,46 -174.2,154.71 -195.7,141.43 -21.5,-13.2 4.5,-136.2 88.4,-223.04"
         style="fill:#ffd080;fill-opacity:1;fill-rule:nonzero;stroke:none"
         id="path734"
         inkscape:connector-curvature="0" />
    </g>
    <g
       id="g736"
       transform="matrix(0.04100442,0,0,-0.04100442,-613.93742,416.14838)">
      <path
         d="m 15723.3,7687.61 c -162.4,-43.71 -721.3,-248.3 -993.3,-721.31 -271.9,-473.02 -17.7,-579.45 -94.6,-898.72 -76.8,-319.27 -402,-526.19 -337,-780.42 65,-254.23 620.9,37.68 615.3,629.17 -5.7,591.49 481.6,1115.01 481.6,1115.01 0,0 886.5,277.29 895.6,407.97 9.1,130.69 -20,395.59 -567.6,248.3"
         style="fill:#ffd080;fill-opacity:1;fill-rule:nonzero;stroke:none"
         id="path738"
         inkscape:connector-curvature="0" />
    </g>
    <g
       id="g740"
       transform="matrix(0.04620013,0,0,-0.04620013,-613.93742,416.14838)">
      <path
         d="m 14545.7,4420.18 c -407.6,0 -737.9,330.33 -737.9,737.93 0,407.53 330.3,737.86 737.9,737.86 407.6,0 737.9,-330.33 737.9,-737.86 0,-407.6 -330.3,-737.93 -737.9,-737.93 z m 1720.4,1027.1 c -44.9,170.97 -204.2,234.42 -220,240.38 v 0 c -43.5,31.15 -118.3,93.23 -176.6,196.62 -55.1,97.59 -70.7,188.3 -75.8,240.61 v 0.08 c 17.1,130.42 -36,259.77 -139.4,337.5 -144.5,108.73 -311,58.87 -327,53.76 v 0 c -55.6,-2.45 -150.1,0.46 -257.8,40.31 -104.3,38.57 -176.1,95.22 -216.7,132.41 v 0 c -13.5,16.11 -130.7,151.27 -321.2,143.25 -170.7,-7.25 -271.6,-124.08 -287.6,-143.25 v 0 c -26.8,-33.83 -94.1,-109.57 -209.9,-152.56 -119.1,-44.22 -222.3,-28.79 -264.6,-20.16 v 0 c -23.2,3.43 -194.9,25.35 -333.7,-100.87 -124.9,-113.47 -131.8,-263.67 -132.6,-290.39 v -0.08 c 1.5,-43.91 -1.4,-138.82 -55.6,-240.61 -63.2,-118.43 -158.6,-176.08 -196.8,-196.62 v 0 c -124.9,-42.84 -215.5,-151.65 -233.5,-280.7 -26.5,-190.28 120.2,-312.76 127.7,-318.79 v 0 c 29.7,-35.28 84.2,-109.58 107.6,-219.08 27.7,-129.65 -4,-234.65 -19.8,-278.17 h -0.1 c -6.5,-12.22 -90,-174.63 -0.3,-340.33 95.7,-176.7 296,-186.62 304.7,-186.93 v 0 c 41.7,-5.34 152.7,-25.12 253.3,-115.61 86.8,-77.96 120.8,-167.98 133.5,-208.91 v 0 c 9.4,-22.84 75.4,-176.32 249.8,-234.81 162.7,-54.52 298.8,14.28 322.3,26.58 v 0 c 57.3,18.93 143.2,40.24 249,40.7 109.2,0.45 197.7,-21.46 255.8,-40.7 v 0 c 22.9,-11.08 186.7,-87.05 362.8,-6.34 138.4,63.38 195.4,182.95 209.3,214.57 v 0 c 14,41.08 52,135.61 147,215.63 96,81.02 196.9,102.32 239.9,108.89 v 0 c 20.5,4.2 208,46.05 291.2,227.32 64.3,140.12 23.3,270.31 13.1,299.94 v 0 c -14.6,48.72 -37.6,148.75 -13.1,271.45 21.8,109.04 71,185.86 100.8,225.8 v 0 c 103.7,90.56 148.2,230.07 114.3,359.11"
         style="fill:#9b52dd;fill-opacity:1;fill-rule:nonzero;stroke:none"
         id="path742"
         inkscape:connector-curvature="0" />
    </g>
    <g
       id="g744"
       transform="matrix(0.04423022,0,0,-0.04423022,-613.93742,416.14838)">
      <path
         d="m 15193.6,4617.05 c -425.8,0 -770.8,345.04 -770.8,770.79 0,425.68 345,770.72 770.8,770.72 425.7,0 770.7,-345.04 770.7,-770.72 0,-425.75 -345,-770.79 -770.7,-770.79 z m 0,1877.22 c -611.1,0 -1106.5,-495.39 -1106.5,-1106.43 0,-611.11 495.4,-1106.5 1106.5,-1106.5 611,0 1106.4,495.39 1106.4,1106.5 0,611.04 -495.4,1106.43 -1106.4,1106.43"
         style="fill:#a47ae3;fill-opacity:1;fill-rule:nonzero;stroke:none"
         id="path746"
         inkscape:connector-curvature="0" />
    </g>
    <g
       id="g748"
       transform="matrix(0.04546388,0,0,-0.04546388,-613.93742,416.14838)">
      <path
         d="m 16231.7,5478.6 c -41.6,152.55 -258,451.06 -473.4,573.89 -215.3,122.83 -561.7,274.38 -746.4,499.48 -184.7,225.03 -475.7,134.55 -753.6,-126.56 -277.9,-261.18 -438.5,-316.9 -526.8,-358.64 -88.3,-41.67 -228,-125.16 139.5,-174.98 367.6,-49.81 484.4,183.2 646.6,267.78 162.2,84.58 426,127.41 688.2,-123.37 262.1,-250.79 588.3,-280.28 746.2,-388.83 158,-108.48 348,-419.48 279.7,-168.77"
         style="fill:#cf7af7;fill-opacity:1;fill-rule:nonzero;stroke:none"
         id="path750"
         inkscape:connector-curvature="0" />
    </g>
    <g
       id="g752"
       transform="matrix(0.04440802,0,0,-0.04440802,-613.93742,416.14838)">
      <path
         d="m 16139.3,4670.44 c -70.4,-71.49 -168.5,-254.05 -367.3,-440.17 -198.7,-186.13 -646.4,-121.87 -937.7,142.51 -291.3,264.38 -486.1,160.23 -392.6,-99.06 93.6,-259.37 383,-244.83 681.8,-270.18 298.8,-25.34 823.1,27.81 934.3,276.3 111.3,248.4 242.2,553.77 81.5,390.6"
         style="fill:#cf7af7;fill-opacity:1;fill-rule:nonzero;stroke:none"
         id="path754"
         inkscape:connector-curvature="0" />
    </g>
    <g
       id="g756"
       transform="matrix(0.04436463,0,0,-0.04436463,-613.93742,416.14838)">
      <path
         d="m 16130.2,6103.64 c -66.8,37.78 -308.3,141.94 -552.6,315.29 -244.4,173.35 -163,-14.71 37.5,-176.21 200.4,-161.5 684.9,-234.98 515.1,-139.08"
         style="fill:#e39af7;fill-opacity:1;fill-rule:nonzero;stroke:none"
         id="path758"
         inkscape:connector-curvature="0" />
    </g>
    <g
       id="g760"
       transform="matrix(0.04148984,0,0,-0.04148984,-613.93742,416.14838)">
      <path
         d="m 16158,4414.31 c -338.8,170.98 -351.3,194.62 -447.3,259.07 -288.2,183.07 -268.6,-41.15 -18.1,-213.25 250.5,-172.01 607.4,-117.5 465.4,-45.82"
         style="fill:#e39af7;fill-opacity:1;fill-rule:nonzero;stroke:none"
         id="path762"
         inkscape:connector-curvature="0" />
    </g>
    <g
       id="g764"
       transform="matrix(0.04106933,0,0,-0.04106933,-613.93742,416.14838)">
      <path
         d="m 16086.7,7179.01 c -148.5,-15.89 -154.1,-176.78 -350.1,-310.01 -209.2,-142.16 -440.7,-133.91 -444.4,-179.78 -0.5,-6.1 -5.4,-13.74 12.9,-22.59 66.9,-32.47 153.9,-74.65 251.2,-57.9 104.4,18.04 140.4,91.14 245.5,184.51 247.2,219.56 498.2,206.84 493.6,287.07 -2.9,52.06 -111.4,109.09 -208.7,98.7"
         style="fill:#e39af7;fill-opacity:1;fill-rule:nonzero;stroke:none"
         id="path766"
         inkscape:connector-curvature="0" />
    </g>
    <g
       id="g768"
       transform="matrix(0.04370211,0,0,-0.04370211,-613.93742,416.14838)">
      <path
         d="m 16194.8,4672.09 c 2.8,2.82 6.4,5.16 10.4,6.54 14.6,5.25 30.7,-2.34 36,-16.95 l 53.6,-150.15 c 5.2,-14.61 -2.5,-30.68 -17.1,-35.92 -14.6,-5.17 -30.7,2.42 -35.8,17.03 l -53.7,150.15 c -3.7,10.57 -0.8,21.87 6.6,29.3"
         style="fill:#233efb;fill-opacity:1;fill-rule:nonzero;stroke:none"
         id="path770"
         inkscape:connector-curvature="0" />
    </g>
    <g
       id="g772"
       transform="matrix(0.04294082,0,0,-0.04294082,-613.93742,416.14838)">
      <path
         d="m 16092.2,4621.18 c 0,4.11 0.9,8.3 2.8,12.25 6.8,14.21 23.8,20.29 38.1,13.55 l 146.6,-69.42 c 14.2,-6.74 20.3,-23.82 13.6,-38.04 -6.8,-14.29 -23.9,-20.37 -38.1,-13.64 l -146.6,69.42 c -10.4,4.93 -16.4,15.2 -16.4,25.88"
         style="fill:#e7314f;fill-opacity:1;fill-rule:nonzero;stroke:none"
         id="path774"
         inkscape:connector-curvature="0" />
    </g>
    <g
       id="g776"
       transform="matrix(0.04340719,0,0,-0.04340719,-613.93742,416.14838)">
      <path
         d="m 16267.7,4424.75 c 4.1,0 8.2,-0.89 12.1,-2.76 14.2,-6.66 20.2,-23.57 13.5,-37.63 l -68.7,-145.07 c -6.7,-14.14 -23.6,-20.15 -37.6,-13.49 -14.2,6.75 -20.2,23.57 -13.5,37.71 l 68.7,144.99 c 4.8,10.24 15,16.25 25.5,16.25"
         style="fill:#ffff29;fill-opacity:1;fill-rule:nonzero;stroke:none"
         id="path778"
         inkscape:connector-curvature="0" />
    </g>
    <g
       id="g780"
       transform="matrix(0.04394306,0,0,-0.04394306,-613.93742,416.14838)">
      <path
         d="m 16099.5,4862.11 c -2.9,2.89 -5.1,6.34 -6.5,10.36 -5.3,14.53 2.3,30.5 16.8,35.72 l 149.3,53.31 c 14.6,5.22 30.5,-2.41 35.8,-16.86 5.1,-14.53 -2.4,-30.51 -17,-35.73 l -149.3,-53.3 c -10.5,-3.77 -21.8,-0.89 -29.1,6.5"
         style="fill:#ffff29;fill-opacity:1;fill-rule:nonzero;stroke:none"
         id="path782"
         inkscape:connector-curvature="0" />
    </g>
    <g
       id="g784"
       transform="matrix(0.04447963,0,0,-0.04447963,-613.93742,416.14838)">
      <path
         d="m 16263.8,4831.46 c 3.8,0.87 8,0.95 12.1,0 14.8,-3.41 24.1,-18.16 20.8,-32.99 l -34.7,-152.76 c -3.3,-14.91 -18.2,-24.19 -33,-20.86 -14.9,3.41 -24.2,18.17 -20.8,33.08 l 34.6,152.75 c 2.5,10.71 10.9,18.56 21,20.78"
         style="fill:#e7314f;fill-opacity:1;fill-rule:nonzero;stroke:none"
         id="path786"
         inkscape:connector-curvature="0" />
    </g>
    <g
       id="g788"
       transform="matrix(0.04515697,0,0,-0.04515697,-613.93742,416.14838)">
      <path
         d="m 16095.1,4653.93 c -0.6,3.83 -0.3,7.89 0.8,11.87 4.4,14.38 19.6,22.43 33.9,18.13 l 147.7,-44.77 c 14.4,-4.37 22.5,-19.53 18.1,-33.9 -4.3,-14.38 -19.5,-22.5 -33.9,-18.13 l -147.6,44.77 c -10.4,3.12 -17.5,11.95 -19,22.03"
         style="fill:#233efb;fill-opacity:1;fill-rule:nonzero;stroke:none"
         id="path790"
         inkscape:connector-curvature="0" />
    </g>
    <g
       id="g792"
       transform="matrix(0.04460663,0,0,-0.04460663,-613.93742,416.14838)">
      <path
         d="m 16290.6,4392.08 c 2.5,-3.01 4.5,-6.64 5.5,-10.68 3.9,-14.71 -5,-29.73 -19.7,-33.61 l -151.1,-39.39 c -14.7,-3.87 -29.7,4.91 -33.5,19.62 -3.9,14.71 4.9,29.74 19.7,33.61 l 151.1,39.39 c 10.6,2.76 21.4,-1.03 28,-8.94"
         style="fill:#c2fffb;fill-opacity:1;fill-rule:nonzero;stroke:none"
         id="path794"
         inkscape:connector-curvature="0" />
    </g>
    <g
       id="g796"
       transform="matrix(0.04220669,0,0,-0.04220669,-613.93742,416.14838)">
      <path
         d="m 16298.6,4524.47 c 1.1,-4.01 1.4,-8.36 0.6,-12.79 -2.7,-15.79 -17.8,-26.41 -33.6,-23.74 l -162.7,28.01 c -15.8,2.75 -26.4,17.8 -23.7,33.6 2.7,15.79 17.8,26.41 33.6,23.73 l 162.7,-28 c 11.5,-1.92 20.2,-10.36 23.1,-20.81"
         style="fill:#c2fffb;fill-opacity:1;fill-rule:nonzero;stroke:none"
         id="path798"
         inkscape:connector-curvature="0" />
    </g>
    <g
       id="g800"
       transform="matrix(0.04132015,0,0,-0.04132015,-613.93742,416.14838)">
      <path
         d="m 16267,4676.27 c 4.1,-0.17 8.5,-1.2 12.5,-3.25 14.6,-7.43 20.5,-25.35 13,-39.95 L 16216,4482.8 c -7.4,-14.6 -25.3,-20.4 -40,-12.97 -14.6,7.42 -20.4,25.35 -12.9,39.95 l 76.5,150.26 c 5.3,10.51 16.2,16.48 27.4,16.23"
         style="fill:#233efb;fill-opacity:1;fill-rule:nonzero;stroke:none"
         id="path802"
         inkscape:connector-curvature="0" />
    </g>
    <g
       id="g804"
       transform="matrix(0.04187014,0,0,-0.04187014,-613.93742,416.14838)">
      <path
         d="m 16103.4,4164.84 c -3.4,2.53 -6.3,5.73 -8.5,9.69 -7.7,14.15 -2.5,32.01 11.6,39.77 l 146,79.95 c 14.1,7.84 32,2.62 39.7,-11.62 7.8,-14.16 2.7,-31.94 -11.6,-39.77 l -145.9,-79.96 c -10.2,-5.64 -22.4,-4.47 -31.3,1.94"
         style="fill:#ffff29;fill-opacity:1;fill-rule:nonzero;stroke:none"
         id="path806"
         inkscape:connector-curvature="0" />
    </g>
    <g
       id="g808"
       transform="matrix(0.04264625,0,0,-0.04264625,-613.93742,416.14838)">
      <path
         d="m 16213,4288.98 c 3.2,2.57 7.1,4.47 11.3,5.46 15.5,3.64 31,-5.96 34.7,-21.42 l 37.4,-159 c 3.6,-15.55 -6,-31.02 -21.5,-34.65 -15.4,-3.65 -31,5.95 -34.6,21.42 l -37.4,159.07 c -2.6,11.17 1.6,22.34 10.1,29.12"
         style="fill:#e7314f;fill-opacity:1;fill-rule:nonzero;stroke:none"
         id="path810"
         inkscape:connector-curvature="0" />
    </g>
    <g
       id="g812"
       transform="matrix(0.04184332,0,0,-0.04184332,-613.93742,416.14838)">
      <path
         d="m 16266.9,4039.93 c 4.2,0 8.5,-1.01 12.5,-2.95 14.5,-7.08 20.6,-24.71 13.4,-39.21 l -73.1,-149.65 c -7,-14.5 -24.7,-20.57 -39.2,-13.4 -14.6,7.08 -20.5,24.62 -13.5,39.2 l 73.1,149.57 c 5.2,10.54 15.8,16.61 26.8,16.44"
         style="fill:#c2fffb;fill-opacity:1;fill-rule:nonzero;stroke:none"
         id="path814"
         inkscape:connector-curvature="0" />
    </g>
    <g
       id="g816"
       transform="matrix(0.04072996,0,0,-0.04072996,-613.93742,416.14838)">
      <path
         d="m 16227.2,4796.92 c 3.5,2.34 7.8,3.99 12.3,4.68 16.5,2.34 31.7,-9.18 34.1,-25.64 l 24.1,-169.32 c 2.3,-16.46 -9.1,-31.71 -25.7,-34.04 -16.4,-2.34 -31.7,9.09 -34,25.55 l -24.1,169.33 c -1.7,11.95 3.8,23.21 13.3,29.44"
         style="fill:#233efb;fill-opacity:1;fill-rule:nonzero;stroke:none"
         id="path818"
         inkscape:connector-curvature="0" />
    </g>
    <g
       id="g820"
       transform="matrix(0.04079945,0,0,-0.04079945,-613.93742,416.14838)">
      <path
         d="m 16081.2,4419.98 c 0,4.32 1,8.73 3,12.88 7.1,15.05 25.1,21.45 40,14.27 l 154.4,-73.07 c 15,-7.09 21.4,-25.07 14.3,-40.03 -7.2,-15.04 -25.1,-21.44 -40.1,-14.35 l -154.3,73.15 c -10.9,5.1 -17.3,15.91 -17.3,27.15"
         style="fill:#e7314f;fill-opacity:1;fill-rule:nonzero;stroke:none"
         id="path822"
         inkscape:connector-curvature="0" />
    </g>
    <g
       id="g824"
       transform="matrix(0.04001664,0,0,-0.04001664,-613.93742,416.14838)">
      <path
         d="m 16182.6,5032.92 c 3.1,3.18 6.9,5.73 11.4,7.32 16.2,5.9 34,-2.38 39.9,-18.51 l 60.3,-165.65 c 5.8,-16.13 -2.5,-33.94 -18.6,-39.76 -16.2,-5.91 -34,2.38 -39.8,18.51 l -60.3,165.65 c -4.2,11.64 -1.1,24.16 7.1,32.44"
         style="fill:#ffff29;fill-opacity:1;fill-rule:nonzero;stroke:none"
         id="path826"
         inkscape:connector-curvature="0" />
    </g>
    <g
       id="g828"
       transform="matrix(0.03909801,0,0,-0.03909801,-613.93742,416.14838)">
      <path
         d="m 16071.7,4554.14 c -3.1,3.25 -5.8,7.22 -7.4,11.82 -5.9,16.51 2.7,34.65 19.2,40.6 l 169.9,60.64 c 16.6,5.95 34.8,-2.71 40.6,-19.22 6,-16.51 -2.7,-34.65 -19.2,-40.6 l -169.9,-60.73 c -11.9,-4.24 -24.7,-0.9 -33.2,7.49"
         style="fill:#ffff29;fill-opacity:1;fill-rule:nonzero;stroke:none"
         id="path830"
         inkscape:connector-curvature="0" />
    </g>
    <g
       id="g832"
       transform="matrix(0.03973442,0,0,-0.03973442,-613.93742,416.14838)">
      <path
         d="m 16282.7,4472.95 c -3.9,-2.04 -8.4,-3.19 -13.2,-3.28 -17,-0.45 -31.1,13.05 -31.6,30.1 l -4.4,175.26 c -0.4,17.04 13.1,31.25 30.1,31.6 17,0.45 31.2,-12.96 31.7,-30.09 l 4.3,-175.26 c 0.4,-12.35 -6.5,-23.18 -16.9,-28.33"
         style="fill:#c2fffb;fill-opacity:1;fill-rule:nonzero;stroke:none"
         id="path834"
         inkscape:connector-curvature="0" />
    </g>
    <g
       id="g836"
       transform="matrix(0.03837658,0,0,-0.03837658,-613.93742,416.14838)">
      <path
         d="m 16180.3,5333.5 c 3.2,3.22 7.3,5.88 11.9,7.54 16.6,5.88 34.9,-2.76 40.9,-19.39 l 61,-170.99 c 5.9,-16.64 -2.7,-34.93 -19.4,-40.9 -16.6,-5.89 -34.9,2.76 -40.8,19.39 l -61.1,170.98 c -4.3,12.05 -0.9,24.92 7.5,33.37"
         style="fill:#233efb;fill-opacity:1;fill-rule:nonzero;stroke:none"
         id="path838"
         inkscape:connector-curvature="0" />
    </g>
    <g
       id="g840"
       transform="matrix(0.03848629,0,0,-0.03848629,-613.93742,416.14838)">
      <path
         d="m 16068.2,5589.8 c -3.3,3.3 -6,7.33 -7.6,12.01 -6,16.78 2.7,35.29 19.5,41.25 l 172.6,61.69 c 16.8,5.96 35.3,-2.75 41.3,-19.62 6,-16.77 -2.8,-35.2 -19.6,-41.25 l -172.6,-61.59 c -12.1,-4.4 -25.1,-1.01 -33.6,7.51"
         style="fill:#ffff29;fill-opacity:1;fill-rule:nonzero;stroke:none"
         id="path842"
         inkscape:connector-curvature="0" />
    </g>
    <g
       id="g844"
       transform="matrix(0.03911529,0,0,-0.03911529,-613.93742,416.14838)">
      <path
         d="m 16258.8,5451.67 c 4.4,0.99 9.1,0.99 13.7,0 16.9,-3.87 27.5,-20.65 23.7,-37.61 l -39.4,-173.7 c -3.9,-16.87 -20.7,-27.42 -37.5,-23.63 -17,3.88 -27.5,20.65 -23.7,37.52 l 39.4,173.7 c 2.8,12.27 12.3,21.19 23.8,23.72"
         style="fill:#e7314f;fill-opacity:1;fill-rule:nonzero;stroke:none"
         id="path846"
         inkscape:connector-curvature="0" />
    </g>
    <g
       id="g848"
       transform="matrix(0.03923242,0,0,-0.03923242,-613.93742,416.14838)">
      <path
         d="m 16289.3,4953.22 c 2.9,-3.42 5.1,-7.55 6.3,-12.14 4.4,-16.72 -5.7,-33.8 -22.4,-38.21 l -171.8,-44.78 c -16.8,-4.41 -33.8,5.66 -38.2,22.3 -4.4,16.72 5.7,33.81 22.4,38.21 l 171.9,44.88 c 12,3.14 24.3,-1.27 31.8,-10.26"
         style="fill:#c2fffb;fill-opacity:1;fill-rule:nonzero;stroke:none"
         id="path850"
         inkscape:connector-curvature="0" />
    </g>
    <g
       id="g852"
       transform="matrix(0.03870431,0,0,-0.03870431,-613.93742,416.14838)">
      <path
         d="m 16300,5774.44 c 0,-4.56 -1,-9.21 -3,-13.58 -7.6,-15.77 -26.4,-22.52 -42.3,-15.04 l -162.6,77.2 c -15.9,7.56 -22.5,26.43 -15,42.29 7.4,15.77 26.4,22.51 42.2,15.04 l 162.6,-77.2 c 11.4,-5.47 18.1,-16.86 18.1,-28.71"
         style="fill:#ffff29;fill-opacity:1;fill-rule:nonzero;stroke:none"
         id="path854"
         inkscape:connector-curvature="0" />
    </g>
    <g
       id="g856"
       transform="matrix(0.03877169,0,0,-0.03877169,-613.93742,416.14838)">
      <path
         d="m 16243.7,6234.73 c -4.4,-1.27 -9.1,-1.54 -13.9,-0.72 -17.2,3 -28.8,19.37 -25.8,36.57 l 30.6,177.07 c 3,17.28 19.4,28.84 36.6,25.84 17.2,-3.01 28.8,-19.38 25.8,-36.58 l -30.6,-177.06 c -2.2,-12.47 -11.3,-22.02 -22.7,-25.12"
         style="fill:#c2fffb;fill-opacity:1;fill-rule:nonzero;stroke:none"
         id="path858"
         inkscape:connector-curvature="0" />
    </g>
    <g
       id="g860"
       transform="matrix(0.03877804,0,0,-0.03877804,-613.93742,416.14838)">
      <path
         d="m 16299.6,6639.88 c -0.1,-4.54 -1.2,-9.09 -3.4,-13.37 -7.9,-15.56 -27,-21.74 -42.6,-13.83 l -160,81.7 c -15.6,7.91 -21.8,27.02 -13.8,42.58 7.9,15.55 27,21.74 42.5,13.73 l 160.1,-81.6 c 11.2,-5.73 17.6,-17.29 17.2,-29.21"
         style="fill:#233efb;fill-opacity:1;fill-rule:nonzero;stroke:none"
         id="path862"
         inkscape:connector-curvature="0" />
    </g>
    <g
       id="g864"
       transform="matrix(0.03797335,0,0,-0.03797335,-613.93742,416.14838)">
      <path
         d="m 16148.9,6725.78 c 2.6,3.71 6.3,6.96 10.5,9.29 15.7,8.64 35.3,2.88 44,-12.83 l 88,-160.9 c 8.6,-15.7 2.8,-35.39 -12.9,-43.94 -15.6,-8.55 -35.3,-2.79 -43.8,12.91 l -88.1,160.91 c -6.1,11.33 -4.9,24.71 2.3,34.56"
         style="fill:#ffff29;fill-opacity:1;fill-rule:nonzero;stroke:none"
         id="path866"
         inkscape:connector-curvature="0" />
    </g>
    <g
       id="g868"
       transform="matrix(0.03816703,0,0,-0.03816703,-613.93742,416.14838)">
      <path
         d="m 16289.8,6241.51 c 2.9,-3.6 5,-7.86 6.1,-12.66 4.1,-17.29 -6.6,-34.57 -23.9,-38.64 l -177.7,-41.59 c -17.3,-4.07 -34.6,6.65 -38.7,23.94 -4.1,17.28 6.7,34.57 24,38.63 l 177.7,41.6 c 12.6,2.95 25,-1.85 32.5,-11.28"
         style="fill:#e7314f;fill-opacity:1;fill-rule:nonzero;stroke:none"
         id="path870"
         inkscape:connector-curvature="0" />
    </g>
    <g
       id="g872"
       transform="matrix(0.03988999,0,0,-0.03988999,-613.93742,416.14838)">
      <path
         d="m 16068.5,7354.99 c -2.5,3.63 -4.1,7.96 -4.8,12.56 -2.3,16.89 9.5,32.37 26.3,34.76 l 172.9,24.05 c 16.8,2.39 32.4,-9.38 34.7,-26.26 2.4,-16.81 -9.4,-32.37 -26.2,-34.68 l -173,-24.05 c -12.2,-1.68 -23.6,3.98 -29.9,13.62"
         style="fill:#e7314f;fill-opacity:1;fill-rule:nonzero;stroke:none"
         id="path874"
         inkscape:connector-curvature="0" />
    </g>
    <g
       id="g876"
       transform="matrix(0.04049395,0,0,-0.04049395,-613.93742,416.14838)">
      <path
         d="m 16227.3,7318.54 c 3.7,2.35 7.9,4.01 12.5,4.62 16.6,2.35 31.9,-9.23 34.2,-25.78 l 23.7,-170.41 c 2.3,-16.64 -9.2,-31.89 -25.8,-34.24 -16.6,-2.26 -31.9,9.24 -34.2,25.88 l -23.8,170.4 c -1.6,11.94 4,23.26 13.4,29.53"
         style="fill:#ffff29;fill-opacity:1;fill-rule:nonzero;stroke:none"
         id="path878"
         inkscape:connector-curvature="0" />
    </g>
    <g
       id="g880"
       transform="matrix(0.03945149,0,0,-0.03945149,-613.93742,416.14838)">
      <path
         d="m 16285.2,7235.01 c 3.3,-2.96 6,-6.62 7.9,-11 6.9,-15.74 -0.3,-34.07 -16.1,-40.96 l -161.9,-70.46 c -15.8,-6.8 -34.1,0.45 -40.9,16.18 -6.9,15.74 0.4,34.07 16.1,40.87 l 162,70.46 c 11.3,5.01 24.1,2.6 32.9,-5.09"
         style="fill:#c2fffb;fill-opacity:1;fill-rule:nonzero;stroke:none"
         id="path882"
         inkscape:connector-curvature="0" />
    </g>
    <g
       id="g884"
       transform="matrix(0.0386969,0,0,-0.0386969,-613.93742,416.14838)">
      <path
         d="m 16230.3,7201.62 c 3.8,2.37 8.3,4.01 13.1,4.56 17.4,1.91 33.1,-10.67 35,-28.08 l 19.7,-178.96 c 1.9,-17.41 -10.7,-33.09 -28.1,-35 -17.4,-1.92 -33.1,10.66 -35,28.08 l -19.7,178.95 c -1.4,12.58 4.8,24.25 15,30.45"
         style="fill:#233efb;fill-opacity:1;fill-rule:nonzero;stroke:none"
         id="path886"
         inkscape:connector-curvature="0" />
    </g>
    <g
       id="g888"
       transform="matrix(0.03956332,0,0,-0.03956332,-613.93742,416.14838)">
      <path
         d="m 16180.4,6674.94 c -4.4,0.18 -8.9,1.34 -13.1,3.56 -15.1,8.03 -20.8,26.85 -12.8,42 l 82.6,155.42 c 8.1,15.16 26.9,20.87 42,12.84 15.1,-8.02 20.9,-26.84 12.8,-42 l -82.7,-155.42 c -5.8,-10.96 -17.2,-16.94 -28.8,-16.4"
         style="fill:#ffff29;fill-opacity:1;fill-rule:nonzero;stroke:none"
         id="path890"
         inkscape:connector-curvature="0" />
    </g>
    <g
       id="g892"
       transform="matrix(0.04033167,0,0,-0.04033167,-613.93742,416.14838)">
      <path
         d="m 16112.2,6958.01 c 1.4,4.11 3.7,8.05 6.8,11.46 11.6,12.16 30.9,12.68 43.1,1.05 l 125.2,-118.87 c 12.3,-11.55 12.7,-30.88 1.2,-43.04 -11.6,-12.15 -30.8,-12.68 -43.1,-1.13 l -125.2,118.95 c -8.9,8.31 -11.6,20.74 -8,31.58"
         style="fill:#e7314f;fill-opacity:1;fill-rule:nonzero;stroke:none"
         id="path894"
         inkscape:connector-curvature="0" />
    </g>
    <g
       id="g896"
       transform="matrix(0.04154346,0,0,-0.04154346,-613.93742,416.14838)">
      <path
         d="m 16188.3,7271.52 c 3,2.98 6.7,5.44 10.9,6.97 15.4,5.6 32.3,-2.38 37.9,-17.66 l 57.4,-157.61 c 5.5,-15.29 -2.4,-32.27 -17.7,-37.88 -15.4,-5.52 -32.3,2.38 -37.9,17.67 l -57.4,157.6 c -4,11.04 -1,23.02 6.8,30.91"
         style="fill:#ffff29;fill-opacity:1;fill-rule:nonzero;stroke:none"
         id="path898"
         inkscape:connector-curvature="0" />
    </g>
    <g
       id="g900"
       transform="matrix(0.0425891,0,0,-0.0425891,-613.93742,416.14838)">
      <path
         d="m 16267.8,7031.79 c 4,-0.16 8.3,-1.07 12.2,-3.06 14.2,-7.21 20,-24.52 12.8,-38.69 l -73.3,-146.28 c -7.1,-14.16 -24.4,-19.96 -38.7,-12.84 -14.2,7.21 -20,24.52 -12.8,38.69 l 73.3,146.28 c 5.2,10.27 15.6,16.07 26.5,15.9"
         style="fill:#ffff29;fill-opacity:1;fill-rule:nonzero;stroke:none"
         id="path902"
         inkscape:connector-curvature="0" />
    </g>
    <g
       id="g904"
       transform="matrix(0.0421266,0,0,-0.0421266,-613.93742,416.14838)">
      <path
         d="m 16123.2,6809.33 c 1.4,3.93 3.7,7.62 6.9,10.8 11.3,11.39 29.7,11.48 41.2,0.09 l 117.2,-116.66 c 11.4,-11.3 11.5,-29.81 0.1,-41.2 -11.3,-11.39 -29.8,-11.47 -41.2,-0.08 l -117.2,116.65 c -8.3,8.21 -10.6,20.1 -7,30.4"
         style="fill:#c2fffb;fill-opacity:1;fill-rule:nonzero;stroke:none"
         id="path906"
         inkscape:connector-curvature="0" />
    </g>
    <g
       id="g908"
       transform="matrix(0.04396775,0,0,-0.04396775,-613.93742,416.14838)">
      <path
         d="m 16299.8,6490.17 c -0.1,-4.01 -1.1,-8.02 -3,-11.87 -6.9,-13.73 -23.7,-19.34 -37.5,-12.44 l -141.6,71.09 c -13.8,6.9 -19.4,23.66 -12.4,37.47 6.9,13.72 23.6,19.33 37.4,12.43 l 141.7,-71.09 c 9.9,-4.97 15.6,-15.16 15.4,-25.59"
         style="fill:#233efb;fill-opacity:1;fill-rule:nonzero;stroke:none"
         id="path910"
         inkscape:connector-curvature="0" />
    </g>
    <g
       id="g912"
       transform="matrix(0.0436813,0,0,-0.0436813,-613.93742,416.14838)">
      <path
         d="m 16293.5,6153.49 c -2.2,-3.39 -5.2,-6.3 -8.9,-8.48 -13.4,-8 -30.6,-3.72 -38.5,9.61 l -82,136.81 c -8,13.32 -3.7,30.61 9.7,38.6 13.2,7.92 30.5,3.64 38.5,-9.69 l 82,-136.81 c 5.7,-9.61 5.1,-21.32 -0.8,-30.04"
         style="fill:#e7314f;fill-opacity:1;fill-rule:nonzero;stroke:none"
         id="path914"
         inkscape:connector-curvature="0" />
    </g>
    <g
       id="g916"
       transform="matrix(0.04304312,0,0,-0.04304312,-613.93742,416.14838)">
      <path
         d="m 16179.3,6512.49 c -4,0.49 -8.1,1.8 -11.8,4.1 -13.4,8.28 -17.6,25.82 -9.3,39.26 l 85,137.77 c 8.3,13.36 25.8,17.54 39.3,9.26 13.3,-8.28 17.5,-25.81 9.2,-39.25 l -85,-137.7 c -6,-9.75 -16.8,-14.58 -27.4,-13.44"
         style="fill:#c2fffb;fill-opacity:1;fill-rule:nonzero;stroke:none"
         id="path918"
         inkscape:connector-curvature="0" />
    </g>
    <g
       id="g920"
       transform="matrix(0.04544871,0,0,-0.04544871,-613.93742,416.14838)">
      <path
         d="m 16293.2,5065.88 c 2.1,-3.19 3.7,-6.91 4.4,-11.03 2.4,-14.67 -7.6,-28.56 -22.4,-30.97 L 16124,4999.2 c -14.7,-2.41 -28.6,7.61 -31,22.27 -2.4,14.75 7.6,28.65 22.3,31.05 l 151.2,24.69 c 10.8,1.7 20.9,-3.03 26.7,-11.33"
         style="fill:#233efb;fill-opacity:1;fill-rule:nonzero;stroke:none"
         id="path922"
         inkscape:connector-curvature="0" />
    </g>
    <g
       id="g924"
       transform="matrix(0.04534006,0,0,-0.04534006,-613.93742,416.14838)">
      <path
         d="m 16274.2,5463.94 c 3.9,-0.7 7.6,-2.26 10.9,-4.67 12.2,-8.72 14.9,-25.68 6.2,-37.81 l -89.7,-124.73 c -8.8,-12.14 -25.7,-14.86 -37.8,-6.15 -12.2,8.72 -14.9,25.68 -6.2,37.82 l 89.7,124.72 c 6.3,8.72 17,12.61 26.9,10.82"
         style="fill:#e7314f;fill-opacity:1;fill-rule:nonzero;stroke:none"
         id="path926"
         inkscape:connector-curvature="0" />
    </g>
    <g
       id="g928"
       transform="matrix(0.04472129,0,0,-0.04472129,-613.93742,416.14838)">
      <path
         d="m 16298.1,5232.57 c -0.7,-3.94 -2.2,-7.65 -4.6,-11.12 -9,-12.3 -26.1,-15.06 -38.4,-6.23 l -126.4,91.03 c -12.3,8.84 -15.1,25.96 -6.3,38.26 8.9,12.31 26,15.14 38.3,6.23 l 126.4,-90.95 c 9,-6.39 12.9,-17.12 11,-27.22"
         style="fill:#ffff29;fill-opacity:1;fill-rule:nonzero;stroke:none"
         id="path930"
         inkscape:connector-curvature="0" />
    </g>
    <g
       id="g932"
       transform="matrix(0.04507689,0,0,-0.04507689,-613.93742,416.14838)">
      <path
         d="m 16218.5,5593.48 c -4,-0.31 -7.9,0.16 -11.9,1.57 -14,5.24 -21.3,20.82 -16.2,34.98 l 53.3,145.1 c 5.1,14.08 20.8,21.36 34.9,16.2 14.1,-5.17 21.4,-20.82 16.2,-34.99 l -53.3,-145.09 c -3.6,-10.18 -12.9,-16.83 -23,-17.77"
         style="fill:#c2fffb;fill-opacity:1;fill-rule:nonzero;stroke:none"
         id="path934"
         inkscape:connector-curvature="0" />
    </g>
    <g
       id="g936"
       transform="matrix(0.04516825,0,0,-0.04516825,-613.93742,416.14838)">
      <path
         d="m 16297.9,5916.32 c -0.8,-3.82 -2.4,-7.49 -5,-10.78 -9.1,-11.95 -26.2,-14.21 -38,-5.15 l -122.7,93.65 c -11.8,9.13 -14.1,26.16 -5,38.11 9.1,11.87 26.1,14.22 38.1,5.08 l 122.5,-93.65 c 8.7,-6.56 12.2,-17.34 10.1,-27.26"
         style="fill:#233efb;fill-opacity:1;fill-rule:nonzero;stroke:none"
         id="path938"
         inkscape:connector-curvature="0" />
    </g>
    <g
       id="g940"
       transform="matrix(0.04432441,0,0,-0.04432441,-613.93742,416.14838)">
      <path
         d="m 16200.4,6129.32 c 2.8,2.79 6.3,4.94 10.3,6.29 14.6,4.78 30.2,-3.1 35,-17.59 l 49.4,-149.23 c 4.9,-14.49 -3,-30.17 -17.5,-35.02 -14.5,-4.78 -30.2,3.1 -35,17.59 l -49.5,149.23 c -3.4,10.51 -0.3,21.57 7.3,28.73"
         style="fill:#ffff29;fill-opacity:1;fill-rule:nonzero;stroke:none"
         id="path942"
         inkscape:connector-curvature="0" />
    </g>
    <g
       id="g944"
       transform="matrix(0.04433746,0,0,-0.04433746,-613.93742,416.14838)">
      <path
         d="m 16296,5641.59 c 1.9,-3.51 3,-7.4 3.2,-11.7 0.8,-15.2 -11,-28.25 -26.3,-28.96 l -156.9,-7.8 c -15.2,-0.72 -28.3,11.06 -29,26.26 -0.8,15.27 11,28.32 26.3,29.04 l 156.9,7.8 c 11,0.55 20.9,-5.5 25.8,-14.64"
         style="fill:#e7314f;fill-opacity:1;fill-rule:nonzero;stroke:none"
         id="path946"
         inkscape:connector-curvature="0" />
    </g>
    <g
       id="g948"
       transform="matrix(0.03726109,0,0,-0.03726109,-613.93742,416.14838)">
      <path
         d="m 16295.7,6489.46 c -1.6,-4.45 -4.1,-8.62 -7.7,-12.12 -13,-12.78 -33.8,-12.6 -46.6,0.37 l -131.3,133.12 c -12.7,12.97 -12.6,33.8 0.4,46.58 12.9,12.78 33.8,12.6 46.5,-0.28 l 131.3,-133.21 c 9.2,-9.37 11.7,-22.91 7.4,-34.46"
         style="fill:#e7314f;fill-opacity:1;fill-rule:nonzero;stroke:none"
         id="path950"
         inkscape:connector-curvature="0" />
    </g>
    <g
       id="g952"
       transform="matrix(0.03657741,0,0,-0.03657741,-613.93742,416.14838)">
      <path
         d="m 16299.6,5670.4 c -0.2,-4.73 -1.3,-9.64 -3.6,-14.18 -8.5,-16.49 -28.7,-23.05 -45.2,-14.66 l -169.6,86.61 c -16.5,8.39 -23.1,28.65 -14.7,45.14 8.4,16.49 28.6,23.05 45.1,14.56 l 169.7,-86.51 c 11.9,-6.08 18.7,-18.32 18.3,-30.96"
         style="fill:#233efb;fill-opacity:1;fill-rule:nonzero;stroke:none"
         id="path954"
         inkscape:connector-curvature="0" />
    </g>
    <g
       id="g956"
       transform="matrix(0.03684799,0,0,-0.03684799,-613.93742,416.14838)">
      <path
         d="m 16226.8,6279.98 c 4.1,2.49 8.7,4.12 13.7,4.69 18.3,2.01 34.8,-11.2 36.8,-29.48 l 20.7,-187.94 c 2,-18.29 -11.2,-34.75 -29.5,-36.76 -18.2,-2.01 -34.7,11.2 -36.7,29.48 l -20.7,187.94 c -1.5,13.21 5,25.47 15.7,32.07"
         style="fill:#233efb;fill-opacity:1;fill-rule:nonzero;stroke:none"
         id="path958"
         inkscape:connector-curvature="0" />
    </g>
    <g
       id="g960"
       transform="matrix(0.03742055,0,0,-0.03742055,-613.93742,416.14838)">
      <path
         d="m 16173.6,5606.64 c -4.7,0.19 -9.4,1.41 -13.9,3.77 -15.9,8.48 -22,28.38 -13.5,44.4 l 87.4,164.32 c 8.5,16.03 28.4,22.06 44.3,13.58 16.1,-8.49 22.1,-28.38 13.6,-44.31 l -87.4,-164.41 c -6.1,-11.6 -18.3,-17.91 -30.5,-17.35"
         style="fill:#ffff29;fill-opacity:1;fill-rule:nonzero;stroke:none"
         id="path962"
         inkscape:connector-curvature="0" />
    </g>
    <g
       id="g964"
       transform="matrix(0.03806402,0,0,-0.03806402,-613.93742,416.14838)">
      <path
         d="m 16171.4,5013.99 c 3.2,3.33 7.2,6.11 11.7,7.97 16.5,6.67 35.3,-1.39 42,-17.89 l 68.2,-169.79 c 6.7,-16.59 -1.3,-35.31 -17.9,-41.98 -16.5,-6.58 -35.2,1.39 -41.9,17.88 l -68.3,169.79 c -4.8,11.96 -1.9,25.12 6.2,34.02"
         style="fill:#ffff29;fill-opacity:1;fill-rule:nonzero;stroke:none"
         id="path966"
         inkscape:connector-curvature="0" />
    </g>
    <g
       id="g968"
       transform="matrix(0.03713939,0,0,-0.03713939,-613.93742,416.14838)">
      <path
         d="m 16255.8,5456.38 c 4.7,1.14 9.6,1.33 14.6,0.38 17.9,-3.41 29.6,-20.7 26.2,-38.66 l -35.4,-184.18 c -3.5,-17.95 -20.9,-29.73 -38.7,-26.21 -18,3.42 -29.6,20.7 -26.2,38.65 l 35.4,184.19 c 2.5,13.01 12.2,22.7 24.1,25.83"
         style="fill:#e7314f;fill-opacity:1;fill-rule:nonzero;stroke:none"
         id="path970"
         inkscape:connector-curvature="0" />
    </g>
    <g
       id="g972"
       transform="matrix(0.03782483,0,0,-0.03782483,-613.93742,416.14838)">
      <path
         d="m 16054.1,5325.61 c -0.8,4.57 -0.6,9.33 0.6,14.18 4.7,17.25 22.5,27.61 39.7,22.94 l 178,-47.56 c 17.3,-4.58 27.6,-22.39 22.9,-39.64 -4.5,-17.35 -22.3,-27.61 -39.6,-23.04 l -178,47.56 c -12.5,3.36 -21.3,13.53 -23.6,25.56"
         style="fill:#233efb;fill-opacity:1;fill-rule:nonzero;stroke:none"
         id="path974"
         inkscape:connector-curvature="0" />
    </g>
    <g
       id="g976"
       transform="matrix(0.03941233,0,0,-0.03941233,-613.93742,416.14838)">
      <path
         d="m 16259.1,4492.29 c 4.4,0.99 8.9,1.08 13.6,0 16.8,-3.85 27.3,-20.5 23.5,-37.32 l -39.1,-172.31 c -3.8,-16.83 -20.5,-27.3 -37.3,-23.54 -16.7,3.85 -27.2,20.5 -23.5,37.24 l 39.2,172.39 c 2.7,12.18 12.2,21.04 23.6,23.54"
         style="fill:#e7314f;fill-opacity:1;fill-rule:nonzero;stroke:none"
         id="path978"
         inkscape:connector-curvature="0" />
    </g>
    <g
       id="g980"
       transform="matrix(0.04008967,0,0,-0.04008967,-613.93742,416.14838)">
      <path
         d="m 16069.2,4297.96 c -0.7,4.4 -0.4,8.98 1,13.47 4.9,16.1 22,25.25 38.1,20.41 l 166.4,-50.42 c 16.2,-4.93 25.3,-22 20.4,-38.19 -5,-16.19 -22,-25.35 -38.2,-20.42 l -166.3,50.43 c -11.7,3.52 -19.7,13.46 -21.4,24.72"
         style="fill:#233efb;fill-opacity:1;fill-rule:nonzero;stroke:none"
         id="path982"
         inkscape:connector-curvature="0" />
    </g>
    <g
       id="g984"
       transform="matrix(0.03957743,0,0,-0.03957743,-613.93742,416.14838)">
      <path
         d="m 16289.5,4044.54 c 2.8,-3.39 5,-7.49 6.2,-12.04 4.3,-16.57 -5.6,-33.51 -22.2,-37.88 l -170.3,-44.39 c -16.6,-4.37 -33.5,5.53 -37.9,22.11 -4.3,16.58 5.6,33.51 22.2,37.88 l 170.3,44.39 c 12.1,3.21 24.2,-1.16 31.7,-10.07"
         style="fill:#c2fffb;fill-opacity:1;fill-rule:nonzero;stroke:none"
         id="path986"
         inkscape:connector-curvature="0" />
    </g>
    <g
       id="g988"
       transform="matrix(0.04092645,0,0,-0.04092645,-613.93742,416.14838)">
      <path
         d="m 16183,4124.39 c 3,3.19 6.7,5.69 11,7.33 15.4,5.94 32.8,-1.73 38.8,-17.16 l 61.3,-158.86 c 5.9,-15.43 -1.8,-32.75 -17.2,-38.7 -15.4,-6.04 -32.8,1.72 -38.8,17.15 l -61.3,158.78 c -4.3,11.21 -1.5,23.36 6.2,31.46"
         style="fill:#ffff29;fill-opacity:1;fill-rule:nonzero;stroke:none"
         id="path990"
         inkscape:connector-curvature="0" />
    </g>
    <g
       id="g992"
       transform="matrix(0.04043645,0,0,-0.04043645,-613.93742,416.14838)">
      <path
         d="m 16208.3,3943.98 c 3.4,2.71 7.4,4.72 12,5.85 16.3,3.84 32.7,-6.28 36.4,-22.6 l 39.5,-167.77 c 3.8,-16.31 -6.3,-32.62 -22.6,-36.46 -16.3,-3.84 -32.7,6.28 -36.5,22.59 l -39.4,167.68 c -2.8,11.87 1.7,23.65 10.6,30.71"
         style="fill:#e7314f;fill-opacity:1;fill-rule:nonzero;stroke:none"
         id="path994"
         inkscape:connector-curvature="0" />
    </g>
    <g
       id="g996"
       transform="matrix(0.04366507,0,0,-0.04366507,-613.93742,416.14838)">
      <path
         d="m 16096.1,3806.81 c -2.8,2.91 -4.9,6.55 -6.2,10.59 -4.8,14.78 3.4,30.62 18.1,35.38 l 151.8,48.96 c 14.8,4.69 30.7,-3.39 35.4,-18.18 4.8,-14.78 -3.3,-30.62 -18.1,-35.38 l -151.9,-48.88 c -10.6,-3.47 -21.8,-0.16 -29.1,7.51"
         style="fill:#c2fffb;fill-opacity:1;fill-rule:nonzero;stroke:none"
         id="path998"
         inkscape:connector-curvature="0" />
    </g>
    <g
       id="g1000"
       transform="matrix(0.04408276,0,0,-0.04408276,-613.93742,416.14838)">
      <path
         d="m 16284.2,3890.88 c -3.6,-1.76 -7.6,-2.72 -11.9,-2.8 -15.4,-0.16 -27.9,12.16 -28.2,27.53 l -1.6,158.05 c -0.2,15.37 12.1,28.01 27.5,28.17 15.4,0.16 28,-12.16 28.2,-27.53 l 1.6,-158.05 c 0.2,-11.13 -6.2,-20.81 -15.6,-25.37"
         style="fill:#233efb;fill-opacity:1;fill-rule:nonzero;stroke:none"
         id="path1002"
         inkscape:connector-curvature="0" />
    </g>
    <g
       id="g1004"
       transform="matrix(0.04568543,0,0,-0.04568543,-613.93742,416.14838)">
      <path
         d="m 16260.9,4808.33 c 3.4,1.62 7.3,2.62 11.5,2.62 14.8,0.08 26.8,-11.89 26.9,-26.79 l 0.6,-152.43 c 0.1,-14.9 -11.9,-26.95 -26.7,-27.03 -14.8,-0.08 -26.9,11.97 -26.9,26.8 l -0.7,152.5 c -0.1,10.66 6.1,20 15.3,24.33"
         style="fill:#e7314f;fill-opacity:1;fill-rule:nonzero;stroke:none"
         id="path1006"
         inkscape:connector-curvature="0" />
    </g>
    <g
       id="g1008"
       transform="matrix(0.04563145,0,0,-0.04563145,-613.93742,416.14838)">
      <path
         d="m 16297.3,4454.77 c 1.7,-3.48 2.6,-7.35 2.6,-11.52 0.1,-14.84 -11.9,-26.91 -26.7,-26.98 l -152.7,-0.7 c -14.9,0 -27,11.98 -27.1,26.83 0,14.84 12,26.9 26.9,26.98 l 152.6,0.69 c 10.8,0 20.1,-6.26 24.4,-15.3"
         style="fill:#ffff29;fill-opacity:1;fill-rule:nonzero;stroke:none"
         id="path1010"
         inkscape:connector-curvature="0" />
    </g>
    <g
       id="g1012"
       transform="matrix(0.04524657,0,0,-0.04524657,-613.93742,416.14838)">
      <path
         d="m 16110.1,4098.78 c 0.4,3.9 1.6,7.72 3.7,11.31 7.7,12.86 24.4,16.99 37.2,9.27 l 132,-79.29 c 12.9,-7.72 17,-24.4 9.3,-37.19 -7.7,-12.87 -24.3,-17 -37.2,-9.28 l -132,79.3 c -9.3,5.53 -14,15.82 -13,25.88"
         style="fill:#233efb;fill-opacity:1;fill-rule:nonzero;stroke:none"
         id="path1014"
         inkscape:connector-curvature="0" />
    </g>
    <g
       id="g1016"
       transform="matrix(0.04664886,0,0,-0.04664886,-613.93742,416.14838)">
      <path
         d="m 16293.9,5000.34 c -2.1,-3.18 -4.9,-5.9 -8.3,-7.94 -12.5,-7.49 -28.7,-3.41 -36.2,8.99 l -76.7,128.11 c -7.5,12.48 -3.5,28.66 9,36.15 12.5,7.41 28.7,3.4 36.1,-9.08 l 76.8,-128.1 c 5.4,-9 4.7,-19.97 -0.7,-28.13"
         style="fill:#e7314f;fill-opacity:1;fill-rule:nonzero;stroke:none"
         id="path1018"
         inkscape:connector-curvature="0" />
    </g>
    <g
       id="g1020"
       transform="matrix(0.04597294,0,0,-0.04597294,-613.93742,416.14838)">
      <path
         d="m 16187,5274.06 c -3.8,0.38 -7.6,1.68 -11,3.83 -12.6,7.75 -16.4,24.17 -8.7,36.68 l 79.5,129 c 7.8,12.58 24.3,16.49 36.8,8.74 12.6,-7.75 16.4,-24.25 8.7,-36.75 l -79.5,-129 c -5.6,-9.05 -15.8,-13.58 -25.8,-12.5"
         style="fill:#c2fffb;fill-opacity:1;fill-rule:nonzero;stroke:none"
         id="path1022"
         inkscape:connector-curvature="0" />
    </g>
    <g
       id="g1024"
       transform="matrix(0.04584735,0,0,-0.04584735,-613.93742,416.14838)">
      <path
         d="m 16097.3,5635.67 c -1.9,3.31 -3.1,7.16 -3.4,11.24 -0.9,14.77 10.3,27.47 25,28.47 l 151.6,10.08 c 14.8,1 27.6,-10.16 28.5,-24.93 1,-14.77 -10.2,-27.47 -24.9,-28.47 l -151.6,-10.08 c -10.7,-0.69 -20.3,4.92 -25.2,13.69"
         style="fill:#c2fffb;fill-opacity:1;fill-rule:nonzero;stroke:none"
         id="path1026"
         inkscape:connector-curvature="0" />
    </g>
    <g
       id="g1028"
       transform="matrix(0.04601598,0,0,-0.04601598,-613.93742,416.14838)">
      <path
         d="m 16122.4,5974.04 c 0.7,3.76 2.3,7.44 4.8,10.66 8.7,11.81 25.5,14.26 37.3,5.44 l 121.2,-90.69 c 11.8,-8.82 14.3,-25.53 5.5,-37.33 -8.8,-11.74 -25.5,-14.19 -37.4,-5.37 l -121.2,90.61 c -8.5,6.45 -12.2,16.95 -10.2,26.68"
         style="fill:#233efb;fill-opacity:1;fill-rule:nonzero;stroke:none"
         id="path1030"
         inkscape:connector-curvature="0" />
    </g>
    <g
       id="g1032"
       transform="matrix(0.04526597,0,0,-0.04526597,-613.93742,416.14838)">
      <path
         d="m 16293.8,6299.52 c -2.2,-3.27 -5.1,-6.08 -8.7,-8.18 -12.8,-7.72 -29.4,-3.58 -37.2,9.27 l -79.1,132.03 c -7.7,12.86 -3.5,29.53 9.4,37.25 12.8,7.64 29.4,3.5 37.2,-9.35 l 79.1,-132.02 c 5.5,-9.28 4.9,-20.58 -0.7,-29"
         style="fill:#e7314f;fill-opacity:1;fill-rule:nonzero;stroke:none"
         id="path1034"
         inkscape:connector-curvature="0" />
    </g>
    <g
       id="g1036"
       transform="matrix(0.0446278,0,0,-0.0446278,-613.93742,416.14838)">
      <path
         d="m 16183.6,6647.87 c -3.9,0.48 -7.8,1.74 -11.4,3.95 -12.9,7.99 -16.9,24.9 -9,37.87 l 82,132.88 c 8,12.88 24.9,16.91 37.9,8.93 12.9,-7.98 16.9,-24.9 8.9,-37.87 l -82,-132.8 c -5.7,-9.4 -16.2,-14.07 -26.4,-12.96"
         style="fill:#c2fffb;fill-opacity:1;fill-rule:nonzero;stroke:none"
         id="path1038"
         inkscape:connector-curvature="0" />
    </g>
    <g
       id="g1040"
       transform="matrix(0.04356841,0,0,-0.04356841,-613.93742,416.14838)">
      <path
         d="m 16232.5,7308.11 c 3.4,2.26 7.3,3.8 11.6,4.37 15.3,2.18 29.6,-8.58 31.7,-24.05 l 22.1,-158.38 c 2.1,-15.38 -8.7,-29.63 -24.1,-31.74 -15.3,-2.18 -29.6,8.58 -31.8,23.97 l -22,158.38 c -1.5,11.17 3.6,21.7 12.5,27.45"
         style="fill:#ffff29;fill-opacity:1;fill-rule:nonzero;stroke:none"
         id="path1042"
         inkscape:connector-curvature="0" />
    </g>
    <g
       id="g1044"
       transform="matrix(0.04261273,0,0,-0.04261273,-613.93742,416.14838)">
      <path
         d="m 16286.2,7312.15 c 3.1,-2.73 5.7,-6.2 7.4,-10.18 6.4,-14.65 -0.3,-31.62 -14.9,-37.92 l -149.9,-65.23 c -14.7,-6.37 -31.5,0.33 -37.9,14.9 -6.4,14.57 0.3,31.54 14.9,37.92 l 149.9,65.23 c 10.5,4.56 22.4,2.32 30.5,-4.72"
         style="fill:#c2fffb;fill-opacity:1;fill-rule:nonzero;stroke:none"
         id="path1046"
         inkscape:connector-curvature="0" />
    </g>
    <g
       id="g1048"
       transform="matrix(0.04340578,0,0,-0.04340578,-613.93742,416.14838)">
      <path
         d="m 16125.5,6973.15 c 1.2,3.82 3.3,7.48 6.3,10.57 10.8,11.38 28.7,11.86 40,1.05 l 116.4,-110.45 c 11.3,-10.81 11.8,-28.69 1.1,-39.98 -10.8,-11.38 -28.7,-11.79 -40,-1.06 l -116.4,110.53 c -8.2,7.72 -10.7,19.27 -7.4,29.34"
         style="fill:#e7314f;fill-opacity:1;fill-rule:nonzero;stroke:none"
         id="path1050"
         inkscape:connector-curvature="0" />
    </g>
    <g
       id="g1052"
       transform="matrix(0.04043715,0,0,-0.04043715,-613.93742,416.14838)">
      <path
         d="m 16299.7,7494.21 c -0.1,-4.37 -1.2,-8.73 -3.3,-12.91 -7.7,-14.92 -25.9,-20.86 -40.8,-13.18 l -153.6,78.26 c -14.9,7.67 -20.8,25.91 -13.1,40.83 7.6,15 25.8,20.93 40.8,13.26 l 153.5,-78.26 c 10.7,-5.58 16.8,-16.66 16.5,-28"
         style="fill:#233efb;fill-opacity:1;fill-rule:nonzero;stroke:none"
         id="path1054"
         inkscape:connector-curvature="0" />
    </g>
    <g
       id="g1056"
       transform="matrix(0.04122208,0,0,-0.04122208,-613.93742,416.14838)">
      <path
         d="m 16185.2,7511.49 c -4.2,0.26 -8.5,1.37 -12.5,3.51 -14.5,7.7 -20.1,25.76 -12.4,40.22 l 79.4,149.25 c 7.8,14.55 25.8,20.03 40.3,12.33 14.5,-7.71 20,-25.76 12.3,-40.31 l -79.3,-149.17 c -5.7,-10.53 -16.6,-16.34 -27.8,-15.83"
         style="fill:#ffff29;fill-opacity:1;fill-rule:nonzero;stroke:none"
         id="path1058"
         inkscape:connector-curvature="0" />
    </g>
    <g
       id="g1060"
       transform="matrix(0.03691184,0,0,-0.03691184,-613.93742,416.14838)">
      <path
         d="m 16285.9,7385.99 c -3.7,-3.06 -8.1,-5.35 -12.9,-6.69 -17.8,-4.69 -36.1,5.92 -40.8,23.7 l -48,182.54 c -4.6,17.69 6,35.94 23.7,40.62 17.7,4.69 35.9,-5.92 40.6,-23.7 l 48.1,-182.54 c 3.4,-12.81 -1.3,-25.9 -10.7,-33.93"
         style="fill:#ffff29;fill-opacity:1;fill-rule:nonzero;stroke:none"
         id="path1062"
         inkscape:connector-curvature="0" />
    </g>
    <g
       id="g1064"
       transform="matrix(0.03830426,0,0,-0.03830426,-613.93742,416.14838)">
      <path
         d="m 16102.2,7594.37 c 1.4,4.42 3.8,8.47 7.2,12.06 12.2,12.81 32.5,13.36 45.3,1.2 l 131.9,-125.25 c 12.8,-12.16 13.4,-32.42 1.2,-45.32 -12.2,-12.8 -32.5,-13.35 -45.3,-1.1 l -132,125.16 c -9.2,8.84 -12,21.83 -8.3,33.25"
         style="fill:#e7314f;fill-opacity:1;fill-rule:nonzero;stroke:none"
         id="path1066"
         inkscape:connector-curvature="0" />
    </g>
    <g
       id="g1068"
       transform="matrix(0.03779802,0,0,-0.03779802,-613.93742,416.14838)">
      <path
         d="m 16297,7094.78 c 2,-4.2 3,-8.86 2.9,-13.91 -0.2,-17.92 -14.9,-32.29 -32.8,-32.1 l -184.3,2.24 c -17.9,0.19 -32.3,14.93 -32.1,32.85 0.2,17.92 14.9,32.29 32.9,32.11 l 184.3,-2.24 c 12.9,-0.09 24,-7.84 29.1,-18.95"
         style="fill:#233efb;fill-opacity:1;fill-rule:nonzero;stroke:none"
         id="path1070"
         inkscape:connector-curvature="0" />
    </g>
  </g>
</svg>
